<svg width="1196" height="650" viewBox="0 0 1196 650" xmlns="http://www.w3.org/2000/svg" xmlns:xlink="http://www.w3.org/1999/xlink"><defs><filter x="-1.7%" y="-3.2%" width="103.7%" height="107%" filterUnits="objectBoundingBox" id="a"><feOffset dy="2" in="SourceAlpha" result="shadowOffsetOuter1"/><feGaussianBlur stdDeviation="2" in="shadowOffsetOuter1" result="shadowBlurOuter1"/><feColorMatrix values="0 0 0 0 0.508746603 0 0 0 0 0.508746603 0 0 0 0 0.508746603 0 0 0 0.5 0" in="shadowBlurOuter1" result="shadowMatrixOuter1"/><feMerge><feMergeNode in="shadowMatrixOuter1"/><feMergeNode in="SourceGraphic"/></feMerge></filter><filter x="-1.2%" y="-2.2%" width="102.7%" height="105.1%" filterUnits="objectBoundingBox" id="b"><feOffset dx="2" dy="2" in="SourceAlpha" result="shadowOffsetOuter1"/><feGaussianBlur stdDeviation="5" in="shadowOffsetOuter1" result="shadowBlurOuter1"/><feColorMatrix values="0 0 0 0 0 0 0 0 0 0 0 0 0 0 0 0 0 0 0.2 0" in="shadowBlurOuter1"/></filter><rect id="c" x="0" y="0" width="1174" height="627" rx="10"/></defs><g filter="url(#a)" transform="translate(9 8)" fill="none" fill-rule="evenodd"><use fill="#000" filter="url(#b)" xlink:href="#c"/><use fill="#FFF" xlink:href="#c"/><path d="M108.5 115a5 5 0 00-5 5v441a5 5 0 005 5h296a5 5 0 005-5V120a5 5 0 00-5-5h-296zm0-3h296a8 8 0 018 8v441a8 8 0 01-8 8h-296a8 8 0 01-8-8V120a8 8 0 018-8zm330 3a5 5 0 00-5 5v441a5 5 0 005 5h296a5 5 0 005-5V120a5 5 0 00-5-5h-296zm0-3h296a8 8 0 018 8v441a8 8 0 01-8 8h-296a8 8 0 01-8-8V120a8 8 0 018-8zm330 4a5 5 0 00-5 5v123a5 5 0 005 5h296a5 5 0 005-5V121a5 5 0 00-5-5h-296zm0-3h296a8 8 0 018 8v123a8 8 0 01-8 8h-296a8 8 0 01-8-8V121a8 8 0 018-8zm1 162a5 5 0 00-5 5v123a5 5 0 005 5h296a5 5 0 005-5V280a5 5 0 00-5-5h-296zm0-3h296a8 8 0 018 8v123a8 8 0 01-8 8h-296a8 8 0 01-8-8V280a8 8 0 018-8zm0 162a5 5 0 00-5 5v123a5 5 0 005 5h296a5 5 0 005-5V439a5 5 0 00-5-5h-296zm0-3h296a8 8 0 018 8v123a8 8 0 01-8 8h-296a8 8 0 01-8-8V439a8 8 0 018-8z" fill="#5A2AB5" fill-rule="nonzero"/><path d="M189.975 288.76h3.78v8.46h9.93v-8.46h3.78V310h-3.78v-9.36h-9.93V310h-3.78v-21.24zm30.9 19.26h-.09c-.52.82-1.18 1.415-1.98 1.785-.8.37-1.68.555-2.64.555a7.01 7.01 0 01-1.935-.27 5.24 5.24 0 01-1.68-.81c-.49-.36-.885-.81-1.185-1.35-.3-.54-.45-1.17-.45-1.89 0-.78.14-1.445.42-1.995.28-.55.655-1.01 1.125-1.38a5.701 5.701 0 011.635-.885 11.2 11.2 0 011.935-.495c.67-.11 1.345-.18 2.025-.21.68-.03 1.32-.045 1.92-.045h.9v-.39c0-.9-.31-1.575-.93-2.025-.62-.45-1.41-.675-2.37-.675-.76 0-1.47.135-2.13.405-.66.27-1.23.635-1.71 1.095l-1.89-1.89c.8-.82 1.735-1.41 2.805-1.77 1.07-.36 2.175-.54 3.315-.54 1.02 0 1.88.115 2.58.345.7.23 1.28.525 1.74.885.46.36.815.775 1.065 1.245.25.47.43.945.54 1.425.11.48.175.945.195 1.395.02.45.03.845.03 1.185V310h-3.24v-1.98zm-.21-4.47h-.75c-.5 0-1.06.02-1.68.06-.62.04-1.205.135-1.755.285-.55.15-1.015.37-1.395.66-.38.29-.57.695-.57 1.215 0 .34.075.625.225.855.15.23.345.425.585.585.24.16.51.275.81.345.3.07.6.105.9.105 1.24 0 2.155-.295 2.745-.885.59-.59.885-1.395.885-2.415v-.81zm7.32-7.95h3.6v2.28h.06c.4-.84.97-1.49 1.71-1.95.74-.46 1.59-.69 2.55-.69.22 0 .435.02.645.06.21.04.425.09.645.15v3.48c-.3-.08-.595-.145-.885-.195a5.026 5.026 0 00-.855-.075c-.84 0-1.515.155-2.025.465-.51.31-.9.665-1.17 1.065-.27.4-.45.8-.54 1.2-.09.4-.135.7-.135.9V310h-3.6v-14.4zm23.07 12.24h-.06c-.52.88-1.22 1.52-2.1 1.92-.88.4-1.83.6-2.85.6-1.12 0-2.115-.195-2.985-.585a6.688 6.688 0 01-2.235-1.605 6.862 6.862 0 01-1.41-2.4 8.98 8.98 0 01-.48-2.97c0-1.06.17-2.05.51-2.97.34-.92.815-1.72 1.425-2.4a6.568 6.568 0 012.205-1.605c.86-.39 1.8-.585 2.82-.585.68 0 1.28.07 1.8.21.52.14.98.32 1.38.54.4.22.74.455 1.02.705.28.25.51.495.69.735h.09v-10.11h3.6V310h-3.42v-2.16zm-8.52-5.04c0 .56.095 1.1.285 1.62.19.52.47.98.84 1.38.37.4.815.72 1.335.96s1.11.36 1.77.36c.66 0 1.25-.12 1.77-.36s.965-.56 1.335-.96c.37-.4.65-.86.84-1.38.19-.52.285-1.06.285-1.62s-.095-1.1-.285-1.62c-.19-.52-.47-.98-.84-1.38-.37-.4-.815-.72-1.335-.96s-1.11-.36-1.77-.36c-.66 0-1.25.12-1.77.36s-.965.56-1.335.96c-.37.4-.65.86-.84 1.38-.19.52-.285 1.06-.285 1.62zm14.07-7.2h3.9l3.12 10.08h.06l2.91-10.08h3.9l3.12 10.08h.06l3-10.08h3.63l-4.89 14.4h-3.57l-3.42-9.84h-.06l-3.03 9.84h-3.72l-5.01-14.4zm34.83 12.42h-.09c-.52.82-1.18 1.415-1.98 1.785-.8.37-1.68.555-2.64.555a7.01 7.01 0 01-1.935-.27 5.24 5.24 0 01-1.68-.81c-.49-.36-.885-.81-1.185-1.35-.3-.54-.45-1.17-.45-1.89 0-.78.14-1.445.42-1.995.28-.55.655-1.01 1.125-1.38a5.701 5.701 0 011.635-.885 11.2 11.2 0 011.935-.495c.67-.11 1.345-.18 2.025-.21.68-.03 1.32-.045 1.92-.045h.9v-.39c0-.9-.31-1.575-.93-2.025-.62-.45-1.41-.675-2.37-.675-.76 0-1.47.135-2.13.405-.66.27-1.23.635-1.71 1.095l-1.89-1.89c.8-.82 1.735-1.41 2.805-1.77 1.07-.36 2.175-.54 3.315-.54 1.02 0 1.88.115 2.58.345.7.23 1.28.525 1.74.885.46.36.815.775 1.065 1.245.25.47.43.945.54 1.425.11.48.175.945.195 1.395.02.45.03.845.03 1.185V310h-3.24v-1.98zm-.21-4.47h-.75c-.5 0-1.06.02-1.68.06-.62.04-1.205.135-1.755.285-.55.15-1.015.37-1.395.66-.38.29-.57.695-.57 1.215 0 .34.075.625.225.855.15.23.345.425.585.585.24.16.51.275.81.345.3.07.6.105.9.105 1.24 0 2.155-.295 2.745-.885.59-.59.885-1.395.885-2.415v-.81zm7.32-7.95h3.6v2.28h.06c.4-.84.97-1.49 1.71-1.95.74-.46 1.59-.69 2.55-.69.22 0 .435.02.645.06.21.04.425.09.645.15v3.48c-.3-.08-.595-.145-.885-.195a5.026 5.026 0 00-.855-.075c-.84 0-1.515.155-2.025.465-.51.31-.9.665-1.17 1.065-.27.4-.45.8-.54 1.2-.09.4-.135.7-.135.9V310h-3.6v-14.4zm14.55 8.46c.12 1.08.54 1.92 1.26 2.52.72.6 1.59.9 2.61.9.9 0 1.655-.185 2.265-.555a6.279 6.279 0 001.605-1.395l2.58 1.95c-.84 1.04-1.78 1.78-2.82 2.22-1.04.44-2.13.66-3.27.66-1.08 0-2.1-.18-3.06-.54a7.34 7.34 0 01-2.49-1.53 7.26 7.26 0 01-1.665-2.385c-.41-.93-.615-1.965-.615-3.105s.205-2.175.615-3.105a7.26 7.26 0 011.665-2.385 7.34 7.34 0 012.49-1.53c.96-.36 1.98-.54 3.06-.54 1 0 1.915.175 2.745.525.83.35 1.54.855 2.13 1.515.59.66 1.05 1.475 1.38 2.445.33.97.495 2.085.495 3.345v.99h-10.98zm7.38-2.7c-.02-1.06-.35-1.895-.99-2.505-.64-.61-1.53-.915-2.67-.915-1.08 0-1.935.31-2.565.93-.63.62-1.015 1.45-1.155 2.49h7.38zm-142.17 28.4h8.37c1.4 0 2.75.215 4.05.645a9.84 9.84 0 013.45 1.965c1 .88 1.8 1.985 2.4 3.315.6 1.33.9 2.895.9 4.695 0 1.82-.345 3.395-1.035 4.725-.69 1.33-1.58 2.43-2.67 3.3-1.09.87-2.3 1.52-3.63 1.95-1.33.43-2.635.645-3.915.645h-7.92v-21.24zm6.6 17.82c1.18 0 2.295-.135 3.345-.405 1.05-.27 1.965-.69 2.745-1.26a5.983 5.983 0 001.845-2.22c.45-.91.675-2.015.675-3.315 0-1.28-.2-2.38-.6-3.3-.4-.92-.955-1.665-1.665-2.235-.71-.57-1.55-.99-2.52-1.26s-2.035-.405-3.195-.405h-3.45v14.4h2.82zm18.72-2.52c.12 1.08.54 1.92 1.26 2.52.72.6 1.59.9 2.61.9.9 0 1.655-.185 2.265-.555a6.279 6.279 0 001.605-1.395l2.58 1.95c-.84 1.04-1.78 1.78-2.82 2.22-1.04.44-2.13.66-3.27.66-1.08 0-2.1-.18-3.06-.54a7.34 7.34 0 01-2.49-1.53 7.26 7.26 0 01-1.665-2.385c-.41-.93-.615-1.965-.615-3.105s.205-2.175.615-3.105a7.26 7.26 0 011.665-2.385 7.34 7.34 0 012.49-1.53c.96-.36 1.98-.54 3.06-.54 1 0 1.915.175 2.745.525.83.35 1.54.855 2.13 1.515.59.66 1.05 1.475 1.38 2.445.33.97.495 2.085.495 3.345v.99h-10.98zm7.38-2.7c-.02-1.06-.35-1.895-.99-2.505-.64-.61-1.53-.915-2.67-.915-1.08 0-1.935.31-2.565.93-.63.62-1.015 1.45-1.155 2.49h7.38zm14.64-1.77c-.7-.98-1.64-1.47-2.82-1.47-.48 0-.95.12-1.41.36-.46.24-.69.63-.69 1.17 0 .44.19.76.57.96.38.2.86.37 1.44.51s1.205.285 1.875.435c.67.15 1.295.38 1.875.69.58.31 1.06.735 1.44 1.275.38.54.57 1.28.57 2.22 0 .86-.185 1.585-.555 2.175-.37.59-.85 1.065-1.44 1.425-.59.36-1.255.62-1.995.78-.74.16-1.48.24-2.22.24-1.12 0-2.15-.16-3.09-.48-.94-.32-1.78-.9-2.52-1.74l2.4-2.25c.46.52.955.945 1.485 1.275.53.33 1.175.495 1.935.495.26 0 .53-.03.81-.09s.54-.16.78-.3c.24-.14.435-.315.585-.525.15-.21.225-.455.225-.735 0-.5-.19-.87-.57-1.11-.38-.24-.86-.435-1.44-.585-.58-.15-1.205-.29-1.875-.42a7.265 7.265 0 01-1.875-.63 3.94 3.94 0 01-1.44-1.215c-.38-.52-.57-1.24-.57-2.16 0-.8.165-1.495.495-2.085a4.35 4.35 0 011.305-1.455c.54-.38 1.16-.66 1.86-.84.7-.18 1.41-.27 2.13-.27.96 0 1.91.165 2.85.495.94.33 1.7.895 2.28 1.695l-2.4 2.16zm15.48.33c-.42-.44-.86-.79-1.32-1.05-.46-.26-.93-.39-1.41-.39-.66 0-1.25.12-1.77.36s-.965.56-1.335.96c-.37.4-.65.86-.84 1.38-.19.52-.285 1.06-.285 1.62s.095 1.1.285 1.62c.19.52.47.98.84 1.38.37.4.815.72 1.335.96s1.11.36 1.77.36c.56 0 1.08-.115 1.56-.345.48-.23.89-.565 1.23-1.005l2.4 2.58c-.36.36-.775.67-1.245.93a8.696 8.696 0 01-2.805.975c-.44.07-.82.105-1.14.105-1.08 0-2.1-.18-3.06-.54a7.34 7.34 0 01-2.49-1.53 7.26 7.26 0 01-1.665-2.385c-.41-.93-.615-1.965-.615-3.105s.205-2.175.615-3.105a7.26 7.26 0 011.665-2.385 7.34 7.34 0 012.49-1.53c.96-.36 1.98-.54 3.06-.54.92 0 1.845.175 2.775.525.93.35 1.745.905 2.445 1.665l-2.49 2.49zm4.62-4.32h3.6v2.28h.06c.4-.84.97-1.49 1.71-1.95.74-.46 1.59-.69 2.55-.69.22 0 .435.02.645.06.21.04.425.09.645.15v3.48c-.3-.08-.595-.145-.885-.195a5.026 5.026 0 00-.855-.075c-.84 0-1.515.155-2.025.465-.51.31-.9.665-1.17 1.065-.27.4-.45.8-.54 1.2-.09.4-.135.7-.135.9V351h-3.6v-14.4zm11.73 0h3.6V351h-3.6v-14.4zm-.51-4.89c0-.58.215-1.085.645-1.515.43-.43.975-.645 1.635-.645s1.215.205 1.665.615c.45.41.675.925.675 1.545 0 .62-.225 1.135-.675 1.545-.45.41-1.005.615-1.665.615-.66 0-1.205-.215-1.635-.645-.43-.43-.645-.935-.645-1.515zm8.25 4.89h3.42v2.16h.06c.52-.88 1.22-1.52 2.1-1.92.88-.4 1.83-.6 2.85-.6 1.1 0 2.09.195 2.97.585.88.39 1.63.925 2.25 1.605.62.68 1.09 1.48 1.41 2.4.32.92.48 1.91.48 2.97a8.5 8.5 0 01-.51 2.97c-.34.92-.815 1.72-1.425 2.4a6.568 6.568 0 01-2.205 1.605c-.86.39-1.8.585-2.82.585-.68 0-1.28-.07-1.8-.21-.52-.14-.98-.32-1.38-.54a5.52 5.52 0 01-1.02-.705c-.28-.25-.51-.495-.69-.735h-.09v8.67h-3.6V336.6zm11.94 7.2c0-.56-.095-1.1-.285-1.62-.19-.52-.47-.98-.84-1.38-.37-.4-.815-.72-1.335-.96s-1.11-.36-1.77-.36c-.66 0-1.25.12-1.77.36s-.965.56-1.335.96c-.37.4-.65.86-.84 1.38-.19.52-.285 1.06-.285 1.62s.095 1.1.285 1.62c.19.52.47.98.84 1.38.37.4.815.72 1.335.96s1.11.36 1.77.36c.66 0 1.25-.12 1.77-.36s.965-.56 1.335-.96c.37-.4.65-.86.84-1.38.19-.52.285-1.06.285-1.62zm5.28-4.14v-3.06h2.97v-4.17h3.6v4.17h3.96v3.06h-3.96v6.3c0 .72.135 1.29.405 1.71.27.42.805.63 1.605.63.32 0 .67-.035 1.05-.105.38-.07.68-.185.9-.345v3.03c-.38.18-.845.305-1.395.375s-1.035.105-1.455.105c-.96 0-1.745-.105-2.355-.315-.61-.21-1.09-.53-1.44-.96-.35-.43-.59-.965-.72-1.605s-.195-1.38-.195-2.22v-6.6h-2.97zm13.41-3.06h3.6V351h-3.6v-14.4zm-.51-4.89c0-.58.215-1.085.645-1.515.43-.43.975-.645 1.635-.645s1.215.205 1.665.615c.45.41.675.925.675 1.545 0 .62-.225 1.135-.675 1.545-.45.41-1.005.615-1.665.615-.66 0-1.205-.215-1.635-.645-.43-.43-.645-.935-.645-1.515zm7.53 12.09c0-1.14.205-2.175.615-3.105a7.26 7.26 0 011.665-2.385 7.34 7.34 0 012.49-1.53c.96-.36 1.98-.54 3.06-.54s2.1.18 3.06.54c.96.36 1.79.87 2.49 1.53a7.26 7.26 0 011.665 2.385c.41.93.615 1.965.615 3.105s-.205 2.175-.615 3.105a7.26 7.26 0 01-1.665 2.385 7.34 7.34 0 01-2.49 1.53c-.96.36-1.98.54-3.06.54s-2.1-.18-3.06-.54a7.34 7.34 0 01-2.49-1.53 7.26 7.26 0 01-1.665-2.385c-.41-.93-.615-1.965-.615-3.105zm3.6 0c0 .56.095 1.1.285 1.62.19.52.47.98.84 1.38.37.4.815.72 1.335.96s1.11.36 1.77.36c.66 0 1.25-.12 1.77-.36s.965-.56 1.335-.96c.37-.4.65-.86.84-1.38.19-.52.285-1.06.285-1.62s-.095-1.1-.285-1.62c-.19-.52-.47-.98-.84-1.38-.37-.4-.815-.72-1.335-.96s-1.11-.36-1.77-.36c-.66 0-1.25.12-1.77.36s-.965.56-1.335.96c-.37.4-.65.86-.84 1.38-.19.52-.285 1.06-.285 1.62zm15.42-7.2h3.42v2.31h.06c.34-.72.86-1.345 1.56-1.875.7-.53 1.65-.795 2.85-.795.96 0 1.775.16 2.445.48.67.32 1.215.74 1.635 1.26.42.52.72 1.12.9 1.8.18.68.27 1.39.27 2.13V351h-3.6v-7.29c0-.4-.02-.845-.06-1.335-.04-.49-.145-.95-.315-1.38-.17-.43-.435-.79-.795-1.08-.36-.29-.85-.435-1.47-.435-.6 0-1.105.1-1.515.3-.41.2-.75.47-1.02.81-.27.34-.465.73-.585 1.17-.12.44-.18.9-.18 1.38V351h-3.6v-14.4zm-138.3 34.16h3.78v17.82h9.03V392h-12.81v-21.24zm24.24 19.26h-.09c-.52.82-1.18 1.415-1.98 1.785-.8.37-1.68.555-2.64.555a7.01 7.01 0 01-1.935-.27 5.24 5.24 0 01-1.68-.81c-.49-.36-.885-.81-1.185-1.35-.3-.54-.45-1.17-.45-1.89 0-.78.14-1.445.42-1.995.28-.55.655-1.01 1.125-1.38a5.701 5.701 0 011.635-.885 11.2 11.2 0 011.935-.495c.67-.11 1.345-.18 2.025-.21.68-.03 1.32-.045 1.92-.045h.9v-.39c0-.9-.31-1.575-.93-2.025-.62-.45-1.41-.675-2.37-.675-.76 0-1.47.135-2.13.405-.66.27-1.23.635-1.71 1.095l-1.89-1.89c.8-.82 1.735-1.41 2.805-1.77 1.07-.36 2.175-.54 3.315-.54 1.02 0 1.88.115 2.58.345.7.23 1.28.525 1.74.885.46.36.815.775 1.065 1.245.25.47.43.945.54 1.425.11.48.175.945.195 1.395.02.45.03.845.03 1.185V392h-3.24v-1.98zm-.21-4.47h-.75c-.5 0-1.06.02-1.68.06-.62.04-1.205.135-1.755.285-.55.15-1.015.37-1.395.66-.38.29-.57.695-.57 1.215 0 .34.075.625.225.855.15.23.345.425.585.585.24.16.51.275.81.345.3.07.6.105.9.105 1.24 0 2.155-.295 2.745-.885.59-.59.885-1.395.885-2.415v-.81zm7.32-7.95h3.42v2.31h.06c.34-.72.86-1.345 1.56-1.875.7-.53 1.65-.795 2.85-.795.96 0 1.775.16 2.445.48.67.32 1.215.74 1.635 1.26.42.52.72 1.12.9 1.8.18.68.27 1.39.27 2.13V392h-3.6v-7.29c0-.4-.02-.845-.06-1.335-.04-.49-.145-.95-.315-1.38-.17-.43-.435-.79-.795-1.08-.36-.29-.85-.435-1.47-.435-.6 0-1.105.1-1.515.3-.41.2-.75.47-1.02.81-.27.34-.465.73-.585 1.17-.12.44-.18.9-.18 1.38V392h-3.6v-14.4zm32.04 0v13.11c0 1.3-.16 2.475-.48 3.525-.32 1.05-.815 1.94-1.485 2.67-.67.73-1.515 1.295-2.535 1.695-1.02.4-2.23.6-3.63.6-1.34 0-2.61-.17-3.81-.51-1.2-.34-2.31-.96-3.33-1.86l2.16-2.94c.72.66 1.47 1.17 2.25 1.53.78.36 1.68.54 2.7.54.86 0 1.585-.12 2.175-.36.59-.24 1.06-.57 1.41-.99.35-.42.6-.925.75-1.515.15-.59.225-1.245.225-1.965v-1.05h-.06c-.52.7-1.21 1.225-2.07 1.575-.86.35-1.74.525-2.64.525-1.08 0-2.06-.195-2.94-.585a7.029 7.029 0 01-2.265-1.575 6.854 6.854 0 01-1.455-2.34c-.34-.9-.51-1.86-.51-2.88 0-1.06.16-2.05.48-2.97.32-.92.79-1.72 1.41-2.4a6.688 6.688 0 012.235-1.605c.87-.39 1.865-.585 2.985-.585 1.02 0 1.97.2 2.85.6.88.4 1.58 1.04 2.1 1.92h.06v-2.16h3.42zm-7.68 2.88c-.64 0-1.22.105-1.74.315-.52.21-.965.5-1.335.87s-.66.82-.87 1.35a4.725 4.725 0 00-.315 1.755 4.086 4.086 0 001.2 2.94 4.267 4.267 0 003.03 1.23c.66 0 1.255-.11 1.785-.33.53-.22.98-.515 1.35-.885.37-.37.655-.815.855-1.335.2-.52.3-1.08.3-1.68 0-1.26-.38-2.28-1.14-3.06-.76-.78-1.8-1.17-3.12-1.17zm24.9 11.52h-3.42v-2.31h-.06c-.34.72-.86 1.345-1.56 1.875-.7.53-1.65.795-2.85.795-.96 0-1.775-.155-2.445-.465a4.404 4.404 0 01-1.635-1.26 4.91 4.91 0 01-.9-1.815 8.29 8.29 0 01-.27-2.13v-9.09h3.6v7.29c0 .4.02.845.06 1.335.04.49.145.95.315 1.38.17.43.43.79.78 1.08.35.29.845.435 1.485.435.6 0 1.105-.1 1.515-.3.41-.2.75-.47 1.02-.81.27-.34.465-.73.585-1.17.12-.44.18-.9.18-1.38v-7.86h3.6V392zm13.08-1.98h-.09c-.52.82-1.18 1.415-1.98 1.785-.8.37-1.68.555-2.64.555a7.01 7.01 0 01-1.935-.27 5.24 5.24 0 01-1.68-.81c-.49-.36-.885-.81-1.185-1.35-.3-.54-.45-1.17-.45-1.89 0-.78.14-1.445.42-1.995.28-.55.655-1.01 1.125-1.38a5.701 5.701 0 011.635-.885 11.2 11.2 0 011.935-.495c.67-.11 1.345-.18 2.025-.21.68-.03 1.32-.045 1.92-.045h.9v-.39c0-.9-.31-1.575-.93-2.025-.62-.45-1.41-.675-2.37-.675-.76 0-1.47.135-2.13.405-.66.27-1.23.635-1.71 1.095l-1.89-1.89c.8-.82 1.735-1.41 2.805-1.77 1.07-.36 2.175-.54 3.315-.54 1.02 0 1.88.115 2.58.345.7.23 1.28.525 1.74.885.46.36.815.775 1.065 1.245.25.47.43.945.54 1.425.11.48.175.945.195 1.395.02.45.03.845.03 1.185V392h-3.24v-1.98zm-.21-4.47h-.75c-.5 0-1.06.02-1.68.06-.62.04-1.205.135-1.755.285-.55.15-1.015.37-1.395.66-.38.29-.57.695-.57 1.215 0 .34.075.625.225.855.15.23.345.425.585.585.24.16.51.275.81.345.3.07.6.105.9.105 1.24 0 2.155-.295 2.745-.885.59-.59.885-1.395.885-2.415v-.81zm22.14-7.95v13.11c0 1.3-.16 2.475-.48 3.525-.32 1.05-.815 1.94-1.485 2.67-.67.73-1.515 1.295-2.535 1.695-1.02.4-2.23.6-3.63.6-1.34 0-2.61-.17-3.81-.51-1.2-.34-2.31-.96-3.33-1.86l2.16-2.94c.72.66 1.47 1.17 2.25 1.53.78.36 1.68.54 2.7.54.86 0 1.585-.12 2.175-.36.59-.24 1.06-.57 1.41-.99.35-.42.6-.925.75-1.515.15-.59.225-1.245.225-1.965v-1.05h-.06c-.52.7-1.21 1.225-2.07 1.575-.86.35-1.74.525-2.64.525-1.08 0-2.06-.195-2.94-.585a7.029 7.029 0 01-2.265-1.575 6.854 6.854 0 01-1.455-2.34c-.34-.9-.51-1.86-.51-2.88 0-1.06.16-2.05.48-2.97.32-.92.79-1.72 1.41-2.4a6.688 6.688 0 012.235-1.605c.87-.39 1.865-.585 2.985-.585 1.02 0 1.97.2 2.85.6.88.4 1.58 1.04 2.1 1.92h.06v-2.16h3.42zm-7.68 2.88c-.64 0-1.22.105-1.74.315-.52.21-.965.5-1.335.87s-.66.82-.87 1.35a4.725 4.725 0 00-.315 1.755 4.086 4.086 0 001.2 2.94 4.267 4.267 0 003.03 1.23c.66 0 1.255-.11 1.785-.33.53-.22.98-.515 1.35-.885.37-.37.655-.815.855-1.335.2-.52.3-1.08.3-1.68 0-1.26-.38-2.28-1.14-3.06-.76-.78-1.8-1.17-3.12-1.17zm14.64 5.58c.12 1.08.54 1.92 1.26 2.52.72.6 1.59.9 2.61.9.9 0 1.655-.185 2.265-.555a6.279 6.279 0 001.605-1.395l2.58 1.95c-.84 1.04-1.78 1.78-2.82 2.22-1.04.44-2.13.66-3.27.66-1.08 0-2.1-.18-3.06-.54a7.34 7.34 0 01-2.49-1.53 7.26 7.26 0 01-1.665-2.385c-.41-.93-.615-1.965-.615-3.105s.205-2.175.615-3.105a7.26 7.26 0 011.665-2.385 7.34 7.34 0 012.49-1.53c.96-.36 1.98-.54 3.06-.54 1 0 1.915.175 2.745.525.83.35 1.54.855 2.13 1.515.59.66 1.05 1.475 1.38 2.445.33.97.495 2.085.495 3.345v.99h-10.98zm7.38-2.7c-.02-1.06-.35-1.895-.99-2.505-.64-.61-1.53-.915-2.67-.915-1.08 0-1.935.31-2.565.93-.63.62-1.015 1.45-1.155 2.49h7.38zm14.64-1.77c-.7-.98-1.64-1.47-2.82-1.47-.48 0-.95.12-1.41.36-.46.24-.69.63-.69 1.17 0 .44.19.76.57.96.38.2.86.37 1.44.51s1.205.285 1.875.435c.67.15 1.295.38 1.875.69.58.31 1.06.735 1.44 1.275.38.54.57 1.28.57 2.22 0 .86-.185 1.585-.555 2.175-.37.59-.85 1.065-1.44 1.425-.59.36-1.255.62-1.995.78-.74.16-1.48.24-2.22.24-1.12 0-2.15-.16-3.09-.48-.94-.32-1.78-.9-2.52-1.74l2.4-2.25c.46.52.955.945 1.485 1.275.53.33 1.175.495 1.935.495.26 0 .53-.03.81-.09s.54-.16.78-.3c.24-.14.435-.315.585-.525.15-.21.225-.455.225-.735 0-.5-.19-.87-.57-1.11-.38-.24-.86-.435-1.44-.585-.58-.15-1.205-.29-1.875-.42a7.265 7.265 0 01-1.875-.63 3.94 3.94 0 01-1.44-1.215c-.38-.52-.57-1.24-.57-2.16 0-.8.165-1.495.495-2.085a4.35 4.35 0 011.305-1.455c.54-.38 1.16-.66 1.86-.84.7-.18 1.41-.27 2.13-.27.96 0 1.91.165 2.85.495.94.33 1.7.895 2.28 1.695l-2.4 2.16zM534 315.32a3.487 3.487 0 00-1.605-1.275 5.605 5.605 0 00-2.115-.405c-.44 0-.865.05-1.275.15-.41.1-.78.26-1.11.48-.33.22-.595.505-.795.855-.2.35-.3.765-.3 1.245 0 .72.25 1.27.75 1.65.5.38 1.12.71 1.86.99s1.55.55 2.43.81c.88.26 1.69.62 2.43 1.08a6.01 6.01 0 011.86 1.83c.5.76.75 1.77.75 3.03 0 1.14-.21 2.135-.63 2.985a6.082 6.082 0 01-1.695 2.115c-.71.56-1.535.98-2.475 1.26-.94.28-1.93.42-2.97.42-1.32 0-2.59-.22-3.81-.66-1.22-.44-2.27-1.18-3.15-2.22l2.85-2.76c.46.7 1.065 1.245 1.815 1.635a5.098 5.098 0 003.705.405c.44-.12.84-.3 1.2-.54.36-.24.65-.545.87-.915.22-.37.33-.795.33-1.275 0-.78-.25-1.38-.75-1.8-.5-.42-1.12-.775-1.86-1.065-.74-.29-1.55-.565-2.43-.825-.88-.26-1.69-.615-2.43-1.065a5.91 5.91 0 01-1.86-1.8c-.5-.75-.75-1.755-.75-3.015 0-1.1.225-2.05.675-2.85.45-.8 1.04-1.465 1.77-1.995a7.726 7.726 0 012.505-1.185 10.754 10.754 0 016.135.12c1.05.34 1.995.9 2.835 1.68l-2.76 2.91zm4.53 2.28h3.96l4.02 9.99h.06l3.6-9.99h3.75l-6.81 17.49a11.01 11.01 0 01-.855 1.785c-.31.51-.675.94-1.095 1.29-.42.35-.915.61-1.485.78-.57.17-1.255.255-2.055.255-.94 0-1.86-.12-2.76-.36l.45-3.24c.28.1.575.185.885.255.31.07.625.105.945.105.44 0 .81-.04 1.11-.12.3-.08.555-.205.765-.375.21-.17.385-.39.525-.66s.29-.595.45-.975l.69-1.71-6.15-14.52zm17.52 0h3.42v2.31h.06c.34-.72.86-1.345 1.56-1.875.7-.53 1.65-.795 2.85-.795.96 0 1.775.16 2.445.48.67.32 1.215.74 1.635 1.26.42.52.72 1.12.9 1.8.18.68.27 1.39.27 2.13V332h-3.6v-7.29c0-.4-.02-.845-.06-1.335-.04-.49-.145-.95-.315-1.38-.17-.43-.435-.79-.795-1.08-.36-.29-.85-.435-1.47-.435-.6 0-1.105.1-1.515.3-.41.2-.75.47-1.02.81-.27.34-.465.73-.585 1.17-.12.44-.18.9-.18 1.38V332h-3.6v-14.4zm15.54 3.06v-3.06h2.97v-4.17h3.6v4.17h3.96v3.06h-3.96v6.3c0 .72.135 1.29.405 1.71.27.42.805.63 1.605.63.32 0 .67-.035 1.05-.105.38-.07.68-.185.9-.345v3.03c-.38.18-.845.305-1.395.375s-1.035.105-1.455.105c-.96 0-1.745-.105-2.355-.315-.61-.21-1.09-.53-1.44-.96-.35-.43-.59-.965-.72-1.605s-.195-1.38-.195-2.22v-6.6h-2.97zm16.95-1.05h.06c.28-.6.775-1.145 1.485-1.635.71-.49 1.625-.735 2.745-.735.96 0 1.775.16 2.445.48.67.32 1.215.74 1.635 1.26.42.52.72 1.12.9 1.8.18.68.27 1.39.27 2.13V332h-3.6v-7.29c0-.4-.02-.845-.06-1.335-.04-.49-.145-.95-.315-1.38-.17-.43-.435-.79-.795-1.08-.36-.29-.85-.435-1.47-.435-.6 0-1.105.1-1.515.3-.41.2-.75.47-1.02.81-.27.34-.465.73-.585 1.17-.12.44-.18.9-.18 1.38V332h-3.6v-22.68h3.6v10.29zm16.5 6.45c.12 1.08.54 1.92 1.26 2.52.72.6 1.59.9 2.61.9.9 0 1.655-.185 2.265-.555a6.279 6.279 0 001.605-1.395l2.58 1.95c-.84 1.04-1.78 1.78-2.82 2.22-1.04.44-2.13.66-3.27.66-1.08 0-2.1-.18-3.06-.54a7.34 7.34 0 01-2.49-1.53 7.26 7.26 0 01-1.665-2.385c-.41-.93-.615-1.965-.615-3.105s.205-2.175.615-3.105a7.26 7.26 0 011.665-2.385 7.34 7.34 0 012.49-1.53c.96-.36 1.98-.54 3.06-.54 1 0 1.915.175 2.745.525.83.35 1.54.855 2.13 1.515.59.66 1.05 1.475 1.38 2.445.33.97.495 2.085.495 3.345v.99h-10.98zm7.38-2.7c-.02-1.06-.35-1.895-.99-2.505-.64-.61-1.53-.915-2.67-.915-1.08 0-1.935.31-2.565.93-.63.62-1.015 1.45-1.155 2.49h7.38zm14.64-1.77c-.7-.98-1.64-1.47-2.82-1.47-.48 0-.95.12-1.41.36-.46.24-.69.63-.69 1.17 0 .44.19.76.57.96.38.2.86.37 1.44.51s1.205.285 1.875.435c.67.15 1.295.38 1.875.69.58.31 1.06.735 1.44 1.275.38.54.57 1.28.57 2.22 0 .86-.185 1.585-.555 2.175-.37.59-.85 1.065-1.44 1.425-.59.36-1.255.62-1.995.78-.74.16-1.48.24-2.22.24-1.12 0-2.15-.16-3.09-.48-.94-.32-1.78-.9-2.52-1.74l2.4-2.25c.46.52.955.945 1.485 1.275.53.33 1.175.495 1.935.495.26 0 .53-.03.81-.09s.54-.16.78-.3c.24-.14.435-.315.585-.525.15-.21.225-.455.225-.735 0-.5-.19-.87-.57-1.11-.38-.24-.86-.435-1.44-.585-.58-.15-1.205-.29-1.875-.42a7.265 7.265 0 01-1.875-.63 3.94 3.94 0 01-1.44-1.215c-.38-.52-.57-1.24-.57-2.16 0-.8.165-1.495.495-2.085a4.35 4.35 0 011.305-1.455c.54-.38 1.16-.66 1.86-.84.7-.18 1.41-.27 2.13-.27.96 0 1.91.165 2.85.495.94.33 1.7.895 2.28 1.695l-2.4 2.16zm5.7-3.99h3.6V332h-3.6v-14.4zm-.51-4.89c0-.58.215-1.085.645-1.515.43-.43.975-.645 1.635-.645s1.215.205 1.665.615c.45.41.675.925.675 1.545 0 .62-.225 1.135-.675 1.545-.45.41-1.005.615-1.665.615-.66 0-1.205-.215-1.635-.645-.43-.43-.645-.935-.645-1.515zm15.93 8.88c-.7-.98-1.64-1.47-2.82-1.47-.48 0-.95.12-1.41.36-.46.24-.69.63-.69 1.17 0 .44.19.76.57.96.38.2.86.37 1.44.51s1.205.285 1.875.435c.67.15 1.295.38 1.875.69.58.31 1.06.735 1.44 1.275.38.54.57 1.28.57 2.22 0 .86-.185 1.585-.555 2.175-.37.59-.85 1.065-1.44 1.425-.59.36-1.255.62-1.995.78-.74.16-1.48.24-2.22.24-1.12 0-2.15-.16-3.09-.48-.94-.32-1.78-.9-2.52-1.74l2.4-2.25c.46.52.955.945 1.485 1.275.53.33 1.175.495 1.935.495.26 0 .53-.03.81-.09s.54-.16.78-.3c.24-.14.435-.315.585-.525.15-.21.225-.455.225-.735 0-.5-.19-.87-.57-1.11-.38-.24-.86-.435-1.44-.585-.58-.15-1.205-.29-1.875-.42a7.265 7.265 0 01-1.875-.63 3.94 3.94 0 01-1.44-1.215c-.38-.52-.57-1.24-.57-2.16 0-.8.165-1.495.495-2.085a4.35 4.35 0 011.305-1.455c.54-.38 1.16-.66 1.86-.84.7-.18 1.41-.27 2.13-.27.96 0 1.91.165 2.85.495.94.33 1.7.895 2.28 1.695l-2.4 2.16zm-96.015 40.07v-3.06h2.97v-4.17h3.6v4.17h3.96v3.06h-3.96v6.3c0 .72.135 1.29.405 1.71.27.42.805.63 1.605.63.32 0 .67-.035 1.05-.105.38-.07.68-.185.9-.345v3.03c-.38.18-.845.305-1.395.375s-1.035.105-1.455.105c-.96 0-1.745-.105-2.355-.315-.61-.21-1.09-.53-1.44-.96-.35-.43-.59-.965-.72-1.605s-.195-1.38-.195-2.22v-6.6h-2.97zm12.63 4.14c0-1.14.205-2.175.615-3.105a7.26 7.26 0 011.665-2.385 7.34 7.34 0 012.49-1.53c.96-.36 1.98-.54 3.06-.54s2.1.18 3.06.54c.96.36 1.79.87 2.49 1.53a7.26 7.26 0 011.665 2.385c.41.93.615 1.965.615 3.105s-.205 2.175-.615 3.105a7.26 7.26 0 01-1.665 2.385 7.34 7.34 0 01-2.49 1.53c-.96.36-1.98.54-3.06.54s-2.1-.18-3.06-.54a7.34 7.34 0 01-2.49-1.53 7.26 7.26 0 01-1.665-2.385c-.41-.93-.615-1.965-.615-3.105zm3.6 0c0 .56.095 1.1.285 1.62.19.52.47.98.84 1.38.37.4.815.72 1.335.96s1.11.36 1.77.36c.66 0 1.25-.12 1.77-.36s.965-.56 1.335-.96c.37-.4.65-.86.84-1.38.19-.52.285-1.06.285-1.62s-.095-1.1-.285-1.62c-.19-.52-.47-.98-.84-1.38-.37-.4-.815-.72-1.335-.96s-1.11-.36-1.77-.36c-.66 0-1.25.12-1.77.36s-.965.56-1.335.96c-.37.4-.65.86-.84 1.38-.19.52-.285 1.06-.285 1.62zm14.7 0c0-1.14.205-2.175.615-3.105a7.26 7.26 0 011.665-2.385 7.34 7.34 0 012.49-1.53c.96-.36 1.98-.54 3.06-.54s2.1.18 3.06.54c.96.36 1.79.87 2.49 1.53a7.26 7.26 0 011.665 2.385c.41.93.615 1.965.615 3.105s-.205 2.175-.615 3.105a7.26 7.26 0 01-1.665 2.385 7.34 7.34 0 01-2.49 1.53c-.96.36-1.98.54-3.06.54s-2.1-.18-3.06-.54a7.34 7.34 0 01-2.49-1.53 7.26 7.26 0 01-1.665-2.385c-.41-.93-.615-1.965-.615-3.105zm3.6 0c0 .56.095 1.1.285 1.62.19.52.47.98.84 1.38.37.4.815.72 1.335.96s1.11.36 1.77.36c.66 0 1.25-.12 1.77-.36s.965-.56 1.335-.96c.37-.4.65-.86.84-1.38.19-.52.285-1.06.285-1.62s-.095-1.1-.285-1.62c-.19-.52-.47-.98-.84-1.38-.37-.4-.815-.72-1.335-.96s-1.11-.36-1.77-.36c-.66 0-1.25.12-1.77.36s-.965.56-1.335.96c-.37.4-.65.86-.84 1.38-.19.52-.285 1.06-.285 1.62zm15.48-15.48h3.6V373h-3.6v-22.68zm15.42 12.27c-.7-.98-1.64-1.47-2.82-1.47-.48 0-.95.12-1.41.36-.46.24-.69.63-.69 1.17 0 .44.19.76.57.96.38.2.86.37 1.44.51s1.205.285 1.875.435c.67.15 1.295.38 1.875.69.58.31 1.06.735 1.44 1.275.38.54.57 1.28.57 2.22 0 .86-.185 1.585-.555 2.175-.37.59-.85 1.065-1.44 1.425-.59.36-1.255.62-1.995.78-.74.16-1.48.24-2.22.24-1.12 0-2.15-.16-3.09-.48-.94-.32-1.78-.9-2.52-1.74l2.4-2.25c.46.52.955.945 1.485 1.275.53.33 1.175.495 1.935.495.26 0 .53-.03.81-.09s.54-.16.78-.3c.24-.14.435-.315.585-.525.15-.21.225-.455.225-.735 0-.5-.19-.87-.57-1.11-.38-.24-.86-.435-1.44-.585-.58-.15-1.205-.29-1.875-.42a7.265 7.265 0 01-1.875-.63 3.94 3.94 0 01-1.44-1.215c-.38-.52-.57-1.24-.57-2.16 0-.8.165-1.495.495-2.085a4.35 4.35 0 011.305-1.455c.54-.38 1.16-.66 1.86-.84.7-.18 1.41-.27 2.13-.27.96 0 1.91.165 2.85.495.94.33 1.7.895 2.28 1.695l-2.4 2.16zm230.35-190.83h3.27l9.15 21.24h-4.32l-1.98-4.86h-9.21l-1.92 4.86h-4.23l9.24-21.24zm4.8 13.14l-3.27-8.64-3.33 8.64h6.6zm20.4-8.58a3.487 3.487 0 00-1.605-1.275 5.605 5.605 0 00-2.115-.405c-.44 0-.865.05-1.275.15-.41.1-.78.26-1.11.48-.33.22-.595.505-.795.855-.2.35-.3.765-.3 1.245 0 .72.25 1.27.75 1.65.5.38 1.12.71 1.86.99s1.55.55 2.43.81c.88.26 1.69.62 2.43 1.08a6.01 6.01 0 011.86 1.83c.5.76.75 1.77.75 3.03 0 1.14-.21 2.135-.63 2.985a6.082 6.082 0 01-1.695 2.115c-.71.56-1.535.98-2.475 1.26-.94.28-1.93.42-2.97.42-1.32 0-2.59-.22-3.81-.66-1.22-.44-2.27-1.18-3.15-2.22l2.85-2.76c.46.7 1.065 1.245 1.815 1.635a5.098 5.098 0 003.705.405c.44-.12.84-.3 1.2-.54.36-.24.65-.545.87-.915.22-.37.33-.795.33-1.275 0-.78-.25-1.38-.75-1.8-.5-.42-1.12-.775-1.86-1.065-.74-.29-1.55-.565-2.43-.825-.88-.26-1.69-.615-2.43-1.065a5.91 5.91 0 01-1.86-1.8c-.5-.75-.75-1.755-.75-3.015 0-1.1.225-2.05.675-2.85.45-.8 1.04-1.465 1.77-1.995a7.726 7.726 0 012.505-1.185 10.754 10.754 0 016.135.12c1.05.34 1.995.9 2.835 1.68l-2.76 2.91zm6.72-4.56h3.78V193h-3.78v-21.24zm23.01 4.98c-.78-.84-1.535-1.4-2.265-1.68a6.115 6.115 0 00-2.205-.42c-1.1 0-2.095.195-2.985.585a6.83 6.83 0 00-2.295 1.62 7.358 7.358 0 00-1.485 2.415c-.35.92-.525 1.91-.525 2.97 0 1.14.175 2.19.525 3.15.35.96.845 1.79 1.485 2.49a6.91 6.91 0 002.295 1.65c.89.4 1.885.6 2.985.6.86 0 1.695-.205 2.505-.615.81-.41 1.565-1.065 2.265-1.965l3.12 2.22c-.96 1.32-2.13 2.28-3.51 2.88-1.38.6-2.85.9-4.41.9-1.64 0-3.145-.265-4.515-.795-1.37-.53-2.55-1.28-3.54-2.25-.99-.97-1.765-2.135-2.325-3.495-.56-1.36-.84-2.87-.84-4.53 0-1.7.28-3.245.84-4.635.56-1.39 1.335-2.575 2.325-3.555.99-.98 2.17-1.735 3.54-2.265s2.875-.795 4.515-.795c1.44 0 2.775.255 4.005.765s2.375 1.375 3.435 2.595l-2.94 2.16zm19.2-1.56h-6.51v-3.42h16.8v3.42h-6.51V193h-3.78v-17.82zm11.82 10.62c0-1.14.205-2.175.615-3.105a7.26 7.26 0 011.665-2.385 7.34 7.34 0 012.49-1.53c.96-.36 1.98-.54 3.06-.54s2.1.18 3.06.54c.96.36 1.79.87 2.49 1.53a7.26 7.26 0 011.665 2.385c.41.93.615 1.965.615 3.105s-.205 2.175-.615 3.105a7.26 7.26 0 01-1.665 2.385 7.34 7.34 0 01-2.49 1.53c-.96.36-1.98.54-3.06.54s-2.1-.18-3.06-.54a7.34 7.34 0 01-2.49-1.53 7.26 7.26 0 01-1.665-2.385c-.41-.93-.615-1.965-.615-3.105zm3.6 0c0 .56.095 1.1.285 1.62.19.52.47.98.84 1.38.37.4.815.72 1.335.96s1.11.36 1.77.36c.66 0 1.25-.12 1.77-.36s.965-.56 1.335-.96c.37-.4.65-.86.84-1.38.19-.52.285-1.06.285-1.62s-.095-1.1-.285-1.62c-.19-.52-.47-.98-.84-1.38-.37-.4-.815-.72-1.335-.96s-1.11-.36-1.77-.36c-.66 0-1.25.12-1.77.36s-.965.56-1.335.96c-.37.4-.65.86-.84 1.38-.19.52-.285 1.06-.285 1.62zm14.7 0c0-1.14.205-2.175.615-3.105a7.26 7.26 0 011.665-2.385 7.34 7.34 0 012.49-1.53c.96-.36 1.98-.54 3.06-.54s2.1.18 3.06.54c.96.36 1.79.87 2.49 1.53a7.26 7.26 0 011.665 2.385c.41.93.615 1.965.615 3.105s-.205 2.175-.615 3.105a7.26 7.26 0 01-1.665 2.385 7.34 7.34 0 01-2.49 1.53c-.96.36-1.98.54-3.06.54s-2.1-.18-3.06-.54a7.34 7.34 0 01-2.49-1.53 7.26 7.26 0 01-1.665-2.385c-.41-.93-.615-1.965-.615-3.105zm3.6 0c0 .56.095 1.1.285 1.62.19.52.47.98.84 1.38.37.4.815.72 1.335.96s1.11.36 1.77.36c.66 0 1.25-.12 1.77-.36s.965-.56 1.335-.96c.37-.4.65-.86.84-1.38.19-.52.285-1.06.285-1.62s-.095-1.1-.285-1.62c-.19-.52-.47-.98-.84-1.38-.37-.4-.815-.72-1.335-.96s-1.11-.36-1.77-.36c-.66 0-1.25.12-1.77.36s-.965.56-1.335.96c-.37.4-.65.86-.84 1.38-.19.52-.285 1.06-.285 1.62zm15.48-15.48h3.6V193h-3.6v-22.68zm15.42 12.27c-.7-.98-1.64-1.47-2.82-1.47-.48 0-.95.12-1.41.36-.46.24-.69.63-.69 1.17 0 .44.19.76.57.96.38.2.86.37 1.44.51s1.205.285 1.875.435c.67.15 1.295.38 1.875.69.58.31 1.06.735 1.44 1.275.38.54.57 1.28.57 2.22 0 .86-.185 1.585-.555 2.175-.37.59-.85 1.065-1.44 1.425-.59.36-1.255.62-1.995.78-.74.16-1.48.24-2.22.24-1.12 0-2.15-.16-3.09-.48-.94-.32-1.78-.9-2.52-1.74l2.4-2.25c.46.52.955.945 1.485 1.275.53.33 1.175.495 1.935.495.26 0 .53-.03.81-.09s.54-.16.78-.3c.24-.14.435-.315.585-.525.15-.21.225-.455.225-.735 0-.5-.19-.87-.57-1.11-.38-.24-.86-.435-1.44-.585-.58-.15-1.205-.29-1.875-.42a7.265 7.265 0 01-1.875-.63 3.94 3.94 0 01-1.44-1.215c-.38-.52-.57-1.24-.57-2.16 0-.8.165-1.495.495-2.085a4.35 4.35 0 011.305-1.455c.54-.38 1.16-.66 1.86-.84.7-.18 1.41-.27 2.13-.27.96 0 1.91.165 2.85.495.94.33 1.7.895 2.28 1.695l-2.4 2.16zm-149.01 148.17h13.71v3.42h-9.93v5.58h9.36v3.42h-9.36V352h-3.78v-21.24zm17.22 0h7.14c1.02 0 2.005.1 2.955.3.95.2 1.785.535 2.505 1.005.72.47 1.295 1.1 1.725 1.89.43.79.645 1.775.645 2.955 0 1.34-.23 2.42-.69 3.24a4.938 4.938 0 01-1.86 1.905c-.78.45-1.685.755-2.715.915-1.03.16-2.105.24-3.225.24h-2.7V352h-3.78v-21.24zm6.06 9.21c.54 0 1.1-.02 1.68-.06a5.16 5.16 0 001.605-.36c.49-.2.89-.5 1.2-.9.31-.4.465-.96.465-1.68 0-.66-.14-1.185-.42-1.575-.28-.39-.64-.69-1.08-.9-.44-.21-.93-.345-1.47-.405-.54-.06-1.06-.09-1.56-.09h-2.7v5.97h2.28zm31.14 10.47c-2.62 1.4-5.55 2.1-8.79 2.1-1.64 0-3.145-.265-4.515-.795-1.37-.53-2.55-1.28-3.54-2.25-.99-.97-1.765-2.135-2.325-3.495-.56-1.36-.84-2.87-.84-4.53 0-1.7.28-3.245.84-4.635.56-1.39 1.335-2.575 2.325-3.555.99-.98 2.17-1.735 3.54-2.265s2.875-.795 4.515-.795c1.62 0 3.14.195 4.56.585a9.386 9.386 0 013.81 2.085l-2.79 2.82c-.68-.66-1.505-1.17-2.475-1.53a8.766 8.766 0 00-3.075-.54c-1.1 0-2.095.195-2.985.585a6.83 6.83 0 00-2.295 1.62 7.358 7.358 0 00-1.485 2.415c-.35.92-.525 1.91-.525 2.97 0 1.14.175 2.19.525 3.15.35.96.845 1.79 1.485 2.49a6.91 6.91 0 002.295 1.65c.89.4 1.885.6 2.985.6.96 0 1.865-.09 2.715-.27.85-.18 1.605-.46 2.265-.84V343h-4.35v-3.42h8.13v10.86zm11.34-19.68h3.27l9.15 21.24h-4.32l-1.98-4.86h-9.21l-1.92 4.86h-4.23l9.24-21.24zm4.8 13.14l-3.27-8.64-3.33 8.64h6.6zm23.22-9.72h-6.51v-3.42h16.8v3.42h-6.51V352h-3.78v-17.82zm11.82 10.62c0-1.14.205-2.175.615-3.105a7.26 7.26 0 011.665-2.385 7.34 7.34 0 012.49-1.53c.96-.36 1.98-.54 3.06-.54s2.1.18 3.06.54c.96.36 1.79.87 2.49 1.53a7.26 7.26 0 011.665 2.385c.41.93.615 1.965.615 3.105s-.205 2.175-.615 3.105a7.26 7.26 0 01-1.665 2.385 7.34 7.34 0 01-2.49 1.53c-.96.36-1.98.54-3.06.54s-2.1-.18-3.06-.54a7.34 7.34 0 01-2.49-1.53 7.26 7.26 0 01-1.665-2.385c-.41-.93-.615-1.965-.615-3.105zm3.6 0c0 .56.095 1.1.285 1.62.19.52.47.98.84 1.38.37.4.815.72 1.335.96s1.11.36 1.77.36c.66 0 1.25-.12 1.77-.36s.965-.56 1.335-.96c.37-.4.65-.86.84-1.38.19-.52.285-1.06.285-1.62s-.095-1.1-.285-1.62c-.19-.52-.47-.98-.84-1.38-.37-.4-.815-.72-1.335-.96s-1.11-.36-1.77-.36c-.66 0-1.25.12-1.77.36s-.965.56-1.335.96c-.37.4-.65.86-.84 1.38-.19.52-.285 1.06-.285 1.62zm14.7 0c0-1.14.205-2.175.615-3.105a7.26 7.26 0 011.665-2.385 7.34 7.34 0 012.49-1.53c.96-.36 1.98-.54 3.06-.54s2.1.18 3.06.54c.96.36 1.79.87 2.49 1.53a7.26 7.26 0 011.665 2.385c.41.93.615 1.965.615 3.105s-.205 2.175-.615 3.105a7.26 7.26 0 01-1.665 2.385 7.34 7.34 0 01-2.49 1.53c-.96.36-1.98.54-3.06.54s-2.1-.18-3.06-.54a7.34 7.34 0 01-2.49-1.53 7.26 7.26 0 01-1.665-2.385c-.41-.93-.615-1.965-.615-3.105zm3.6 0c0 .56.095 1.1.285 1.62.19.52.47.98.84 1.38.37.4.815.72 1.335.96s1.11.36 1.77.36c.66 0 1.25-.12 1.77-.36s.965-.56 1.335-.96c.37-.4.65-.86.84-1.38.19-.52.285-1.06.285-1.62s-.095-1.1-.285-1.62c-.19-.52-.47-.98-.84-1.38-.37-.4-.815-.72-1.335-.96s-1.11-.36-1.77-.36c-.66 0-1.25.12-1.77.36s-.965.56-1.335.96c-.37.4-.65.86-.84 1.38-.19.52-.285 1.06-.285 1.62zm15.48-15.48h3.6V352h-3.6v-22.68zm15.42 12.27c-.7-.98-1.64-1.47-2.82-1.47-.48 0-.95.12-1.41.36-.46.24-.69.63-.69 1.17 0 .44.19.76.57.96.38.2.86.37 1.44.51s1.205.285 1.875.435c.67.15 1.295.38 1.875.69.58.31 1.06.735 1.44 1.275.38.54.57 1.28.57 2.22 0 .86-.185 1.585-.555 2.175-.37.59-.85 1.065-1.44 1.425-.59.36-1.255.62-1.995.78-.74.16-1.48.24-2.22.24-1.12 0-2.15-.16-3.09-.48-.94-.32-1.78-.9-2.52-1.74l2.4-2.25c.46.52.955.945 1.485 1.275.53.33 1.175.495 1.935.495.26 0 .53-.03.81-.09s.54-.16.78-.3c.24-.14.435-.315.585-.525.15-.21.225-.455.225-.735 0-.5-.19-.87-.57-1.11-.38-.24-.86-.435-1.44-.585-.58-.15-1.205-.29-1.875-.42a7.265 7.265 0 01-1.875-.63 3.94 3.94 0 01-1.44-1.215c-.38-.52-.57-1.24-.57-2.16 0-.8.165-1.495.495-2.085a4.35 4.35 0 011.305-1.455c.54-.38 1.16-.66 1.86-.84.7-.18 1.41-.27 2.13-.27.96 0 1.91.165 2.85.495.94.33 1.7.895 2.28 1.695l-2.4 2.16zM786.208 471.176h4.06l5.404 14.98 5.572-14.98h3.808L797.044 491h-3.052l-7.784-19.824zm23.352 14.28c.112 1.008.504 1.792 1.176 2.352.672.56 1.484.84 2.436.84.84 0 1.545-.173 2.114-.518a5.86 5.86 0 001.498-1.302l2.408 1.82c-.784.97-1.661 1.661-2.632 2.072-.97.41-1.988.616-3.052.616a8.066 8.066 0 01-2.856-.504 6.85 6.85 0 01-2.324-1.428 6.776 6.776 0 01-1.554-2.226c-.383-.868-.574-1.834-.574-2.898s.191-2.03.574-2.898c.383-.868.9-1.61 1.554-2.226a6.85 6.85 0 012.324-1.428 8.066 8.066 0 012.856-.504c.933 0 1.787.163 2.562.49a5.495 5.495 0 011.988 1.414c.55.616.98 1.377 1.288 2.282.308.905.462 1.946.462 3.122v.924H809.56zm6.888-2.52c-.019-.99-.327-1.769-.924-2.338-.597-.57-1.428-.854-2.492-.854-1.008 0-1.806.29-2.394.868-.588.579-.947 1.353-1.078 2.324h6.888zm6.496-5.376h3.36v2.128h.056c.373-.784.905-1.39 1.596-1.82.69-.43 1.484-.644 2.38-.644.205 0 .406.019.602.056.196.037.397.084.602.14v3.248a9.415 9.415 0 00-.826-.182 4.691 4.691 0 00-.798-.07c-.784 0-1.414.145-1.89.434-.476.29-.84.62-1.092.994-.252.373-.42.747-.504 1.12-.084.373-.126.653-.126.84V491h-3.36v-13.44zm10.948 0h3.36V491h-3.36v-13.44zm-.476-4.564c0-.541.2-1.013.602-1.414.401-.401.91-.602 1.526-.602s1.134.191 1.554.574c.42.383.63.863.63 1.442s-.21 1.06-.63 1.442c-.42.383-.938.574-1.554.574-.616 0-1.125-.2-1.526-.602-.401-.401-.602-.873-.602-1.414zm8.904 7.42h-2.772v-2.856h2.772v-1.904c0-.933.065-1.778.196-2.534.13-.756.378-1.405.742-1.946.364-.541.873-.957 1.526-1.246.653-.29 1.503-.434 2.548-.434.765 0 1.475.065 2.128.196l-.224 2.856a11.597 11.597 0 00-.7-.14 4.253 4.253 0 00-.7-.056c-.467 0-.84.075-1.12.224-.28.15-.5.35-.658.602a2.203 2.203 0 00-.308.882c-.047.336-.07.69-.07 1.064v2.436h3.108v2.856h-3.108V491h-3.36v-10.584zm8.652-2.856h3.36V491h-3.36v-13.44zm-.448-4.564c0-.541.2-1.013.602-1.414.401-.401.91-.602 1.526-.602s1.134.191 1.554.574c.42.383.63.863.63 1.442s-.21 1.06-.63 1.442c-.42.383-.938.574-1.554.574-.616 0-1.125-.2-1.526-.602-.401-.401-.602-.873-.602-1.414zm16.38 8.596a5.361 5.361 0 00-1.232-.98 2.645 2.645 0 00-1.316-.364c-.616 0-1.167.112-1.652.336-.485.224-.9.523-1.246.896a3.794 3.794 0 00-.784 1.288 4.38 4.38 0 00-.266 1.512c0 .523.089 1.027.266 1.512.177.485.439.915.784 1.288a3.9 3.9 0 001.246.896c.485.224 1.036.336 1.652.336a3.32 3.32 0 001.456-.322c.448-.215.83-.527 1.148-.938l2.24 2.408a5.172 5.172 0 01-1.162.868 8.116 8.116 0 01-2.618.91 6.91 6.91 0 01-1.064.098 8.066 8.066 0 01-2.856-.504 6.85 6.85 0 01-2.324-1.428 6.776 6.776 0 01-1.554-2.226c-.383-.868-.574-1.834-.574-2.898s.191-2.03.574-2.898c.383-.868.9-1.61 1.554-2.226a6.85 6.85 0 012.324-1.428 8.066 8.066 0 012.856-.504c.859 0 1.722.163 2.59.49a5.894 5.894 0 012.282 1.554l-2.324 2.324zm12.712 7.56h-.084c-.485.765-1.101 1.32-1.848 1.666-.747.345-1.568.518-2.464.518a6.542 6.542 0 01-1.806-.252 4.891 4.891 0 01-1.568-.756 3.884 3.884 0 01-1.106-1.26c-.28-.504-.42-1.092-.42-1.764 0-.728.13-1.349.392-1.862a3.824 3.824 0 011.05-1.288c.439-.345.947-.62 1.526-.826.579-.205 1.18-.36 1.806-.462a16.011 16.011 0 011.89-.196 40.776 40.776 0 011.792-.042h.84v-.364c0-.84-.29-1.47-.868-1.89-.579-.42-1.316-.63-2.212-.63a5.2 5.2 0 00-1.988.378 5.033 5.033 0 00-1.596 1.022l-1.764-1.764a6.513 6.513 0 012.618-1.652 9.638 9.638 0 013.094-.504c.952 0 1.755.107 2.408.322.653.215 1.195.49 1.624.826.43.336.76.723.994 1.162.233.439.401.882.504 1.33.103.448.163.882.182 1.302.019.42.028.789.028 1.106V491h-3.024v-1.848zm-.196-4.172h-.7c-.467 0-.99.019-1.568.056a8.227 8.227 0 00-1.638.266c-.513.14-.947.345-1.302.616-.355.27-.532.649-.532 1.134 0 .317.07.583.21.798.14.215.322.397.546.546.224.15.476.257.756.322s.56.098.84.098c1.157 0 2.011-.275 2.562-.826.55-.55.826-1.302.826-2.254v-.756zm5.264-4.564v-2.856h2.772v-3.892h3.36v3.892h3.696v2.856h-3.696v5.88c0 .672.126 1.204.378 1.596.252.392.751.588 1.498.588.299 0 .625-.033.98-.098s.635-.173.84-.322v2.828c-.355.168-.789.285-1.302.35s-.966.098-1.358.098c-.896 0-1.629-.098-2.198-.294-.57-.196-1.017-.495-1.344-.896-.327-.401-.55-.9-.672-1.498a10.518 10.518 0 01-.182-2.072v-6.16h-2.772zm12.516-2.856h3.36V491h-3.36v-13.44zm-.476-4.564c0-.541.2-1.013.602-1.414.401-.401.91-.602 1.526-.602s1.134.191 1.554.574c.42.383.63.863.63 1.442s-.21 1.06-.63 1.442c-.42.383-.938.574-1.554.574-.616 0-1.125-.2-1.526-.602-.401-.401-.602-.873-.602-1.414zm7.028 11.284c0-1.064.191-2.03.574-2.898.383-.868.9-1.61 1.554-2.226a6.85 6.85 0 012.324-1.428 8.066 8.066 0 012.856-.504c1.008 0 1.96.168 2.856.504a6.85 6.85 0 012.324 1.428 6.776 6.776 0 011.554 2.226c.383.868.574 1.834.574 2.898s-.191 2.03-.574 2.898c-.383.868-.9 1.61-1.554 2.226a6.85 6.85 0 01-2.324 1.428 8.066 8.066 0 01-2.856.504 8.066 8.066 0 01-2.856-.504 6.85 6.85 0 01-2.324-1.428 6.776 6.776 0 01-1.554-2.226c-.383-.868-.574-1.834-.574-2.898zm3.36 0c0 .523.089 1.027.266 1.512.177.485.439.915.784 1.288a3.9 3.9 0 001.246.896c.485.224 1.036.336 1.652.336.616 0 1.167-.112 1.652-.336.485-.224.9-.523 1.246-.896.345-.373.607-.803.784-1.288a4.38 4.38 0 00.266-1.512c0-.523-.089-1.027-.266-1.512a3.794 3.794 0 00-.784-1.288 3.905 3.905 0 00-1.246-.896c-.485-.224-1.036-.336-1.652-.336-.616 0-1.167.112-1.652.336-.485.224-.9.523-1.246.896a3.794 3.794 0 00-.784 1.288 4.38 4.38 0 00-.266 1.512zm14.392-6.72h3.192v2.156h.056c.317-.672.803-1.255 1.456-1.75.653-.495 1.54-.742 2.66-.742.896 0 1.657.15 2.282.448.625.299 1.134.69 1.526 1.176.392.485.672 1.045.84 1.68.168.635.252 1.297.252 1.988V491h-3.36v-6.804c0-.373-.019-.789-.056-1.246a4.473 4.473 0 00-.294-1.288 2.412 2.412 0 00-.742-1.008c-.336-.27-.793-.406-1.372-.406-.56 0-1.031.093-1.414.28-.383.187-.7.439-.952.756a3.007 3.007 0 00-.546 1.092 4.87 4.87 0 00-.168 1.288V491h-3.36v-13.44zm17.192 9.576h3.416l-2.38 7.392h-2.996l1.96-7.392zm19.824-12.768h-6.076v-3.192h15.68v3.192h-6.076V491h-3.528v-16.632zm14.392 11.088c.112 1.008.504 1.792 1.176 2.352.672.56 1.484.84 2.436.84.84 0 1.545-.173 2.114-.518a5.86 5.86 0 001.498-1.302l2.408 1.82c-.784.97-1.661 1.661-2.632 2.072-.97.41-1.988.616-3.052.616a8.066 8.066 0 01-2.856-.504 6.85 6.85 0 01-2.324-1.428 6.776 6.776 0 01-1.554-2.226c-.383-.868-.574-1.834-.574-2.898s.191-2.03.574-2.898c.383-.868.9-1.61 1.554-2.226a6.85 6.85 0 012.324-1.428 8.066 8.066 0 012.856-.504c.933 0 1.787.163 2.562.49a5.495 5.495 0 011.988 1.414c.55.616.98 1.377 1.288 2.282.308.905.462 1.946.462 3.122v.924h-10.248zm6.888-2.52c-.019-.99-.327-1.769-.924-2.338-.597-.57-1.428-.854-2.492-.854-1.008 0-1.806.29-2.394.868-.588.579-.947 1.353-1.078 2.324h6.888zm13.664-1.652c-.653-.915-1.53-1.372-2.632-1.372-.448 0-.887.112-1.316.336-.43.224-.644.588-.644 1.092 0 .41.177.71.532.896.355.187.803.345 1.344.476.541.13 1.125.266 1.75.406s1.209.355 1.75.644c.541.29.99.686 1.344 1.19.355.504.532 1.195.532 2.072 0 .803-.173 1.48-.518 2.03-.345.55-.793.994-1.344 1.33a5.965 5.965 0 01-1.862.728c-.69.15-1.381.224-2.072.224-1.045 0-2.007-.15-2.884-.448-.877-.299-1.661-.84-2.352-1.624l2.24-2.1c.43.485.891.882 1.386 1.19.495.308 1.097.462 1.806.462.243 0 .495-.028.756-.084.261-.056.504-.15.728-.28.224-.13.406-.294.546-.49s.21-.425.21-.686c0-.467-.177-.812-.532-1.036-.355-.224-.803-.406-1.344-.546s-1.125-.27-1.75-.392a6.78 6.78 0 01-1.75-.588 3.677 3.677 0 01-1.344-1.134c-.355-.485-.532-1.157-.532-2.016 0-.747.154-1.395.462-1.946a4.06 4.06 0 011.218-1.358 5.263 5.263 0 011.736-.784 7.951 7.951 0 011.988-.252 7.98 7.98 0 012.66.462 4.346 4.346 0 012.128 1.582l-2.24 2.016zm3.696-.868v-2.856h2.772v-3.892h3.36v3.892h3.696v2.856h-3.696v5.88c0 .672.126 1.204.378 1.596.252.392.751.588 1.498.588.299 0 .625-.033.98-.098s.635-.173.84-.322v2.828c-.355.168-.789.285-1.302.35s-.966.098-1.358.098c-.896 0-1.629-.098-2.198-.294-.57-.196-1.017-.495-1.344-.896-.327-.401-.55-.9-.672-1.498a10.518 10.518 0 01-.182-2.072v-6.16h-2.772zm12.516-2.856h3.36V491h-3.36v-13.44zm-.476-4.564c0-.541.2-1.013.602-1.414.401-.401.91-.602 1.526-.602s1.134.191 1.554.574c.42.383.63.863.63 1.442s-.21 1.06-.63 1.442c-.42.383-.938.574-1.554.574-.616 0-1.125-.2-1.526-.602-.401-.401-.602-.873-.602-1.414zm7.7 4.564h3.192v2.156h.056c.317-.672.803-1.255 1.456-1.75.653-.495 1.54-.742 2.66-.742.896 0 1.657.15 2.282.448.625.299 1.134.69 1.526 1.176.392.485.672 1.045.84 1.68.168.635.252 1.297.252 1.988V491h-3.36v-6.804c0-.373-.019-.789-.056-1.246a4.473 4.473 0 00-.294-1.288 2.412 2.412 0 00-.742-1.008c-.336-.27-.793-.406-1.372-.406-.56 0-1.031.093-1.414.28-.383.187-.7.439-.952.756a3.007 3.007 0 00-.546 1.092 4.87 4.87 0 00-.168 1.288V491h-3.36v-13.44zm29.904 0v12.236c0 1.213-.15 2.31-.448 3.29-.299.98-.76 1.81-1.386 2.492-.625.681-1.414 1.209-2.366 1.582-.952.373-2.081.56-3.388.56-1.25 0-2.436-.159-3.556-.476-1.12-.317-2.156-.896-3.108-1.736l2.016-2.744c.672.616 1.372 1.092 2.1 1.428.728.336 1.568.504 2.52.504.803 0 1.48-.112 2.03-.336.55-.224.99-.532 1.316-.924.327-.392.56-.863.7-1.414.14-.55.21-1.162.21-1.834v-.98h-.056c-.485.653-1.13 1.143-1.932 1.47a6.481 6.481 0 01-2.464.49c-1.008 0-1.923-.182-2.744-.546a6.56 6.56 0 01-2.114-1.47 6.397 6.397 0 01-1.358-2.184 7.542 7.542 0 01-.476-2.688c0-.99.15-1.913.448-2.772a6.405 6.405 0 011.316-2.24 6.242 6.242 0 012.086-1.498c.812-.364 1.74-.546 2.786-.546.952 0 1.839.187 2.66.56.821.373 1.475.97 1.96 1.792h.056v-2.016h3.192zm-7.168 2.688c-.597 0-1.139.098-1.624.294a3.71 3.71 0 00-1.246.812 3.665 3.665 0 00-.812 1.26 4.41 4.41 0 00-.294 1.638 3.814 3.814 0 001.12 2.744 3.982 3.982 0 002.828 1.148c.616 0 1.171-.103 1.666-.308.495-.205.915-.48 1.26-.826.345-.345.611-.76.798-1.246a4.33 4.33 0 00.28-1.568c0-1.176-.355-2.128-1.064-2.856-.71-.728-1.68-1.092-2.912-1.092zm-189.294 44.076l4.284 4.676h-4.34l-2.1-2.268c-.803.952-1.661 1.652-2.576 2.1-.915.448-2.007.672-3.276.672a8.5 8.5 0 01-2.534-.378 6.422 6.422 0 01-2.142-1.12 5.638 5.638 0 01-1.484-1.82c-.373-.719-.56-1.554-.56-2.506 0-.672.112-1.293.336-1.862.224-.57.527-1.092.91-1.568a6.483 6.483 0 011.358-1.26 7.594 7.594 0 011.68-.882 27.16 27.16 0 01-.882-1.036 8.206 8.206 0 01-.714-1.036 5.251 5.251 0 01-.49-1.148 4.727 4.727 0 01-.182-1.344c0-.803.154-1.512.462-2.128a4.34 4.34 0 011.246-1.526 5.555 5.555 0 011.82-.91 7.525 7.525 0 012.156-.308c.747 0 1.456.093 2.128.28a5.329 5.329 0 011.778.854c.513.383.924.873 1.232 1.47.308.597.462 1.297.462 2.1a4.19 4.19 0 01-.336 1.694c-.224.513-.523.98-.896 1.4-.373.42-.798.803-1.274 1.148-.476.345-.957.64-1.442.882l3.192 3.444 2.212-3.36h3.948l-3.976 5.74zm-6.972-12.628c-.653 0-1.213.182-1.68.546a1.74 1.74 0 00-.7 1.442c0 .261.056.518.168.77.112.252.261.504.448.756s.387.49.602.714c.215.224.434.439.658.644.28-.15.579-.322.896-.518.317-.196.611-.42.882-.672.27-.252.49-.527.658-.826a2.02 2.02 0 00.252-1.008c0-.541-.215-.985-.644-1.33-.43-.345-.943-.518-1.54-.518zm-1.344 8.4c-.336.205-.663.415-.98.63a5.893 5.893 0 00-.868.714c-.261.261-.471.56-.63.896a2.658 2.658 0 00-.238 1.148 2.9 2.9 0 00.938 2.156c.29.261.62.467.994.616.373.15.775.224 1.204.224.765 0 1.437-.205 2.016-.616a14.11 14.11 0 001.624-1.344l-4.06-4.424zm33.208-6.664a3.255 3.255 0 00-1.498-1.19 5.232 5.232 0 00-1.974-.378c-.41 0-.807.047-1.19.14a3.23 3.23 0 00-1.036.448 2.34 2.34 0 00-.742.798c-.187.327-.28.714-.28 1.162 0 .672.233 1.185.7 1.54.467.355 1.045.663 1.736.924.69.261 1.447.513 2.268.756a9.221 9.221 0 012.268 1.008c.69.43 1.27.999 1.736 1.708.467.71.7 1.652.7 2.828 0 1.064-.196 1.993-.588 2.786a5.677 5.677 0 01-1.582 1.974 6.84 6.84 0 01-2.31 1.176 9.66 9.66 0 01-2.772.392c-1.232 0-2.417-.205-3.556-.616-1.139-.41-2.119-1.101-2.94-2.072l2.66-2.576c.43.653.994 1.162 1.694 1.526a4.758 4.758 0 003.458.378c.41-.112.784-.28 1.12-.504a2.63 2.63 0 00.812-.854c.205-.345.308-.742.308-1.19 0-.728-.233-1.288-.7-1.68-.467-.392-1.045-.723-1.736-.994a28.23 28.23 0 00-2.268-.77 9.55 9.55 0 01-2.268-.994c-.69-.42-1.27-.98-1.736-1.68-.467-.7-.7-1.638-.7-2.814 0-1.027.21-1.913.63-2.66.42-.747.97-1.367 1.652-1.862a7.211 7.211 0 012.338-1.106 10.037 10.037 0 015.726.112c.98.317 1.862.84 2.646 1.568l-2.576 2.716zm6.104 2.128h3.36V529h-3.36v-13.44zm-.476-4.564c0-.541.2-1.013.602-1.414.401-.401.91-.602 1.526-.602s1.134.191 1.554.574c.42.383.63.863.63 1.442s-.21 1.06-.63 1.442c-.42.383-.938.574-1.554.574-.616 0-1.125-.2-1.526-.602-.401-.401-.602-.873-.602-1.414zm7.56 4.564h3.192v2.1h.056c.299-.635.78-1.2 1.442-1.694.663-.495 1.554-.742 2.674-.742 2.11 0 3.51.83 4.2 2.492.485-.859 1.092-1.489 1.82-1.89.728-.401 1.596-.602 2.604-.602.896 0 1.652.15 2.268.448.616.299 1.115.71 1.498 1.232.383.523.658 1.134.826 1.834.168.7.252 1.451.252 2.254V529h-3.36v-7.616c0-.41-.037-.807-.112-1.19a2.844 2.844 0 00-.392-1.008 1.988 1.988 0 00-.756-.686c-.317-.168-.728-.252-1.232-.252-.523 0-.966.098-1.33.294a2.597 2.597 0 00-.896.784c-.233.327-.401.7-.504 1.12-.103.42-.154.845-.154 1.274V529h-3.36v-8.008c0-.84-.177-1.507-.532-2.002-.355-.495-.943-.742-1.764-.742-.56 0-1.031.093-1.414.28-.383.187-.7.439-.952.756a3.007 3.007 0 00-.546 1.092 4.87 4.87 0 00-.168 1.288V529h-3.36v-13.44zM925.186 529h-3.192v-2.156h-.056c-.317.672-.803 1.255-1.456 1.75-.653.495-1.54.742-2.66.742-.896 0-1.657-.145-2.282-.434a4.11 4.11 0 01-1.526-1.176 4.582 4.582 0 01-.84-1.694 7.737 7.737 0 01-.252-1.988v-8.484h3.36v6.804c0 .373.019.789.056 1.246.037.457.135.887.294 1.288.159.401.401.737.728 1.008.327.27.789.406 1.386.406.56 0 1.031-.093 1.414-.28.383-.187.7-.439.952-.756s.434-.681.546-1.092c.112-.41.168-.84.168-1.288v-7.336h3.36V529zm3.864-21.168h3.36V529h-3.36v-21.168zm15.624 19.32h-.084c-.485.765-1.101 1.32-1.848 1.666-.747.345-1.568.518-2.464.518a6.542 6.542 0 01-1.806-.252 4.891 4.891 0 01-1.568-.756 3.884 3.884 0 01-1.106-1.26c-.28-.504-.42-1.092-.42-1.764 0-.728.13-1.349.392-1.862a3.824 3.824 0 011.05-1.288c.439-.345.947-.62 1.526-.826.579-.205 1.18-.36 1.806-.462a16.011 16.011 0 011.89-.196 40.776 40.776 0 011.792-.042h.84v-.364c0-.84-.29-1.47-.868-1.89-.579-.42-1.316-.63-2.212-.63a5.2 5.2 0 00-1.988.378 5.033 5.033 0 00-1.596 1.022l-1.764-1.764a6.513 6.513 0 012.618-1.652 9.638 9.638 0 013.094-.504c.952 0 1.755.107 2.408.322.653.215 1.195.49 1.624.826.43.336.76.723.994 1.162.233.439.401.882.504 1.33.103.448.163.882.182 1.302.019.42.028.789.028 1.106V529h-3.024v-1.848zm-.196-4.172h-.7c-.467 0-.99.019-1.568.056a8.227 8.227 0 00-1.638.266c-.513.14-.947.345-1.302.616-.355.27-.532.649-.532 1.134 0 .317.07.583.21.798.14.215.322.397.546.546.224.15.476.257.756.322s.56.098.84.098c1.157 0 2.011-.275 2.562-.826.55-.55.826-1.302.826-2.254v-.756zm5.264-4.564v-2.856h2.772v-3.892h3.36v3.892h3.696v2.856h-3.696v5.88c0 .672.126 1.204.378 1.596.252.392.751.588 1.498.588.299 0 .625-.033.98-.098s.635-.173.84-.322v2.828c-.355.168-.789.285-1.302.35s-.966.098-1.358.098c-.896 0-1.629-.098-2.198-.294-.57-.196-1.017-.495-1.344-.896-.327-.401-.55-.9-.672-1.498a10.518 10.518 0 01-.182-2.072v-6.16h-2.772zm12.516-2.856h3.36V529h-3.36v-13.44zm-.476-4.564c0-.541.2-1.013.602-1.414.401-.401.91-.602 1.526-.602s1.134.191 1.554.574c.42.383.63.863.63 1.442s-.21 1.06-.63 1.442c-.42.383-.938.574-1.554.574-.616 0-1.125-.2-1.526-.602-.401-.401-.602-.873-.602-1.414zm7.028 11.284c0-1.064.191-2.03.574-2.898.383-.868.9-1.61 1.554-2.226a6.85 6.85 0 012.324-1.428 8.066 8.066 0 012.856-.504c1.008 0 1.96.168 2.856.504a6.85 6.85 0 012.324 1.428 6.776 6.776 0 011.554 2.226c.383.868.574 1.834.574 2.898s-.191 2.03-.574 2.898c-.383.868-.9 1.61-1.554 2.226a6.85 6.85 0 01-2.324 1.428 8.066 8.066 0 01-2.856.504 8.066 8.066 0 01-2.856-.504 6.85 6.85 0 01-2.324-1.428 6.776 6.776 0 01-1.554-2.226c-.383-.868-.574-1.834-.574-2.898zm3.36 0c0 .523.089 1.027.266 1.512.177.485.439.915.784 1.288a3.9 3.9 0 001.246.896c.485.224 1.036.336 1.652.336.616 0 1.167-.112 1.652-.336.485-.224.9-.523 1.246-.896.345-.373.607-.803.784-1.288a4.38 4.38 0 00.266-1.512c0-.523-.089-1.027-.266-1.512a3.794 3.794 0 00-.784-1.288 3.905 3.905 0 00-1.246-.896c-.485-.224-1.036-.336-1.652-.336-.616 0-1.167.112-1.652.336-.485.224-.9.523-1.246.896a3.794 3.794 0 00-.784 1.288 4.38 4.38 0 00-.266 1.512zm14.392-6.72h3.192v2.156h.056c.317-.672.803-1.255 1.456-1.75.653-.495 1.54-.742 2.66-.742.896 0 1.657.15 2.282.448.625.299 1.134.69 1.526 1.176.392.485.672 1.045.84 1.68.168.635.252 1.297.252 1.988V529h-3.36v-6.804c0-.373-.019-.789-.056-1.246a4.473 4.473 0 00-.294-1.288 2.412 2.412 0 00-.742-1.008c-.336-.27-.793-.406-1.372-.406-.56 0-1.031.093-1.414.28-.383.187-.7.439-.952.756a3.007 3.007 0 00-.546 1.092 4.87 4.87 0 00-.168 1.288V529h-3.36v-13.44z" fill="#5A2AB5"/><path fill="#959595" fill-rule="nonzero" d="M100.25 90.25v-1.5h311.5v1.5zm331.996 1v-1.5H742.75v1.5zm331 1v-1.5h308.504v1.5zM171.67 56.9h1.62V71h-1.62v-6.46h-8.44V71h-1.62V56.9h1.62v6.24h8.44V56.9zm8.82 4.12c1.24 0 2.163.317 2.77.95.607.633.91 1.597.91 2.89V71h-1.58v-1.66a2.861 2.861 0 01-1.16 1.33c-.52.313-1.12.47-1.8.47a3.938 3.938 0 01-1.73-.38 3.091 3.091 0 01-1.25-1.06 2.62 2.62 0 01-.46-1.5c0-.733.187-1.303.56-1.71.373-.407.987-.7 1.84-.88.853-.18 2.04-.27 3.56-.27h.44v-.66c0-.813-.167-1.403-.5-1.77-.333-.367-.873-.55-1.62-.55-1.12 0-2.233.347-3.34 1.04l-.54-1.18c.507-.36 1.117-.65 1.83-.87a7.01 7.01 0 012.07-.33zm-.64 8.84c.8 0 1.457-.27 1.97-.81.513-.54.77-1.237.77-2.09v-.58h-.36c-1.173 0-2.067.05-2.68.15-.613.1-1.05.267-1.31.5-.26.233-.39.577-.39 1.03 0 .52.19.95.57 1.29.38.34.857.51 1.43.51zm12.8-7.44l-1.06.1c-1 .093-1.723.407-2.17.94-.447.533-.67 1.193-.67 1.98V71h-1.62v-9.74h1.58v1.7c.547-1.133 1.62-1.767 3.22-1.9l.58-.04.14 1.4zm10.18-5.52V71h-1.62v-1.78a3.214 3.214 0 01-1.29 1.42c-.567.333-1.23.5-1.99.5-.853 0-1.607-.213-2.26-.64-.653-.427-1.16-1.023-1.52-1.79-.36-.767-.54-1.657-.54-2.67 0-1 .18-1.88.54-2.64.36-.76.867-1.347 1.52-1.76.653-.413 1.407-.62 2.26-.62.76 0 1.423.167 1.99.5a3.21 3.21 0 011.29 1.42V56.9h1.62zm-4.58 12.9c.947 0 1.677-.323 2.19-.97.513-.647.77-1.563.77-2.75s-.257-2.1-.77-2.74c-.513-.64-1.243-.96-2.19-.96-.947 0-1.683.32-2.21.96-.527.64-.79 1.54-.79 2.7 0 1.187.263 2.11.79 2.77.527.66 1.263.99 2.21.99zm20.8-8.54h1.62L217.05 71h-1.56l-2.74-7.54-2.76 7.54h-1.54l-3.62-9.74h1.68l2.76 7.82 2.82-7.82h1.4l2.78 7.82 2.78-7.82zm7.58-.24c1.24 0 2.163.317 2.77.95.607.633.91 1.597.91 2.89V71h-1.58v-1.66a2.861 2.861 0 01-1.16 1.33c-.52.313-1.12.47-1.8.47a3.938 3.938 0 01-1.73-.38 3.091 3.091 0 01-1.25-1.06 2.62 2.62 0 01-.46-1.5c0-.733.187-1.303.56-1.71.373-.407.987-.7 1.84-.88.853-.18 2.04-.27 3.56-.27h.44v-.66c0-.813-.167-1.403-.5-1.77-.333-.367-.873-.55-1.62-.55-1.12 0-2.233.347-3.34 1.04l-.54-1.18c.507-.36 1.117-.65 1.83-.87a7.01 7.01 0 012.07-.33zm-.64 8.84c.8 0 1.457-.27 1.97-.81.513-.54.77-1.237.77-2.09v-.58h-.36c-1.173 0-2.067.05-2.68.15-.613.1-1.05.267-1.31.5-.26.233-.39.577-.39 1.03 0 .52.19.95.57 1.29.38.34.857.51 1.43.51zm12.8-7.44l-1.06.1c-1 .093-1.723.407-2.17.94-.447.533-.67 1.193-.67 1.98V71h-1.62v-9.74h1.58v1.7c.547-1.133 1.62-1.767 3.22-1.9l.58-.04.14 1.4zm9.7 3.96h-7.12c.053 1.133.36 1.99.92 2.57.56.58 1.353.87 2.38.87 1.133 0 2.173-.387 3.12-1.16l.54 1.18c-.427.4-.973.717-1.64.95a6.134 6.134 0 01-2.04.35c-1.52 0-2.717-.447-3.59-1.34-.873-.893-1.31-2.127-1.31-3.7 0-1 .193-1.883.58-2.65a4.327 4.327 0 011.63-1.79c.7-.427 1.497-.64 2.39-.64 1.293 0 2.307.423 3.04 1.27.733.847 1.1 2.01 1.1 3.49v.6zm-4.12-4.1c-.853 0-1.537.267-2.05.8-.513.533-.817 1.287-.91 2.26h5.66c-.027-.987-.273-1.743-.74-2.27-.467-.527-1.12-.79-1.96-.79zm20.3-5.38V71h-1.62v-1.78a3.214 3.214 0 01-1.29 1.42c-.567.333-1.23.5-1.99.5-.853 0-1.607-.213-2.26-.64-.653-.427-1.16-1.023-1.52-1.79-.36-.767-.54-1.657-.54-2.67 0-1 .18-1.88.54-2.64.36-.76.867-1.347 1.52-1.76.653-.413 1.407-.62 2.26-.62.76 0 1.423.167 1.99.5a3.21 3.21 0 011.29 1.42V56.9h1.62zm-4.58 12.9c.947 0 1.677-.323 2.19-.97.513-.647.77-1.563.77-2.75s-.257-2.1-.77-2.74c-.513-.64-1.243-.96-2.19-.96-.947 0-1.683.32-2.21.96-.527.64-.79 1.54-.79 2.7 0 1.187.263 2.11.79 2.77.527.66 1.263.99 2.21.99zm15.74-3.42h-7.12c.053 1.133.36 1.99.92 2.57.56.58 1.353.87 2.38.87 1.133 0 2.173-.387 3.12-1.16l.54 1.18c-.427.4-.973.717-1.64.95a6.134 6.134 0 01-2.04.35c-1.52 0-2.717-.447-3.59-1.34-.873-.893-1.31-2.127-1.31-3.7 0-1 .193-1.883.58-2.65a4.327 4.327 0 011.63-1.79c.7-.427 1.497-.64 2.39-.64 1.293 0 2.307.423 3.04 1.27.733.847 1.1 2.01 1.1 3.49v.6zm-4.12-4.1c-.853 0-1.537.267-2.05.8-.513.533-.817 1.287-.91 2.26h5.66c-.027-.987-.273-1.743-.74-2.27-.467-.527-1.12-.79-1.96-.79zm9.8 8.86c-1.64 0-2.94-.42-3.9-1.26l.54-1.2c.52.413 1.05.71 1.59.89.54.18 1.15.27 1.83.27.72 0 1.27-.123 1.65-.37.38-.247.57-.603.57-1.07 0-.387-.127-.693-.38-.92-.253-.227-.673-.407-1.26-.54l-1.64-.38c-.827-.187-1.46-.507-1.9-.96-.44-.453-.66-1.013-.66-1.68 0-.867.34-1.567 1.02-2.1.68-.533 1.587-.8 2.72-.8a5.7 5.7 0 011.94.33 4.1 4.1 0 011.54.95l-.54 1.18c-.893-.76-1.873-1.14-2.94-1.14-.68 0-1.21.13-1.59.39-.38.26-.57.623-.57 1.09 0 .387.117.697.35.93.233.233.61.41 1.13.53l1.66.4c.907.213 1.58.537 2.02.97.44.433.66.997.66 1.69 0 .853-.343 1.533-1.03 2.04-.687.507-1.623.76-2.81.76zm10.42 0c-.96 0-1.793-.207-2.5-.62a4.138 4.138 0 01-1.63-1.75c-.38-.753-.57-1.637-.57-2.65s.197-1.903.59-2.67a4.352 4.352 0 011.66-1.79c.713-.427 1.55-.64 2.51-.64.653 0 1.293.117 1.92.35.627.233 1.133.543 1.52.93l-.54 1.2c-.92-.747-1.853-1.12-2.8-1.12-1 0-1.78.327-2.34.98-.56.653-.84 1.573-.84 2.76 0 1.173.28 2.08.84 2.72.56.64 1.34.96 2.34.96.947 0 1.88-.373 2.8-1.12l.54 1.2c-.413.387-.933.693-1.56.92a5.661 5.661 0 01-1.94.34zm10.98-8.72l-1.06.1c-1 .093-1.723.407-2.17.94-.447.533-.67 1.193-.67 1.98V71h-1.62v-9.74h1.58v1.7c.547-1.133 1.62-1.767 3.22-1.9l.58-.04.14 1.4zm1.54 8.58v-9.74h1.62V71h-1.62zm-.16-13.96h1.96v1.82h-1.96v-1.82zm9.7 3.98c.853 0 1.607.213 2.26.64.653.427 1.16 1.023 1.52 1.79.36.767.54 1.657.54 2.67s-.18 1.897-.54 2.65c-.36.753-.863 1.337-1.51 1.75-.647.413-1.403.62-2.27.62-.76 0-1.423-.167-1.99-.5a3.214 3.214 0 01-1.29-1.42v5.38h-1.62V61.26h1.62v1.68a3.214 3.214 0 011.29-1.42c.567-.333 1.23-.5 1.99-.5zm-.32 8.78c.947 0 1.68-.32 2.2-.96.52-.64.78-1.547.78-2.72 0-1.173-.26-2.09-.78-2.75-.52-.66-1.253-.99-2.2-.99-.947 0-1.677.32-2.19.96-.513.64-.77 1.553-.77 2.74 0 1.187.257 2.103.77 2.75.513.647 1.243.97 2.19.97zm11.34.04c.293 0 .587-.02.88-.06l-.08 1.28c-.307.053-.64.08-1 .08-1.173 0-2.057-.307-2.65-.92s-.89-1.467-.89-2.56v-5.12h-1.9v-1.28h1.9V58.3h1.62v2.96h2.76v1.28h-2.76v5c0 1.533.707 2.3 2.12 2.3zm2.52 1.16v-9.74h1.62V71h-1.62zm-.16-13.96h1.96v1.82h-1.96v-1.82zm8.84 14.1c-.92 0-1.73-.207-2.43-.62-.7-.413-1.24-1.003-1.62-1.77-.38-.767-.57-1.657-.57-2.67s.19-1.903.57-2.67c.38-.767.92-1.357 1.62-1.77.7-.413 1.51-.62 2.43-.62.92 0 1.733.207 2.44.62a4.113 4.113 0 011.63 1.77c.38.767.57 1.657.57 2.67s-.19 1.903-.57 2.67a4.113 4.113 0 01-1.63 1.77c-.707.413-1.52.62-2.44.62zm0-1.34c.96 0 1.697-.317 2.21-.95.513-.633.77-1.557.77-2.77 0-1.187-.26-2.103-.78-2.75-.52-.647-1.253-.97-2.2-.97-.947 0-1.68.323-2.2.97-.52.647-.78 1.563-.78 2.75 0 1.2.257 2.12.77 2.76.513.64 1.25.96 2.21.96zm11.96-8.78c2.333 0 3.5 1.287 3.5 3.86V71h-1.62v-6.02c0-.907-.177-1.567-.53-1.98-.353-.413-.917-.62-1.69-.62-.893 0-1.607.273-2.14.82-.533.547-.8 1.287-.8 2.22V71h-1.62v-9.74h1.6v1.6a3.28 3.28 0 011.34-1.37c.573-.313 1.227-.47 1.96-.47zM547.74 71V56.9h8.72v1.38h-7.1v4.86h6.7v1.38h-6.7V71h-1.62zm16.42-8.58l-1.06.1c-1 .093-1.723.407-2.17.94-.447.533-.67 1.193-.67 1.98V71h-1.62v-9.74h1.58v1.7c.547-1.133 1.62-1.767 3.22-1.9l.58-.04.14 1.4zm5.58 8.72c-.92 0-1.73-.207-2.43-.62-.7-.413-1.24-1.003-1.62-1.77-.38-.767-.57-1.657-.57-2.67s.19-1.903.57-2.67c.38-.767.92-1.357 1.62-1.77.7-.413 1.51-.62 2.43-.62.92 0 1.733.207 2.44.62a4.113 4.113 0 011.63 1.77c.38.767.57 1.657.57 2.67s-.19 1.903-.57 2.67a4.113 4.113 0 01-1.63 1.77c-.707.413-1.52.62-2.44.62zm0-1.34c.96 0 1.697-.317 2.21-.95.513-.633.77-1.557.77-2.77 0-1.187-.26-2.103-.78-2.75-.52-.647-1.253-.97-2.2-.97-.947 0-1.68.323-2.2.97-.52.647-.78 1.563-.78 2.75 0 1.2.257 2.12.77 2.76.513.64 1.25.96 2.21.96zm11.96-8.78c2.333 0 3.5 1.287 3.5 3.86V71h-1.62v-6.02c0-.907-.177-1.567-.53-1.98-.353-.413-.917-.62-1.69-.62-.893 0-1.607.273-2.14.82-.533.547-.8 1.287-.8 2.22V71h-1.62v-9.74h1.6v1.6a3.28 3.28 0 011.34-1.37c.573-.313 1.227-.47 1.96-.47zm10.74 8.82c.293 0 .587-.02.88-.06l-.08 1.28c-.307.053-.64.08-1 .08-1.173 0-2.057-.307-2.65-.92s-.89-1.467-.89-2.56v-5.12h-1.9v-1.28h1.9V58.3h1.62v2.96h2.76v1.28h-2.76v5c0 1.533.707 2.3 2.12 2.3zm10.68-3.46H596c.053 1.133.36 1.99.92 2.57.56.58 1.353.87 2.38.87 1.133 0 2.173-.387 3.12-1.16l.54 1.18c-.427.4-.973.717-1.64.95a6.134 6.134 0 01-2.04.35c-1.52 0-2.717-.447-3.59-1.34-.873-.893-1.31-2.127-1.31-3.7 0-1 .193-1.883.58-2.65a4.327 4.327 0 011.63-1.79c.7-.427 1.497-.64 2.39-.64 1.293 0 2.307.423 3.04 1.27.733.847 1.1 2.01 1.1 3.49v.6zm-4.12-4.1c-.853 0-1.537.267-2.05.8-.513.533-.817 1.287-.91 2.26h5.66c-.027-.987-.273-1.743-.74-2.27-.467-.527-1.12-.79-1.96-.79zm11.4-1.26c2.333 0 3.5 1.287 3.5 3.86V71h-1.62v-6.02c0-.907-.177-1.567-.53-1.98-.353-.413-.917-.62-1.69-.62-.893 0-1.607.273-2.14.82-.533.547-.8 1.287-.8 2.22V71h-1.62v-9.74h1.6v1.6a3.28 3.28 0 011.34-1.37c.573-.313 1.227-.47 1.96-.47zm15.1-4.12V71h-1.62v-1.78a3.214 3.214 0 01-1.29 1.42c-.567.333-1.23.5-1.99.5-.853 0-1.607-.213-2.26-.64-.653-.427-1.16-1.023-1.52-1.79-.36-.767-.54-1.657-.54-2.67 0-1 .18-1.88.54-2.64.36-.76.867-1.347 1.52-1.76.653-.413 1.407-.62 2.26-.62.76 0 1.423.167 1.99.5a3.21 3.21 0 011.29 1.42V56.9h1.62zm-4.58 12.9c.947 0 1.677-.323 2.19-.97.513-.647.77-1.563.77-2.75s-.257-2.1-.77-2.74c-.513-.64-1.243-.96-2.19-.96-.947 0-1.683.32-2.21.96-.527.64-.79 1.54-.79 2.7 0 1.187.263 2.11.79 2.77.527.66 1.263.99 2.21.99zm264.72-6.04c.813.213 1.443.613 1.89 1.2.447.587.67 1.32.67 2.2 0 1.24-.407 2.19-1.22 2.85-.813.66-1.967.99-3.46.99h-5.88V56.9h5.66c1.453 0 2.58.32 3.38.96.8.64 1.2 1.547 1.2 2.72 0 .76-.197 1.413-.59 1.96-.393.547-.943.953-1.65 1.22zm-6.38-.6h3.8c1.053 0 1.85-.213 2.39-.64.54-.427.81-1.047.81-1.86 0-1.6-1.067-2.4-3.2-2.4h-3.8v4.9zm4.1 6.48c1.107 0 1.923-.203 2.45-.61.527-.407.79-1.043.79-1.91 0-1.733-1.08-2.6-3.24-2.6h-4.1v5.12h4.1zm11.48-8.62c1.24 0 2.163.317 2.77.95.607.633.91 1.597.91 2.89V71h-1.58v-1.66a2.861 2.861 0 01-1.16 1.33c-.52.313-1.12.47-1.8.47a3.938 3.938 0 01-1.73-.38A3.091 3.091 0 01891 69.7a2.62 2.62 0 01-.46-1.5c0-.733.187-1.303.56-1.71.373-.407.987-.7 1.84-.88.853-.18 2.04-.27 3.56-.27h.44v-.66c0-.813-.167-1.403-.5-1.77-.333-.367-.873-.55-1.62-.55-1.12 0-2.233.347-3.34 1.04l-.54-1.18c.507-.36 1.117-.65 1.83-.87a7.01 7.01 0 012.07-.33zm-.64 8.84c.8 0 1.457-.27 1.97-.81.513-.54.77-1.237.77-2.09v-.58h-.36c-1.173 0-2.067.05-2.68.15-.613.1-1.05.267-1.31.5-.26.233-.39.577-.39 1.03 0 .52.19.95.57 1.29.38.34.857.51 1.43.51zm11.4 1.28c-.96 0-1.793-.207-2.5-.62a4.138 4.138 0 01-1.63-1.75c-.38-.753-.57-1.637-.57-2.65s.197-1.903.59-2.67a4.352 4.352 0 011.66-1.79c.713-.427 1.55-.64 2.51-.64.653 0 1.293.117 1.92.35.627.233 1.133.543 1.52.93l-.54 1.2c-.92-.747-1.853-1.12-2.8-1.12-1 0-1.78.327-2.34.98-.56.653-.84 1.573-.84 2.76 0 1.173.28 2.08.84 2.72.56.64 1.34.96 2.34.96.947 0 1.88-.373 2.8-1.12l.54 1.2c-.413.387-.933.693-1.56.92a5.661 5.661 0 01-1.94.34zm14.14-.14h-2.1l-4.96-4.66V71h-1.62V56.9h1.62v8.78l4.54-4.4h2.06l-4.84 4.66 5.3 5.06zm9.48-4.62h-7.12c.053 1.133.36 1.99.92 2.57.56.58 1.353.87 2.38.87 1.133 0 2.173-.387 3.12-1.16l.54 1.18c-.427.4-.973.717-1.64.95a6.134 6.134 0 01-2.04.35c-1.52 0-2.717-.447-3.59-1.34-.873-.893-1.31-2.127-1.31-3.7 0-1 .193-1.883.58-2.65a4.327 4.327 0 011.63-1.79c.7-.427 1.497-.64 2.39-.64 1.293 0 2.307.423 3.04 1.27.733.847 1.1 2.01 1.1 3.49v.6zm-4.12-4.1c-.853 0-1.537.267-2.05.8-.513.533-.817 1.287-.91 2.26h5.66c-.027-.987-.273-1.743-.74-2.27-.467-.527-1.12-.79-1.96-.79zm11.4-1.26c2.333 0 3.5 1.287 3.5 3.86V71h-1.62v-6.02c0-.907-.177-1.567-.53-1.98-.353-.413-.917-.62-1.69-.62-.893 0-1.607.273-2.14.82-.533.547-.8 1.287-.8 2.22V71h-1.62v-9.74h1.6v1.6a3.28 3.28 0 011.34-1.37c.573-.313 1.227-.47 1.96-.47zm15.1-4.12V71h-1.62v-1.78a3.214 3.214 0 01-1.29 1.42c-.567.333-1.23.5-1.99.5-.853 0-1.607-.213-2.26-.64-.653-.427-1.16-1.023-1.52-1.79-.36-.767-.54-1.657-.54-2.67 0-1 .18-1.88.54-2.64.36-.76.867-1.347 1.52-1.76.653-.413 1.407-.62 2.26-.62.76 0 1.423.167 1.99.5a3.21 3.21 0 011.29 1.42V56.9h1.62zm-4.58 12.9c.947 0 1.677-.323 2.19-.97.513-.647.77-1.563.77-2.75s-.257-2.1-.77-2.74c-.513-.64-1.243-.96-2.19-.96-.947 0-1.683.32-2.21.96-.527.64-.79 1.54-.79 2.7 0 1.187.263 2.11.79 2.77.527.66 1.263.99 2.21.99z"/></g></svg>