<svg xmlns="http://www.w3.org/2000/svg" viewBox="0 0 16 16"><circle cx="8" cy="8" r="8" fill="#5a2ab5"/><path d="M3.8 5.4c0-.4.1-.9.3-1.3.2-.4.5-.8.8-1 .4-.3.8-.5 1.3-.7s1.1-.3 1.8-.3c.6 0 1.2.1 1.7.3.5.2.9.4 1.3.8.3.3.6.7.8 1.2.1.4.2.9.2 1.4L9.5 6c0-.5-.1-.8-.4-1.1-.3-.3-.6-.4-1.1-.4-.4 0-.8.1-1 .3s-.4.5-.4.8.1.5.4.6.6.3 1.1.4c.4.2.9.3 1.3.5.5.2 1 .4 1.4.6.4.3.8.6 1.1 1.1.3.4.4 1 .4 1.7 0 .5-.1.9-.3 1.3-.2.4-.5.8-.8 1.1-.4.3-.8.5-1.4.7-.5.2-1.2.3-1.8.3-.7 0-1.3-.1-1.8-.3s-1-.4-1.3-.8-.7-.7-.9-1.2c-.2-.5-.3-1-.3-1.5l2.6-.2c0 1 .5 1.6 1.7 1.6.5 0 .9-.1 1.2-.4.3-.2.4-.5.4-.8 0-.3-.1-.5-.4-.7s-.8-.3-1.2-.4c-.4-.2-.9-.3-1.4-.5-.5-.2-1-.4-1.4-.6-.4-.3-.8-.6-1.1-1-.1-.4-.3-1-.3-1.7z" fill="#fff"/></svg>