<svg width="17" height="14" viewBox="0 0 17 14" xmlns="http://www.w3.org/2000/svg"><path d="M17 1.662a7.357 7.357 0 01-1.747 1.827 10.166 10.166 0 01-.4 3.298c-.273.944-.688 1.85-1.245 2.718a10.64 10.64 0 01-1.99 2.302c-.77.667-1.698 1.2-2.784 1.597A10.059 10.059 0 015.35 14 9.578 9.578 0 010 12.414c.252.03.532.044.841.044a6.76 6.76 0 004.326-1.51 3.367 3.367 0 01-2.028-.705 3.455 3.455 0 01-1.23-1.745c.238.037.457.055.658.055.31 0 .615-.04.917-.12a3.42 3.42 0 01-2-1.22A3.442 3.442 0 01.69 4.966v-.044a3.42 3.42 0 001.575.448 3.511 3.511 0 01-1.132-1.258 3.48 3.48 0 01-.421-1.684c0-.642.158-1.236.475-1.783a9.905 9.905 0 003.176 2.609 9.604 9.604 0 004.008 1.088 3.977 3.977 0 01-.087-.81c0-.976.34-1.81 1.02-2.498A3.335 3.335 0 0111.768 0c1.007 0 1.856.372 2.546 1.116a6.775 6.775 0 002.211-.853 3.422 3.422 0 01-1.531 1.946A6.867 6.867 0 0017 1.662z" fill="#1DA1F2" fill-rule="evenodd"/></svg>