<svg width="21" height="20" viewBox="0 0 21 20" xmlns="http://www.w3.org/2000/svg" xmlns:xlink="http://www.w3.org/1999/xlink"><defs><path id="a" d="M0 0h20.732v19.86H0z"/></defs><g fill="none" fill-rule="evenodd"><mask id="b" fill="#fff"><use xlink:href="#a"/></mask><path d="M10.365 0C4.641 0 0 4.558 0 10.182c0 4.497 2.97 8.313 7.09 9.66.518.093.707-.221.707-.491 0-.242-.009-.882-.014-1.732-2.883.615-3.492-1.365-3.492-1.365-.471-1.176-1.15-1.488-1.15-1.488-.942-.632.07-.62.07-.62 1.04.073 1.588 1.05 1.588 1.05.925 1.555 2.426 1.106 3.017.846.094-.658.362-1.107.658-1.361-2.302-.257-4.722-1.131-4.722-5.032 0-1.111.404-2.02 1.068-2.732-.107-.258-.463-1.293.1-2.694 0 0 .871-.274 2.852 1.043a10.098 10.098 0 012.595-.343c.88.005 1.767.117 2.595.343C14.94 3.95 15.81 4.223 15.81 4.223c.565 1.401.21 2.436.103 2.694a3.892 3.892 0 011.066 2.732c0 3.911-2.424 4.772-4.734 5.024.373.314.704.935.704 1.885 0 1.36-.013 2.459-.013 2.793 0 .272.187.589.713.49 4.115-1.35 7.083-5.163 7.083-9.66C20.732 4.559 16.091 0 10.365 0" fill="#181717" mask="url(#b)"/></g></svg>