<svg width="1194" height="824" viewBox="0 0 1194 824" xmlns="http://www.w3.org/2000/svg" xmlns:xlink="http://www.w3.org/1999/xlink"><defs><path d="M672 174h264a8 8 0 018 8v44a8 8 0 01-8 8H672a8 8 0 01-8-8v-44a8 8 0 018-8z" id="a"/><path d="M672 250h264a8 8 0 018 8v44a8 8 0 01-8 8H672a8 8 0 01-8-8v-44a8 8 0 018-8z" id="b"/><path d="M672 327h264a8 8 0 018 8v44a8 8 0 01-8 8H672a8 8 0 01-8-8v-44a8 8 0 018-8z" id="c"/><path d="M672 403h264a8 8 0 018 8v44a8 8 0 01-8 8H672a8 8 0 01-8-8v-44a8 8 0 018-8z" id="d"/><mask id="g" maskContentUnits="userSpaceOnUse" maskUnits="objectBoundingBox" x="0" y="0" width="280" height="60" fill="#fff"><use xlink:href="#a"/></mask><mask id="h" maskContentUnits="userSpaceOnUse" maskUnits="objectBoundingBox" x="0" y="0" width="280" height="60" fill="#fff"><use xlink:href="#b"/></mask><mask id="i" maskContentUnits="userSpaceOnUse" maskUnits="objectBoundingBox" x="0" y="0" width="280" height="60" fill="#fff"><use xlink:href="#c"/></mask><mask id="j" maskContentUnits="userSpaceOnUse" maskUnits="objectBoundingBox" x="0" y="0" width="280" height="60" fill="#fff"><use xlink:href="#d"/></mask><filter x="-1.2%" y="-1.7%" width="102.7%" height="104%" filterUnits="objectBoundingBox" id="e"><feOffset dx="2" dy="2" in="SourceAlpha" result="shadowOffsetOuter1"/><feGaussianBlur stdDeviation="5" in="shadowOffsetOuter1" result="shadowBlurOuter1"/><feColorMatrix values="0 0 0 0 0 0 0 0 0 0 0 0 0 0 0 0 0 0 0.2 0" in="shadowBlurOuter1"/></filter><rect id="f" x="0" y="0" width="1174" height="804" rx="10"/></defs><g fill="none" fill-rule="evenodd"><g transform="translate(8 8)"><use fill="#000" filter="url(#e)" xlink:href="#f"/><use fill="#FFF" xlink:href="#f"/></g><g transform="translate(109 65)"><path d="M8 61.5A6.5 6.5 0 001.5 68v612a6.5 6.5 0 006.5 6.5h374a6.5 6.5 0 006.5-6.5V68a6.5 6.5 0 00-6.5-6.5H8z" stroke="#5A2AB5" stroke-width="3"/><path d="M61 175.5a6.5 6.5 0 00-6.5 6.5v164a6.5 6.5 0 006.5 6.5h261a6.5 6.5 0 006.5-6.5V182a6.5 6.5 0 00-6.5-6.5H61zm419 0a6.5 6.5 0 00-6.5 6.5v84a6.5 6.5 0 006.5 6.5h150a6.5 6.5 0 006.5-6.5v-84a6.5 6.5 0 00-6.5-6.5H480zm0 116a6.5 6.5 0 00-6.5 6.5v158a6.5 6.5 0 006.5 6.5h150a6.5 6.5 0 006.5-6.5V298a6.5 6.5 0 00-6.5-6.5H480z" stroke="#5A2AB5" stroke-width="3"/><use stroke="#5A2AB5" mask="url(#g)" stroke-width="6" stroke-dasharray="8" xlink:href="#a"/><use stroke="#5A2AB5" mask="url(#h)" stroke-width="6" stroke-dasharray="8,8" xlink:href="#b"/><path d="M734 272.242h6.776c1.657 0 2.948.414 3.872 1.243.924.829 1.386 1.991 1.386 3.487s-.462 2.662-1.386 3.498c-.924.836-2.215 1.254-3.872 1.254h-3.938v6.028H734v-15.51zm6.424 7.304c1.95 0 2.926-.85 2.926-2.552 0-.865-.242-1.507-.726-1.925-.484-.418-1.217-.627-2.2-.627h-3.586v5.104h3.586zm14.938-.528l-1.606.154c-1.819.19-2.728 1.115-2.728 2.772v5.808h-2.75v-10.758h2.618v1.892c.557-1.29 1.709-1.995 3.454-2.112l.836-.066.176 2.31zm6.248 8.91c-1.1 0-2.064-.227-2.893-.682a4.719 4.719 0 01-1.925-1.958c-.455-.85-.682-1.84-.682-2.97 0-1.13.227-2.116.682-2.959a4.735 4.735 0 011.925-1.947c.829-.455 1.793-.682 2.893-.682 1.1 0 2.064.227 2.893.682a4.666 4.666 0 011.914 1.947c.447.843.671 1.83.671 2.959 0 1.13-.224 2.12-.671 2.97a4.65 4.65 0 01-1.914 1.958c-.829.455-1.793.682-2.893.682zm-.022-2.134c.895 0 1.577-.293 2.046-.88.47-.587.704-1.452.704-2.596 0-1.13-.235-1.991-.704-2.585-.47-.594-1.144-.891-2.024-.891-.88 0-1.558.297-2.035.891-.477.594-.715 1.456-.715 2.585 0 1.144.235 2.01.704 2.596.47.587 1.144.88 2.024.88zm10.516 1.474c0 1.51-.352 2.61-1.056 3.3-.704.69-1.877 1.085-3.52 1.188l-1.034.066-.198-2.002 1.078-.088c.675-.044 1.173-.224 1.496-.539.323-.315.484-.796.484-1.441v-10.758h2.75v10.274zM769.178 272h3.036v2.706h-3.036V272zm15.202 10.868h-7.326c.088.997.389 1.738.902 2.222s1.247.726 2.2.726c1.188 0 2.273-.381 3.256-1.144l.792 1.892c-.499.41-1.126.74-1.881.99a7.225 7.225 0 01-2.277.374c-1.76 0-3.15-.499-4.169-1.496-1.02-.997-1.529-2.361-1.529-4.092 0-1.1.22-2.075.66-2.926a4.8 4.8 0 011.859-1.98c.8-.47 1.705-.704 2.717-.704 1.481 0 2.651.477 3.509 1.43.858.953 1.287 2.266 1.287 3.938v.77zm-4.73-4.202c-.733 0-1.324.235-1.771.704-.447.47-.722 1.144-.825 2.024h4.972c-.03-.895-.25-1.573-.66-2.035-.41-.462-.983-.693-1.716-.693zm11.88 9.262c-1.13 0-2.108-.227-2.937-.682a4.614 4.614 0 01-1.903-1.936c-.44-.836-.66-1.811-.66-2.926 0-1.115.231-2.101.693-2.959a4.858 4.858 0 011.969-1.991c.85-.47 1.833-.704 2.948-.704.763 0 1.507.121 2.233.363.726.242 1.309.568 1.749.979l-.792 1.936a5.229 5.229 0 00-1.441-.836 4.25 4.25 0 00-1.507-.286c-.953 0-1.694.297-2.222.891-.528.594-.792 1.448-.792 2.563 0 1.1.264 1.947.792 2.541.528.594 1.269.891 2.222.891a4.25 4.25 0 001.507-.286c.506-.19.986-.47 1.441-.836l.792 1.914c-.47.425-1.07.759-1.804 1.001a7.254 7.254 0 01-2.288.363zm11.33-2.068c.323 0 .66-.022 1.012-.066l-.132 2.046c-.44.044-.843.066-1.21.066-1.51 0-2.625-.348-3.344-1.045-.719-.697-1.078-1.734-1.078-3.113v-4.686h-2.068v-2.068h2.068v-3.212h2.75v3.212h2.838v2.068h-2.838v4.642c0 1.437.667 2.156 2.002 2.156zm16.06-5.984l5.896 7.876h-3.3l-4.202-5.808-4.224 5.808h-3.3l5.918-7.898-5.698-7.612h3.3l4.004 5.566 4.026-5.566h3.3l-5.72 7.634zm7.194 3.08v-2.178h6.556v2.178h-6.556zm22.726 4.796h-3.08l-2.662-4.95c-.25-.47-.557-.8-.924-.99-.367-.19-.829-.286-1.386-.286h-2.156v6.226h-2.794v-15.51h6.864c1.76 0 3.098.392 4.015 1.177.917.785 1.375 1.918 1.375 3.399 0 1.188-.334 2.167-1.001 2.937-.667.77-1.61 1.272-2.827 1.507.821.22 1.481.8 1.98 1.738l2.596 4.752zm-6.534-8.404c1.07 0 1.855-.202 2.354-.605.499-.403.748-1.023.748-1.859 0-.85-.25-1.47-.748-1.859-.499-.389-1.283-.583-2.354-.583h-3.696v4.906h3.696zm13.2-2.618c1.51 0 2.633.367 3.366 1.1.733.733 1.1 1.863 1.1 3.388v6.534h-2.618v-1.65a2.87 2.87 0 01-1.177 1.342c-.535.323-1.155.484-1.859.484a4.317 4.317 0 01-1.958-.44 3.483 3.483 0 01-1.386-1.21 3.057 3.057 0 01-.506-1.716c0-.792.202-1.415.605-1.87.403-.455 1.06-.785 1.969-.99.91-.205 2.163-.308 3.762-.308h.55v-.506c0-.733-.158-1.261-.473-1.584-.315-.323-.84-.484-1.573-.484-.572 0-1.17.099-1.793.297a9.068 9.068 0 00-1.837.825l-.77-1.892c.601-.381 1.327-.697 2.178-.946a8.581 8.581 0 012.42-.374zm-.638 9.218c.733 0 1.331-.246 1.793-.737.462-.491.693-1.126.693-1.903v-.462h-.396c-.983 0-1.745.044-2.288.132-.543.088-.931.242-1.166.462-.235.22-.352.52-.352.902 0 .47.161.854.484 1.155.323.3.733.451 1.232.451zm15.444-8.932h2.706l-6.468 14.696h-2.772l1.958-4.378-4.488-10.318h2.904l3.036 7.59 3.124-7.59z" fill="#5A2AB5" fill-rule="nonzero"/><use stroke="#5A2AB5" mask="url(#i)" stroke-width="6" stroke-dasharray="8,8" xlink:href="#c"/><path d="M736 349.242h6.776c1.657 0 2.948.414 3.872 1.243.924.829 1.386 1.991 1.386 3.487s-.462 2.662-1.386 3.498c-.924.836-2.215 1.254-3.872 1.254h-3.938v6.028H736v-15.51zm6.424 7.304c1.95 0 2.926-.85 2.926-2.552 0-.865-.242-1.507-.726-1.925-.484-.418-1.217-.627-2.2-.627h-3.586v5.104h3.586zm14.938-.528l-1.606.154c-1.819.19-2.728 1.115-2.728 2.772v5.808h-2.75v-10.758h2.618v1.892c.557-1.29 1.709-1.995 3.454-2.112l.836-.066.176 2.31zm6.248 8.91c-1.1 0-2.064-.227-2.893-.682a4.719 4.719 0 01-1.925-1.958c-.455-.85-.682-1.84-.682-2.97 0-1.13.227-2.116.682-2.959a4.735 4.735 0 011.925-1.947c.829-.455 1.793-.682 2.893-.682 1.1 0 2.064.227 2.893.682a4.666 4.666 0 011.914 1.947c.447.843.671 1.83.671 2.959 0 1.13-.224 2.12-.671 2.97a4.65 4.65 0 01-1.914 1.958c-.829.455-1.793.682-2.893.682zm-.022-2.134c.895 0 1.577-.293 2.046-.88.47-.587.704-1.452.704-2.596 0-1.13-.235-1.991-.704-2.585-.47-.594-1.144-.891-2.024-.891-.88 0-1.558.297-2.035.891-.477.594-.715 1.456-.715 2.585 0 1.144.235 2.01.704 2.596.47.587 1.144.88 2.024.88zm10.516 1.474c0 1.51-.352 2.61-1.056 3.3-.704.69-1.877 1.085-3.52 1.188l-1.034.066-.198-2.002 1.078-.088c.675-.044 1.173-.224 1.496-.539.323-.315.484-.796.484-1.441v-10.758h2.75v10.274zM771.178 349h3.036v2.706h-3.036V349zm15.202 10.868h-7.326c.088.997.389 1.738.902 2.222s1.247.726 2.2.726c1.188 0 2.273-.381 3.256-1.144l.792 1.892c-.499.41-1.126.74-1.881.99a7.225 7.225 0 01-2.277.374c-1.76 0-3.15-.499-4.169-1.496-1.02-.997-1.529-2.361-1.529-4.092 0-1.1.22-2.075.66-2.926a4.8 4.8 0 011.859-1.98c.8-.47 1.705-.704 2.717-.704 1.481 0 2.651.477 3.509 1.43.858.953 1.287 2.266 1.287 3.938v.77zm-4.73-4.202c-.733 0-1.324.235-1.771.704-.447.47-.722 1.144-.825 2.024h4.972c-.03-.895-.25-1.573-.66-2.035-.41-.462-.983-.693-1.716-.693zm11.88 9.262c-1.13 0-2.108-.227-2.937-.682a4.614 4.614 0 01-1.903-1.936c-.44-.836-.66-1.811-.66-2.926 0-1.115.231-2.101.693-2.959a4.858 4.858 0 011.969-1.991c.85-.47 1.833-.704 2.948-.704.763 0 1.507.121 2.233.363.726.242 1.309.568 1.749.979l-.792 1.936a5.229 5.229 0 00-1.441-.836 4.25 4.25 0 00-1.507-.286c-.953 0-1.694.297-2.222.891-.528.594-.792 1.448-.792 2.563 0 1.1.264 1.947.792 2.541.528.594 1.269.891 2.222.891a4.25 4.25 0 001.507-.286c.506-.19.986-.47 1.441-.836l.792 1.914c-.47.425-1.07.759-1.804 1.001a7.254 7.254 0 01-2.288.363zm11.33-2.068c.323 0 .66-.022 1.012-.066l-.132 2.046c-.44.044-.843.066-1.21.066-1.51 0-2.625-.348-3.344-1.045-.719-.697-1.078-1.734-1.078-3.113v-4.686h-2.068v-2.068h2.068v-3.212h2.75v3.212h2.838v2.068h-2.838v4.642c0 1.437.667 2.156 2.002 2.156zm12.474 1.892v-13.178h-5.06v-2.332h12.958v2.332h-5.06v13.178h-2.838zm16.676-8.734l-1.606.154c-1.819.19-2.728 1.115-2.728 2.772v5.808h-2.75v-10.758h2.618v1.892c.557-1.29 1.709-1.995 3.454-2.112l.836-.066.176 2.31zm10.78 3.85h-7.326c.088.997.389 1.738.902 2.222s1.247.726 2.2.726c1.188 0 2.273-.381 3.256-1.144l.792 1.892c-.499.41-1.126.74-1.881.99a7.225 7.225 0 01-2.277.374c-1.76 0-3.15-.499-4.169-1.496-1.02-.997-1.529-2.361-1.529-4.092 0-1.1.22-2.075.66-2.926a4.8 4.8 0 011.859-1.98c.8-.47 1.705-.704 2.717-.704 1.481 0 2.651.477 3.509 1.43.858.953 1.287 2.266 1.287 3.938v.77zm-4.73-4.202c-.733 0-1.324.235-1.771.704-.447.47-.722 1.144-.825 2.024h4.972c-.03-.895-.25-1.573-.66-2.035-.41-.462-.983-.693-1.716-.693zm6.974 9.086v-15.51h2.75v15.51h-2.75zm5.588 0v-15.51h2.75v15.51h-2.75zm5.588 0v-10.758h2.75v10.758h-2.75zM858.056 349h3.036v2.706h-3.036V349zm9.702 15.928c-.953 0-1.83-.117-2.629-.352-.8-.235-1.478-.572-2.035-1.012l.77-1.914c1.144.836 2.457 1.254 3.938 1.254.63 0 1.111-.103 1.441-.308a.979.979 0 00.495-.88c0-.323-.114-.572-.341-.748-.227-.176-.634-.337-1.221-.484l-1.76-.396c-.997-.22-1.738-.58-2.222-1.078-.484-.499-.726-1.144-.726-1.936 0-.66.187-1.243.561-1.749.374-.506.895-.898 1.562-1.177s1.441-.418 2.321-.418a7 7 0 012.211.352 6.134 6.134 0 011.881.99l-.77 1.87c-1.115-.807-2.23-1.21-3.344-1.21-.601 0-1.07.11-1.408.33-.337.22-.506.528-.506.924 0 .293.106.535.319.726.213.19.554.337 1.023.44l1.826.418c1.07.235 1.855.605 2.354 1.111.499.506.748 1.17.748 1.991 0 .997-.403 1.79-1.21 2.376-.807.587-1.9.88-3.278.88z" fill="#5A2AB5" fill-rule="nonzero"/><use stroke="#5A2AB5" mask="url(#j)" stroke-width="6" stroke-dasharray="8,8" xlink:href="#d"/><path d="M422 61.5a6.5 6.5 0 00-6.5 6.5v425a6.5 6.5 0 006.5 6.5h540a6.5 6.5 0 006.5-6.5V68a6.5 6.5 0 00-6.5-6.5H422zm0 457a6.5 6.5 0 00-6.5 6.5v155a6.5 6.5 0 006.5 6.5h540a6.5 6.5 0 006.5-6.5V525a6.5 6.5 0 00-6.5-6.5H422z" stroke="#5A2AB5" stroke-width="3"/><path d="M121.7 131.36c-3.42 0-6.66-1.08-9.468-3.168a2.077 2.077 0 01-.864-1.692c0-1.152.936-2.052 2.088-2.052.612 0 1.008.18 1.296.396 2.088 1.656 4.32 2.592 7.056 2.592 2.736 0 4.464-1.296 4.464-3.168v-.072c0-1.8-1.008-2.772-5.688-3.852-5.364-1.296-8.388-2.88-8.388-7.524v-.072c0-4.32 3.6-7.308 8.604-7.308 3.168 0 5.724.828 7.992 2.34.504.288.972.9.972 1.764 0 1.152-.936 2.052-2.088 2.052-.432 0-.792-.108-1.152-.324-1.944-1.26-3.816-1.908-5.796-1.908-2.592 0-4.104 1.332-4.104 2.988v.072c0 1.944 1.152 2.808 6.012 3.96 5.328 1.296 8.064 3.204 8.064 7.38v.072c0 4.716-3.708 7.524-9 7.524zm17.172 5.508c-1.224 0-2.124-.18-3.024-.54-.648-.216-1.368-.756-1.368-1.8 0-1.08.828-1.8 1.764-1.8.36 0 .576.072.792.144.504.144.9.252 1.512.252 1.296 0 1.98-.54 2.7-2.016l.144-.396-7.056-15.768c-.144-.324-.252-.756-.252-1.044 0-1.224.936-2.124 2.16-2.124 1.116 0 1.728.648 2.124 1.656l5.112 12.636 4.752-12.636c.36-.9.972-1.656 2.088-1.656 1.152 0 2.088.9 2.088 2.052 0 .36-.108.828-.18 1.044l-6.948 16.668c-1.62 3.888-3.348 5.328-6.408 5.328zm17.676-7.848v-15.048c0-1.224.936-2.196 2.16-2.196 1.224 0 2.196.972 2.196 2.196v.936c1.224-1.764 2.988-3.312 5.94-3.312 4.284 0 6.768 2.88 6.768 7.272v10.152c0 1.224-.936 2.16-2.16 2.16-1.224 0-2.196-.936-2.196-2.16v-8.82c0-2.952-1.476-4.644-4.068-4.644-2.52 0-4.284 1.764-4.284 4.716v8.748c0 1.224-.972 2.16-2.196 2.16a2.143 2.143 0 01-2.16-2.16zm28.692 2.304c-3.204 0-5.472-1.404-5.472-5.58v-10.008h-.72a1.86 1.86 0 01-1.872-1.872 1.86 1.86 0 011.872-1.872h.72v-3.24c0-1.188.972-2.16 2.196-2.16 1.188 0 2.16.972 2.16 2.16v3.24h3.42c1.044 0 1.908.828 1.908 1.872s-.864 1.872-1.908 1.872h-3.42v9.324c0 1.692.864 2.376 2.34 2.376.504 0 .936-.108 1.08-.108.972 0 1.836.792 1.836 1.8 0 .792-.54 1.44-1.152 1.692a8.665 8.665 0 01-2.988.504zm8.424-2.304V106.7c0-1.188.936-2.16 2.16-2.16 1.224 0 2.196.972 2.196 2.16v8.208c1.224-1.764 2.988-3.312 5.94-3.312 4.284 0 6.768 2.88 6.768 7.272v10.152c0 1.224-.936 2.16-2.16 2.16-1.224 0-2.196-.936-2.196-2.16v-8.82c0-2.952-1.476-4.644-4.068-4.644-2.52 0-4.284 1.764-4.284 4.716v8.748c0 1.224-.972 2.16-2.196 2.16a2.143 2.143 0 01-2.16-2.16zm25.596-8.856h9.756c-.288-2.808-1.944-5.004-4.824-5.004-2.664 0-4.536 2.052-4.932 5.004zm12.276 8.748c-1.728 1.548-3.888 2.52-6.84 2.52-5.508 0-9.756-3.996-9.756-9.864v-.072c0-5.436 3.852-9.9 9.288-9.9 6.048 0 9.036 4.968 9.036 9.36 0 1.224-.936 2.088-2.052 2.088h-11.916c.468 3.096 2.664 4.824 5.472 4.824 1.836 0 3.276-.648 4.5-1.656.324-.252.612-.396 1.116-.396.972 0 1.728.756 1.728 1.764 0 .54-.252 1.008-.576 1.332zm12.708 2.448c-2.412 0-5.04-.756-7.236-2.268-.468-.252-.828-.792-.828-1.512 0-.972.756-1.764 1.764-1.764.36 0 .684.108.936.252 1.836 1.224 3.744 1.836 5.472 1.836 1.872 0 2.952-.792 2.952-2.052v-.072c0-1.476-2.016-1.98-4.248-2.664-2.808-.792-5.94-1.944-5.94-5.58v-.072c0-3.6 2.988-5.796 6.768-5.796 2.016 0 4.14.576 5.976 1.548.612.324 1.044.9 1.044 1.656 0 1.008-.792 1.764-1.8 1.764-.36 0-.576-.072-.864-.216-1.548-.792-3.132-1.296-4.464-1.296-1.692 0-2.664.792-2.664 1.872v.072c0 1.404 2.052 1.98 4.284 2.7 2.772.864 5.904 2.124 5.904 5.544v.072c0 3.996-3.096 5.976-7.056 5.976zm11.448-24.264v-.216c0-1.296 1.08-2.124 2.484-2.124s2.484.828 2.484 2.124v.216c0 1.296-1.08 2.16-2.484 2.16s-2.484-.864-2.484-2.16zm.324 21.924v-15.048c0-1.224.936-2.196 2.16-2.196 1.224 0 2.196.972 2.196 2.196v15.048c0 1.224-.972 2.16-2.196 2.16a2.143 2.143 0 01-2.16-2.16zm16.56 2.34c-2.412 0-5.04-.756-7.236-2.268-.468-.252-.828-.792-.828-1.512 0-.972.756-1.764 1.764-1.764.36 0 .684.108.936.252 1.836 1.224 3.744 1.836 5.472 1.836 1.872 0 2.952-.792 2.952-2.052v-.072c0-1.476-2.016-1.98-4.248-2.664-2.808-.792-5.94-1.944-5.94-5.58v-.072c0-3.6 2.988-5.796 6.768-5.796 2.016 0 4.14.576 5.976 1.548.612.324 1.044.9 1.044 1.656 0 1.008-.792 1.764-1.8 1.764-.36 0-.576-.072-.864-.216-1.548-.792-3.132-1.296-4.464-1.296-1.692 0-2.664.792-2.664 1.872v.072c0 1.404 2.052 1.98 4.284 2.7 2.772.864 5.904 2.124 5.904 5.544v.072c0 3.996-3.096 5.976-7.056 5.976zM170.45 252.85l-8.58 11.4V274H158v-9.75l-8.55-11.4h4.35l6.12 8.31 6.15-8.31h4.38zm7.47 21.39c-1.5 0-2.815-.31-3.945-.93a6.435 6.435 0 01-2.625-2.67c-.62-1.16-.93-2.51-.93-4.05s.31-2.885.93-4.035a6.457 6.457 0 012.625-2.655c1.13-.62 2.445-.93 3.945-.93s2.815.31 3.945.93c1.13.62 2 1.505 2.61 2.655.61 1.15.915 2.495.915 4.035s-.305 2.89-.915 4.05a6.342 6.342 0 01-2.61 2.67c-1.13.62-2.445.93-3.945.93zm-.03-2.91c1.22 0 2.15-.4 2.79-1.2.64-.8.96-1.98.96-3.54 0-1.54-.32-2.715-.96-3.525-.64-.81-1.56-1.215-2.76-1.215-1.2 0-2.125.405-2.775 1.215-.65.81-.975 1.985-.975 3.525 0 1.56.32 2.74.96 3.54.64.8 1.56 1.2 2.76 1.2zm15.99 2.91c-1.3 0-2.495-.16-3.585-.48-1.09-.32-2.015-.78-2.775-1.38l1.05-2.61c1.56 1.14 3.35 1.71 5.37 1.71.86 0 1.515-.14 1.965-.42.45-.28.675-.68.675-1.2 0-.44-.155-.78-.465-1.02-.31-.24-.865-.46-1.665-.66l-2.4-.54c-1.36-.3-2.37-.79-3.03-1.47-.66-.68-.99-1.56-.99-2.64 0-.9.255-1.695.765-2.385.51-.69 1.22-1.225 2.13-1.605.91-.38 1.965-.57 3.165-.57 1.04 0 2.045.16 3.015.48.97.32 1.825.77 2.565 1.35l-1.05 2.55c-1.52-1.1-3.04-1.65-4.56-1.65-.82 0-1.46.15-1.92.45-.46.3-.69.72-.69 1.26 0 .4.145.73.435.99.29.26.755.46 1.395.6l2.49.57c1.46.32 2.53.825 3.21 1.515.68.69 1.02 1.595 1.02 2.715 0 1.36-.55 2.44-1.65 3.24-1.1.8-2.59 1.2-4.47 1.2zm19.44-14.88h3.69l-8.82 20.04h-3.78l2.67-5.97-6.12-14.07h3.96l4.14 10.35 4.26-10.35zm10.89 14.88c-1.3 0-2.495-.16-3.585-.48-1.09-.32-2.015-.78-2.775-1.38l1.05-2.61c1.56 1.14 3.35 1.71 5.37 1.71.86 0 1.515-.14 1.965-.42.45-.28.675-.68.675-1.2 0-.44-.155-.78-.465-1.02-.31-.24-.865-.46-1.665-.66l-2.4-.54c-1.36-.3-2.37-.79-3.03-1.47-.66-.68-.99-1.56-.99-2.64 0-.9.255-1.695.765-2.385.51-.69 1.22-1.225 2.13-1.605.91-.38 1.965-.57 3.165-.57 1.04 0 2.045.16 3.015.48.97.32 1.825.77 2.565 1.35l-1.05 2.55c-1.52-1.1-3.04-1.65-4.56-1.65-.82 0-1.46.15-1.92.45-.46.3-.69.72-.69 1.26 0 .4.145.73.435.99.29.26.755.46 1.395.6l2.49.57c1.46.32 2.53.825 3.21 1.515.68.69 1.02 1.595 1.02 2.715 0 1.36-.55 2.44-1.65 3.24-1.1.8-2.59 1.2-4.47 1.2z" fill="#5A2AB5" fill-rule="nonzero"/><path d="M152.24 22V7.9h8.72v1.38h-7.1v4.86h6.7v1.38h-6.7V22h-1.62zm16.42-8.58l-1.06.1c-1 .093-1.723.407-2.17.94-.447.533-.67 1.193-.67 1.98V22h-1.62v-9.74h1.58v1.7c.547-1.133 1.62-1.767 3.22-1.9l.58-.04.14 1.4zm5.58 8.72c-.92 0-1.73-.207-2.43-.62-.7-.413-1.24-1.003-1.62-1.77-.38-.767-.57-1.657-.57-2.67s.19-1.903.57-2.67c.38-.767.92-1.357 1.62-1.77.7-.413 1.51-.62 2.43-.62.92 0 1.733.207 2.44.62a4.113 4.113 0 011.63 1.77c.38.767.57 1.657.57 2.67s-.19 1.903-.57 2.67a4.113 4.113 0 01-1.63 1.77c-.707.413-1.52.62-2.44.62zm0-1.34c.96 0 1.697-.317 2.21-.95.513-.633.77-1.557.77-2.77 0-1.187-.26-2.103-.78-2.75-.52-.647-1.253-.97-2.2-.97-.947 0-1.68.323-2.2.97-.52.647-.78 1.563-.78 2.75 0 1.2.257 2.12.77 2.76.513.64 1.25.96 2.21.96zm11.96-8.78c2.333 0 3.5 1.287 3.5 3.86V22h-1.62v-6.02c0-.907-.177-1.567-.53-1.98-.353-.413-.917-.62-1.69-.62-.893 0-1.607.273-2.14.82-.533.547-.8 1.287-.8 2.22V22h-1.62v-9.74h1.6v1.6a3.28 3.28 0 011.34-1.37c.573-.313 1.227-.47 1.96-.47zm10.74 8.82c.293 0 .587-.02.88-.06l-.08 1.28c-.307.053-.64.08-1 .08-1.173 0-2.057-.307-2.65-.92s-.89-1.467-.89-2.56v-5.12h-1.9v-1.28h1.9V9.3h1.62v2.96h2.76v1.28h-2.76v5c0 1.533.707 2.3 2.12 2.3zm10.68-3.46h-7.12c.053 1.133.36 1.99.92 2.57.56.58 1.353.87 2.38.87 1.133 0 2.173-.387 3.12-1.16l.54 1.18c-.427.4-.973.717-1.64.95a6.134 6.134 0 01-2.04.35c-1.52 0-2.717-.447-3.59-1.34-.873-.893-1.31-2.127-1.31-3.7 0-1 .193-1.883.58-2.65a4.327 4.327 0 011.63-1.79c.7-.427 1.497-.64 2.39-.64 1.293 0 2.307.423 3.04 1.27.733.847 1.1 2.01 1.1 3.49v.6zm-4.12-4.1c-.853 0-1.537.267-2.05.8-.513.533-.817 1.287-.91 2.26h5.66c-.027-.987-.273-1.743-.74-2.27-.467-.527-1.12-.79-1.96-.79zm11.4-1.26c2.333 0 3.5 1.287 3.5 3.86V22h-1.62v-6.02c0-.907-.177-1.567-.53-1.98-.353-.413-.917-.62-1.69-.62-.893 0-1.607.273-2.14.82-.533.547-.8 1.287-.8 2.22V22H210v-9.74h1.6v1.6a3.28 3.28 0 011.34-1.37c.573-.313 1.227-.47 1.96-.47zM230 7.9V22h-1.62v-1.78a3.214 3.214 0 01-1.29 1.42c-.567.333-1.23.5-1.99.5-.853 0-1.607-.213-2.26-.64-.653-.427-1.16-1.023-1.52-1.79-.36-.767-.54-1.657-.54-2.67 0-1 .18-1.88.54-2.64.36-.76.867-1.347 1.52-1.76.653-.413 1.407-.62 2.26-.62.76 0 1.423.167 1.99.5a3.21 3.21 0 011.29 1.42V7.9H230zm-4.58 12.9c.947 0 1.677-.323 2.19-.97.513-.647.77-1.563.77-2.75s-.257-2.1-.77-2.74c-.513-.64-1.243-.96-2.19-.96-.947 0-1.683.32-2.21.96-.527.64-.79 1.54-.79 2.7 0 1.187.263 2.11.79 2.77.527.66 1.263.99 2.21.99zm455.72-6.04c.813.213 1.443.613 1.89 1.2.447.587.67 1.32.67 2.2 0 1.24-.407 2.19-1.22 2.85-.813.66-1.967.99-3.46.99h-5.88V7.9h5.66c1.453 0 2.58.32 3.38.96.8.64 1.2 1.547 1.2 2.72 0 .76-.197 1.413-.59 1.96-.393.547-.943.953-1.65 1.22zm-6.38-.6h3.8c1.053 0 1.85-.213 2.39-.64.54-.427.81-1.047.81-1.86 0-1.6-1.067-2.4-3.2-2.4h-3.8v4.9zm4.1 6.48c1.107 0 1.923-.203 2.45-.61.527-.407.79-1.043.79-1.91 0-1.733-1.08-2.6-3.24-2.6h-4.1v5.12h4.1zm11.48-8.62c1.24 0 2.163.317 2.77.95.607.633.91 1.597.91 2.89V22h-1.58v-1.66a2.861 2.861 0 01-1.16 1.33c-.52.313-1.12.47-1.8.47a3.938 3.938 0 01-1.73-.38 3.091 3.091 0 01-1.25-1.06 2.62 2.62 0 01-.46-1.5c0-.733.187-1.303.56-1.71.373-.407.987-.7 1.84-.88.853-.18 2.04-.27 3.56-.27h.44v-.66c0-.813-.167-1.403-.5-1.77-.333-.367-.873-.55-1.62-.55-1.12 0-2.233.347-3.34 1.04l-.54-1.18c.507-.36 1.117-.65 1.83-.87a7.01 7.01 0 012.07-.33zm-.64 8.84c.8 0 1.457-.27 1.97-.81.513-.54.77-1.237.77-2.09v-.58h-.36c-1.173 0-2.067.05-2.68.15-.613.1-1.05.267-1.31.5-.26.233-.39.577-.39 1.03 0 .52.19.95.57 1.29.38.34.857.51 1.43.51zm11.4 1.28c-.96 0-1.793-.207-2.5-.62a4.138 4.138 0 01-1.63-1.75c-.38-.753-.57-1.637-.57-2.65s.197-1.903.59-2.67a4.352 4.352 0 011.66-1.79c.713-.427 1.55-.64 2.51-.64.653 0 1.293.117 1.92.35.627.233 1.133.543 1.52.93l-.54 1.2c-.92-.747-1.853-1.12-2.8-1.12-1 0-1.78.327-2.34.98-.56.653-.84 1.573-.84 2.76 0 1.173.28 2.08.84 2.72.56.64 1.34.96 2.34.96.947 0 1.88-.373 2.8-1.12l.54 1.2c-.413.387-.933.693-1.56.92a5.661 5.661 0 01-1.94.34zm14.14-.14h-2.1l-4.96-4.66V22h-1.62V7.9h1.62v8.78l4.54-4.4h2.06l-4.84 4.66 5.3 5.06zm9.48-4.62h-7.12c.053 1.133.36 1.99.92 2.57.56.58 1.353.87 2.38.87 1.133 0 2.173-.387 3.12-1.16l.54 1.18c-.427.4-.973.717-1.64.95a6.134 6.134 0 01-2.04.35c-1.52 0-2.717-.447-3.59-1.34-.873-.893-1.31-2.127-1.31-3.7 0-1 .193-1.883.58-2.65a4.327 4.327 0 011.63-1.79c.7-.427 1.497-.64 2.39-.64 1.293 0 2.307.423 3.04 1.27.733.847 1.1 2.01 1.1 3.49v.6zm-4.12-4.1c-.853 0-1.537.267-2.05.8-.513.533-.817 1.287-.91 2.26h5.66c-.027-.987-.273-1.743-.74-2.27-.467-.527-1.12-.79-1.96-.79zm11.4-1.26c2.333 0 3.5 1.287 3.5 3.86V22h-1.62v-6.02c0-.907-.177-1.567-.53-1.98-.353-.413-.917-.62-1.69-.62-.893 0-1.607.273-2.14.82-.533.547-.8 1.287-.8 2.22V22h-1.62v-9.74h1.6v1.6a3.28 3.28 0 011.34-1.37c.573-.313 1.227-.47 1.96-.47zm15.1-4.12V22h-1.62v-1.78a3.214 3.214 0 01-1.29 1.42c-.567.333-1.23.5-1.99.5-.853 0-1.607-.213-2.26-.64-.653-.427-1.16-1.023-1.52-1.79-.36-.767-.54-1.657-.54-2.67 0-1 .18-1.88.54-2.64.36-.76.867-1.347 1.52-1.76.653-.413 1.407-.62 2.26-.62.76 0 1.423.167 1.99.5a3.21 3.21 0 011.29 1.42V7.9h1.62zm-4.58 12.9c.947 0 1.677-.323 2.19-.97.513-.647.77-1.563.77-2.75s-.257-2.1-.77-2.74c-.513-.64-1.243-.96-2.19-.96-.947 0-1.683.32-2.21.96-.527.64-.79 1.54-.79 2.7 0 1.187.263 2.11.79 2.77.527.66 1.263.99 2.21.99z" fill="#959595" fill-rule="nonzero"/><path d="M523.232 220.978c1.29 0 2.251.367 2.882 1.1.63.733.946 1.84.946 3.322v6.6h-2.75v-6.446c0-.836-.158-1.445-.473-1.826-.315-.381-.81-.572-1.485-.572-.792 0-1.426.25-1.903.748-.477.499-.715 1.166-.715 2.002V232h-2.75v-10.758h2.684v1.606a3.72 3.72 0 011.474-1.386c.616-.323 1.313-.484 2.09-.484zm16.06 6.138h-7.326c.088.997.389 1.738.902 2.222s1.247.726 2.2.726c1.188 0 2.273-.381 3.256-1.144l.792 1.892c-.499.41-1.126.74-1.881.99a7.225 7.225 0 01-2.277.374c-1.76 0-3.15-.499-4.169-1.496-1.02-.997-1.529-2.361-1.529-4.092 0-1.1.22-2.075.66-2.926a4.8 4.8 0 011.859-1.98c.8-.47 1.705-.704 2.717-.704 1.481 0 2.651.477 3.509 1.43.858.953 1.287 2.266 1.287 3.938v.77zm-4.73-4.202c-.733 0-1.324.235-1.771.704-.447.47-.722 1.144-.825 2.024h4.972c-.03-.895-.25-1.573-.66-2.035-.41-.462-.983-.693-1.716-.693zm12.98 3.542l4.532 5.544h-3.256l-2.86-3.586L543.12 232h-3.256l4.51-5.544-4.268-5.214h3.278l2.574 3.278 2.574-3.278h3.278l-4.268 5.214zm11.198 3.652c.323 0 .66-.022 1.012-.066l-.132 2.046c-.44.044-.843.066-1.21.066-1.51 0-2.625-.348-3.344-1.045-.719-.697-1.078-1.734-1.078-3.113v-4.686h-2.068v-2.068h2.068v-3.212h2.75v3.212h2.838v2.068h-2.838v4.642c0 1.437.667 2.156 2.002 2.156zm8.8-9.13c.924 0 1.749.235 2.475.704.726.47 1.29 1.133 1.694 1.991.403.858.605 1.844.605 2.959s-.202 2.09-.605 2.926c-.403.836-.964 1.481-1.683 1.936-.719.455-1.547.682-2.486.682-.763 0-1.445-.161-2.046-.484a3.396 3.396 0 01-1.386-1.342v5.61h-2.75v-14.718h2.706v1.628a3.375 3.375 0 011.397-1.397c.609-.33 1.302-.495 2.079-.495zm-.726 9.064c.865 0 1.54-.297 2.024-.891.484-.594.726-1.434.726-2.519 0-1.115-.242-1.98-.726-2.596-.484-.616-1.159-.924-2.024-.924-.88 0-1.558.3-2.035.902-.477.601-.715 1.46-.715 2.574 0 1.1.238 1.95.715 2.552.477.601 1.155.902 2.035.902zm14.014-9.064c1.29 0 2.251.367 2.882 1.1.63.733.946 1.84.946 3.322v6.6h-2.75v-6.446c0-.836-.158-1.445-.473-1.826-.315-.381-.81-.572-1.485-.572-.792 0-1.426.25-1.903.748-.477.499-.715 1.166-.715 2.002V232h-2.75v-10.758h2.684v1.606a3.72 3.72 0 011.474-1.386c.616-.323 1.313-.484 2.09-.484zm13.706 2.288l-1.606.154c-1.819.19-2.728 1.115-2.728 2.772V232h-2.75v-10.758h2.618v1.892c.557-1.29 1.709-1.995 3.454-2.112l.836-.066.176 2.31zM721 196.242h6.776c1.657 0 2.948.414 3.872 1.243.924.829 1.386 1.991 1.386 3.487s-.462 2.662-1.386 3.498c-.924.836-2.215 1.254-3.872 1.254h-3.938v6.028H721v-15.51zm6.424 7.304c1.95 0 2.926-.85 2.926-2.552 0-.865-.242-1.507-.726-1.925-.484-.418-1.217-.627-2.2-.627h-3.586v5.104h3.586zm14.938-.528l-1.606.154c-1.819.19-2.728 1.115-2.728 2.772v5.808h-2.75v-10.758h2.618v1.892c.557-1.29 1.709-1.995 3.454-2.112l.836-.066.176 2.31zm6.248 8.91c-1.1 0-2.064-.227-2.893-.682a4.719 4.719 0 01-1.925-1.958c-.455-.85-.682-1.84-.682-2.97 0-1.13.227-2.116.682-2.959a4.735 4.735 0 011.925-1.947c.829-.455 1.793-.682 2.893-.682 1.1 0 2.064.227 2.893.682a4.666 4.666 0 011.914 1.947c.447.843.671 1.83.671 2.959 0 1.13-.224 2.12-.671 2.97a4.65 4.65 0 01-1.914 1.958c-.829.455-1.793.682-2.893.682zm-.022-2.134c.895 0 1.577-.293 2.046-.88.47-.587.704-1.452.704-2.596 0-1.13-.235-1.991-.704-2.585-.47-.594-1.144-.891-2.024-.891-.88 0-1.558.297-2.035.891-.477.594-.715 1.456-.715 2.585 0 1.144.235 2.01.704 2.596.47.587 1.144.88 2.024.88zm10.516 1.474c0 1.51-.352 2.61-1.056 3.3-.704.69-1.877 1.085-3.52 1.188l-1.034.066-.198-2.002 1.078-.088c.675-.044 1.173-.224 1.496-.539.323-.315.484-.796.484-1.441v-10.758h2.75v10.274zM756.178 196h3.036v2.706h-3.036V196zm15.202 10.868h-7.326c.088.997.389 1.738.902 2.222s1.247.726 2.2.726c1.188 0 2.273-.381 3.256-1.144l.792 1.892c-.499.41-1.126.74-1.881.99a7.225 7.225 0 01-2.277.374c-1.76 0-3.15-.499-4.169-1.496-1.02-.997-1.529-2.361-1.529-4.092 0-1.1.22-2.075.66-2.926a4.8 4.8 0 011.859-1.98c.8-.47 1.705-.704 2.717-.704 1.481 0 2.651.477 3.509 1.43.858.953 1.287 2.266 1.287 3.938v.77zm-4.73-4.202c-.733 0-1.324.235-1.771.704-.447.47-.722 1.144-.825 2.024h4.972c-.03-.895-.25-1.573-.66-2.035-.41-.462-.983-.693-1.716-.693zm11.88 9.262c-1.13 0-2.108-.227-2.937-.682a4.614 4.614 0 01-1.903-1.936c-.44-.836-.66-1.811-.66-2.926 0-1.115.231-2.101.693-2.959a4.858 4.858 0 011.969-1.991c.85-.47 1.833-.704 2.948-.704.763 0 1.507.121 2.233.363.726.242 1.309.568 1.749.979l-.792 1.936a5.229 5.229 0 00-1.441-.836 4.25 4.25 0 00-1.507-.286c-.953 0-1.694.297-2.222.891-.528.594-.792 1.448-.792 2.563 0 1.1.264 1.947.792 2.541.528.594 1.269.891 2.222.891a4.25 4.25 0 001.507-.286c.506-.19.986-.47 1.441-.836l.792 1.914c-.47.425-1.07.759-1.804 1.001a7.254 7.254 0 01-2.288.363zm11.33-2.068c.323 0 .66-.022 1.012-.066l-.132 2.046c-.44.044-.843.066-1.21.066-1.51 0-2.625-.348-3.344-1.045-.719-.697-1.078-1.734-1.078-3.113v-4.686h-2.068v-2.068h2.068v-3.212h2.75v3.212h2.838v2.068h-2.838v4.642c0 1.437.667 2.156 2.002 2.156zm8.822 1.892v-15.51h2.838v15.51h-2.838zm10.846.176c-1.13 0-2.108-.227-2.937-.682a4.614 4.614 0 01-1.903-1.936c-.44-.836-.66-1.811-.66-2.926 0-1.115.231-2.101.693-2.959a4.858 4.858 0 011.969-1.991c.85-.47 1.833-.704 2.948-.704.763 0 1.507.121 2.233.363.726.242 1.309.568 1.749.979l-.792 1.936a5.229 5.229 0 00-1.441-.836 4.25 4.25 0 00-1.507-.286c-.953 0-1.694.297-2.222.891-.528.594-.792 1.448-.792 2.563 0 1.1.264 1.947.792 2.541.528.594 1.269.891 2.222.891a4.25 4.25 0 001.507-.286c.506-.19.986-.47 1.441-.836l.792 1.914c-.47.425-1.07.759-1.804 1.001a7.254 7.254 0 01-2.288.363zm15.268-5.06h-7.326c.088.997.389 1.738.902 2.222s1.247.726 2.2.726c1.188 0 2.273-.381 3.256-1.144l.792 1.892c-.499.41-1.126.74-1.881.99a7.225 7.225 0 01-2.277.374c-1.76 0-3.15-.499-4.169-1.496-1.02-.997-1.529-2.361-1.529-4.092 0-1.1.22-2.075.66-2.926a4.8 4.8 0 011.859-1.98c.8-.47 1.705-.704 2.717-.704 1.481 0 2.651.477 3.509 1.43.858.953 1.287 2.266 1.287 3.938v.77zm-4.73-4.202c-.733 0-1.324.235-1.771.704-.447.47-.722 1.144-.825 2.024h4.972c-.03-.895-.25-1.573-.66-2.035-.41-.462-.983-.693-1.716-.693zm12.474 9.284a11.24 11.24 0 01-3.344-.484c-1.041-.323-1.921-.777-2.64-1.364l.946-2.068c.748.572 1.536.99 2.365 1.254a8.834 8.834 0 002.695.396c1.07 0 1.896-.187 2.475-.561.58-.374.869-.898.869-1.573 0-.587-.268-1.034-.803-1.342-.535-.308-1.426-.601-2.673-.88-1.29-.279-2.34-.601-3.146-.968-.807-.367-1.415-.836-1.826-1.408-.41-.572-.616-1.298-.616-2.178 0-.91.25-1.723.748-2.442.499-.719 1.203-1.28 2.112-1.683.91-.403 1.958-.605 3.146-.605 1.085 0 2.12.165 3.102.495.983.33 1.79.781 2.42 1.353l-.946 2.068c-1.379-1.1-2.904-1.65-4.576-1.65-.997 0-1.786.202-2.365.605-.58.403-.869.964-.869 1.683 0 .601.257 1.063.77 1.386.513.323 1.386.623 2.618.902 1.305.293 2.365.62 3.179.979.814.36 1.437.818 1.87 1.375.433.557.649 1.261.649 2.112 0 .924-.246 1.734-.737 2.431-.491.697-1.203 1.232-2.134 1.606-.931.374-2.028.561-3.289.561zm14.036-2.09c.323 0 .66-.022 1.012-.066l-.132 2.046c-.44.044-.843.066-1.21.066-1.51 0-2.625-.348-3.344-1.045-.719-.697-1.078-1.734-1.078-3.113v-4.686h-2.068v-2.068h2.068v-3.212h2.75v3.212h2.838v2.068h-2.838v4.642c0 1.437.667 2.156 2.002 2.156zm7.524 2.068c-1.1 0-2.064-.227-2.893-.682a4.719 4.719 0 01-1.925-1.958c-.455-.85-.682-1.84-.682-2.97 0-1.13.227-2.116.682-2.959a4.735 4.735 0 011.925-1.947c.829-.455 1.793-.682 2.893-.682 1.1 0 2.064.227 2.893.682a4.666 4.666 0 011.914 1.947c.447.843.671 1.83.671 2.959 0 1.13-.224 2.12-.671 2.97a4.65 4.65 0 01-1.914 1.958c-.829.455-1.793.682-2.893.682zm-.022-2.134c.895 0 1.577-.293 2.046-.88.47-.587.704-1.452.704-2.596 0-1.13-.235-1.991-.704-2.585-.47-.594-1.144-.891-2.024-.891-.88 0-1.558.297-2.035.891-.477.594-.715 1.456-.715 2.585 0 1.144.235 2.01.704 2.596.47.587 1.144.88 2.024.88zm14.85-6.776l-1.606.154c-1.819.19-2.728 1.115-2.728 2.772v5.808h-2.75v-10.758h2.618v1.892c.557-1.29 1.709-1.995 3.454-2.112l.836-.066.176 2.31zm14.124-2.288c1.217 0 2.127.363 2.728 1.089.601.726.902 1.837.902 3.333v6.6h-2.75v-6.49c0-.821-.14-1.419-.418-1.793-.279-.374-.726-.561-1.342-.561-.733 0-1.305.25-1.716.748-.41.499-.616 1.195-.616 2.09v6.006h-2.75v-6.49c0-.821-.136-1.419-.407-1.793-.271-.374-.722-.561-1.353-.561-.719 0-1.283.25-1.694.748-.41.499-.616 1.195-.616 2.09v6.006h-2.75v-10.758h2.684v1.518c.323-.587.77-1.03 1.342-1.331.572-.3 1.225-.451 1.958-.451 1.628 0 2.706.675 3.234 2.024a3.675 3.675 0 011.452-1.485 4.19 4.19 0 012.112-.539zM708.714 439.246c.352.103.66.268.924.495.264.227.52.546.77.957l1.584 2.574-2.376 1.144-2.134-3.454c-.41-.675-1.107-1.012-2.09-1.012-1.51 0-2.82-.323-3.927-.968-1.107-.645-1.962-1.57-2.563-2.772-.601-1.203-.902-2.61-.902-4.224 0-1.613.3-3.018.902-4.213.601-1.195 1.456-2.116 2.563-2.761 1.107-.645 2.416-.968 3.927-.968 1.496 0 2.798.323 3.905.968 1.107.645 1.962 1.566 2.563 2.761.601 1.195.902 2.6.902 4.213 0 1.76-.348 3.267-1.045 4.521a6.196 6.196 0 01-3.003 2.739zm-3.322-1.562c1.423 0 2.534-.491 3.333-1.474.8-.983 1.199-2.39 1.199-4.224 0-1.833-.4-3.238-1.199-4.213-.8-.975-1.91-1.463-3.333-1.463-1.437 0-2.556.488-3.355 1.463-.8.975-1.199 2.38-1.199 4.213 0 1.833.4 3.241 1.199 4.224.8.983 1.918 1.474 3.355 1.474zm19.866-8.69v10.758h-2.684v-1.65a3.505 3.505 0 01-1.364 1.353c-.572.315-1.217.473-1.936.473-2.64 0-3.96-1.481-3.96-4.444v-6.49h2.75v6.512c0 .763.154 1.327.462 1.694.308.367.792.55 1.452.55.763 0 1.375-.253 1.837-.759.462-.506.693-1.177.693-2.013v-5.984h2.75zm2.86 10.758v-10.758h2.75v10.758h-2.75zM727.964 424H731v2.706h-3.036V424zm10.648 15.928c-1.13 0-2.108-.227-2.937-.682a4.614 4.614 0 01-1.903-1.936c-.44-.836-.66-1.811-.66-2.926 0-1.115.231-2.101.693-2.959a4.858 4.858 0 011.969-1.991c.85-.47 1.833-.704 2.948-.704.763 0 1.507.121 2.233.363.726.242 1.309.568 1.749.979l-.792 1.936a5.229 5.229 0 00-1.441-.836 4.25 4.25 0 00-1.507-.286c-.953 0-1.694.297-2.222.891-.528.594-.792 1.448-.792 2.563 0 1.1.264 1.947.792 2.541.528.594 1.269.891 2.222.891a4.25 4.25 0 001.507-.286c.506-.19.986-.47 1.441-.836l.792 1.914c-.47.425-1.07.759-1.804 1.001a7.254 7.254 0 01-2.288.363zm16.61-.176h-3.41l-4.62-4.906v4.906h-2.75v-15.51h2.75v9.46l4.334-4.686h3.344l-4.84 5.148 5.192 5.588zm1.254 0v-15.51h2.838v13.178h7.238v2.332h-10.076zm16.874.176c-1.1 0-2.064-.227-2.893-.682a4.719 4.719 0 01-1.925-1.958c-.455-.85-.682-1.84-.682-2.97 0-1.13.227-2.116.682-2.959a4.735 4.735 0 011.925-1.947c.829-.455 1.793-.682 2.893-.682 1.1 0 2.064.227 2.893.682a4.666 4.666 0 011.914 1.947c.447.843.671 1.83.671 2.959 0 1.13-.224 2.12-.671 2.97a4.65 4.65 0 01-1.914 1.958c-.829.455-1.793.682-2.893.682zm-.022-2.134c.895 0 1.577-.293 2.046-.88.47-.587.704-1.452.704-2.596 0-1.13-.235-1.991-.704-2.585-.47-.594-1.144-.891-2.024-.891-.88 0-1.558.297-2.035.891-.477.594-.715 1.456-.715 2.585 0 1.144.235 2.01.704 2.596.47.587 1.144.88 2.024.88zm18.238-8.8v9.768c0 1.687-.466 2.963-1.397 3.828-.931.865-2.306 1.298-4.125 1.298a10 10 0 01-2.706-.363c-.865-.242-1.62-.583-2.266-1.023l.77-1.936c1.335.807 2.713 1.21 4.136 1.21 1.907 0 2.86-.939 2.86-2.816v-1.408a3.36 3.36 0 01-1.408 1.397c-.616.33-1.32.495-2.112.495-.939 0-1.771-.224-2.497-.671-.726-.447-1.294-1.074-1.705-1.881-.41-.807-.616-1.738-.616-2.794s.202-1.991.605-2.805c.403-.814.972-1.445 1.705-1.892.733-.447 1.57-.671 2.508-.671.792 0 1.496.165 2.112.495a3.36 3.36 0 011.408 1.397v-1.628h2.728zm-5.522 8.316c.88 0 1.566-.286 2.057-.858.491-.572.737-1.357.737-2.354 0-1.012-.246-1.804-.737-2.376-.491-.572-1.177-.858-2.057-.858-.865 0-1.547.286-2.046.858-.499.572-.748 1.364-.748 2.376 0 .983.25 1.764.748 2.343.499.58 1.18.869 2.046.869zm8.36 2.442v-10.758h2.75v10.758h-2.75zM794.25 424h3.036v2.706h-3.036V424zm10.648 15.928c-1.13 0-2.108-.227-2.937-.682a4.614 4.614 0 01-1.903-1.936c-.44-.836-.66-1.811-.66-2.926 0-1.115.231-2.101.693-2.959a4.858 4.858 0 011.969-1.991c.85-.47 1.833-.704 2.948-.704.763 0 1.507.121 2.233.363.726.242 1.309.568 1.749.979l-.792 1.936a5.229 5.229 0 00-1.441-.836 4.25 4.25 0 00-1.507-.286c-.953 0-1.694.297-2.222.891-.528.594-.792 1.448-.792 2.563 0 1.1.264 1.947.792 2.541.528.594 1.269.891 2.222.891a4.25 4.25 0 001.507-.286c.506-.19.986-.47 1.441-.836l.792 1.914c-.47.425-1.07.759-1.804 1.001a7.254 7.254 0 01-2.288.363zm12.034-15.686h5.72c2.537 0 4.506.678 5.907 2.035 1.4 1.357 2.101 3.26 2.101 5.709 0 2.45-.7 4.356-2.101 5.72-1.4 1.364-3.37 2.046-5.907 2.046h-5.72v-15.51zm5.544 13.2c3.564 0 5.346-1.819 5.346-5.456 0-3.623-1.782-5.434-5.346-5.434h-2.706v10.89h2.706zm15.422-8.712c1.51 0 2.633.367 3.366 1.1.733.733 1.1 1.863 1.1 3.388v6.534h-2.618v-1.65a2.87 2.87 0 01-1.177 1.342c-.535.323-1.155.484-1.859.484a4.317 4.317 0 01-1.958-.44 3.483 3.483 0 01-1.386-1.21 3.057 3.057 0 01-.506-1.716c0-.792.202-1.415.605-1.87.403-.455 1.06-.785 1.969-.99.91-.205 2.163-.308 3.762-.308h.55v-.506c0-.733-.158-1.261-.473-1.584-.315-.323-.84-.484-1.573-.484-.572 0-1.17.099-1.793.297a9.068 9.068 0 00-1.837.825l-.77-1.892c.601-.381 1.327-.697 2.178-.946a8.581 8.581 0 012.42-.374zm-.638 9.218c.733 0 1.331-.246 1.793-.737.462-.491.693-1.126.693-1.903v-.462h-.396c-.983 0-1.745.044-2.288.132-.543.088-.931.242-1.166.462-.235.22-.352.52-.352.902 0 .47.161.854.484 1.155.323.3.733.451 1.232.451zm13.398-.088c.323 0 .66-.022 1.012-.066l-.132 2.046c-.44.044-.843.066-1.21.066-1.51 0-2.625-.348-3.344-1.045-.719-.697-1.078-1.734-1.078-3.113v-4.686h-2.068v-2.068h2.068v-3.212h2.75v3.212h2.838v2.068h-2.838v4.642c0 1.437.667 2.156 2.002 2.156zm7.238-9.13c1.51 0 2.633.367 3.366 1.1.733.733 1.1 1.863 1.1 3.388v6.534h-2.618v-1.65a2.87 2.87 0 01-1.177 1.342c-.535.323-1.155.484-1.859.484a4.317 4.317 0 01-1.958-.44 3.483 3.483 0 01-1.386-1.21 3.057 3.057 0 01-.506-1.716c0-.792.202-1.415.605-1.87.403-.455 1.06-.785 1.969-.99.91-.205 2.163-.308 3.762-.308h.55v-.506c0-.733-.158-1.261-.473-1.584-.315-.323-.84-.484-1.573-.484-.572 0-1.17.099-1.793.297a9.068 9.068 0 00-1.837.825l-.77-1.892c.601-.381 1.327-.697 2.178-.946a8.581 8.581 0 012.42-.374zm-.638 9.218c.733 0 1.331-.246 1.793-.737.462-.491.693-1.126.693-1.903v-.462h-.396c-.983 0-1.745.044-2.288.132-.543.088-.931.242-1.166.462-.235.22-.352.52-.352.902 0 .47.161.854.484 1.155.323.3.733.451 1.232.451zm14.08-9.218c.939 0 1.767.227 2.486.682.719.455 1.28 1.1 1.683 1.936.403.836.605 1.811.605 2.926 0 1.115-.202 2.101-.605 2.959-.403.858-.968 1.522-1.694 1.991-.726.47-1.551.704-2.475.704-.777 0-1.47-.169-2.079-.506a3.444 3.444 0 01-1.397-1.408v1.738h-2.706v-15.51h2.75v6.314a3.29 3.29 0 011.386-1.353c.601-.315 1.283-.473 2.046-.473zm-.726 9.064c.865 0 1.54-.308 2.024-.924.484-.616.726-1.481.726-2.596 0-1.1-.238-1.943-.715-2.53-.477-.587-1.155-.88-2.035-.88-.88 0-1.558.297-2.035.891-.477.594-.715 1.448-.715 2.563 0 1.115.238 1.973.715 2.574.477.601 1.155.902 2.035.902zm12.386-9.064c1.51 0 2.633.367 3.366 1.1.733.733 1.1 1.863 1.1 3.388v6.534h-2.618v-1.65a2.87 2.87 0 01-1.177 1.342c-.535.323-1.155.484-1.859.484a4.317 4.317 0 01-1.958-.44 3.483 3.483 0 01-1.386-1.21 3.057 3.057 0 01-.506-1.716c0-.792.202-1.415.605-1.87.403-.455 1.06-.785 1.969-.99.91-.205 2.163-.308 3.762-.308h.55v-.506c0-.733-.158-1.261-.473-1.584-.315-.323-.84-.484-1.573-.484-.572 0-1.17.099-1.793.297a9.068 9.068 0 00-1.837.825l-.77-1.892c.601-.381 1.327-.697 2.178-.946a8.581 8.581 0 012.42-.374zm-.638 9.218c.733 0 1.331-.246 1.793-.737.462-.491.693-1.126.693-1.903v-.462h-.396c-.983 0-1.745.044-2.288.132-.543.088-.931.242-1.166.462-.235.22-.352.52-.352.902 0 .47.161.854.484 1.155.323.3.733.451 1.232.451zm11.858 1.98c-.953 0-1.83-.117-2.629-.352-.8-.235-1.478-.572-2.035-1.012l.77-1.914c1.144.836 2.457 1.254 3.938 1.254.63 0 1.111-.103 1.441-.308a.979.979 0 00.495-.88c0-.323-.114-.572-.341-.748-.227-.176-.634-.337-1.221-.484l-1.76-.396c-.997-.22-1.738-.58-2.222-1.078-.484-.499-.726-1.144-.726-1.936 0-.66.187-1.243.561-1.749.374-.506.895-.898 1.562-1.177s1.441-.418 2.321-.418a7 7 0 012.211.352 6.134 6.134 0 011.881.99l-.77 1.87c-1.115-.807-2.23-1.21-3.344-1.21-.601 0-1.07.11-1.408.33-.337.22-.506.528-.506.924 0 .293.106.535.319.726.213.19.554.337 1.023.44l1.826.418c1.07.235 1.855.605 2.354 1.111.499.506.748 1.17.748 1.991 0 .997-.403 1.79-1.21 2.376-.807.587-1.9.88-3.278.88zm16.148-5.06h-7.326c.088.997.389 1.738.902 2.222s1.247.726 2.2.726c1.188 0 2.273-.381 3.256-1.144l.792 1.892c-.499.41-1.126.74-1.881.99a7.225 7.225 0 01-2.277.374c-1.76 0-3.15-.499-4.169-1.496-1.02-.997-1.529-2.361-1.529-4.092 0-1.1.22-2.075.66-2.926a4.8 4.8 0 011.859-1.98c.8-.47 1.705-.704 2.717-.704 1.481 0 2.651.477 3.509 1.43.858.953 1.287 2.266 1.287 3.938v.77zm-4.73-4.202c-.733 0-1.324.235-1.771.704-.447.47-.722 1.144-.825 2.024h4.972c-.03-.895-.25-1.573-.66-2.035-.41-.462-.983-.693-1.716-.693zM518.705 354.49h2.882L514.679 370h-2.31l-6.908-15.51h2.926l5.148 11.99 5.17-11.99zm13.53 10.626h-7.326c.088.997.389 1.738.902 2.222s1.247.726 2.2.726c1.188 0 2.273-.381 3.256-1.144l.792 1.892c-.499.41-1.126.74-1.881.99a7.225 7.225 0 01-2.277.374c-1.76 0-3.15-.499-4.169-1.496-1.02-.997-1.529-2.361-1.529-4.092 0-1.1.22-2.075.66-2.926a4.8 4.8 0 011.859-1.98c.8-.47 1.705-.704 2.717-.704 1.481 0 2.651.477 3.509 1.43.858.953 1.287 2.266 1.287 3.938v.77zm-4.73-4.202c-.733 0-1.324.235-1.771.704-.447.47-.722 1.144-.825 2.024h4.972c-.03-.895-.25-1.573-.66-2.035-.41-.462-.983-.693-1.716-.693zm14.058.352l-1.606.154c-1.819.19-2.728 1.115-2.728 2.772V370h-2.75v-10.758h2.618v1.892c.557-1.29 1.709-1.995 3.454-2.112l.836-.066.176 2.31zm1.342 8.734v-10.758h2.75V370h-2.75zm-.154-15.752h3.036v2.706h-3.036v-2.706zM548.493 370v-15.51h2.75V370h-2.75zm10.494.176c-1.1 0-2.064-.227-2.893-.682a4.719 4.719 0 01-1.925-1.958c-.455-.85-.682-1.84-.682-2.97 0-1.13.227-2.116.682-2.959a4.735 4.735 0 011.925-1.947c.829-.455 1.793-.682 2.893-.682 1.1 0 2.064.227 2.893.682a4.666 4.666 0 011.914 1.947c.447.843.671 1.83.671 2.959 0 1.13-.224 2.12-.671 2.97a4.65 4.65 0 01-1.914 1.958c-.829.455-1.793.682-2.893.682zm-.022-2.134c.895 0 1.577-.293 2.046-.88.47-.587.704-1.452.704-2.596 0-1.13-.235-1.991-.704-2.585-.47-.594-1.144-.891-2.024-.891-.88 0-1.558.297-2.035.891-.477.594-.715 1.456-.715 2.585 0 1.144.235 2.01.704 2.596.47.587 1.144.88 2.024.88zm18.238-8.8v9.768c0 1.687-.466 2.963-1.397 3.828-.931.865-2.306 1.298-4.125 1.298a10 10 0 01-2.706-.363c-.865-.242-1.62-.583-2.266-1.023l.77-1.936c1.335.807 2.713 1.21 4.136 1.21 1.907 0 2.86-.939 2.86-2.816V367.8a3.36 3.36 0 01-1.408 1.397c-.616.33-1.32.495-2.112.495-.939 0-1.771-.224-2.497-.671-.726-.447-1.294-1.074-1.705-1.881-.41-.807-.616-1.738-.616-2.794s.202-1.991.605-2.805c.403-.814.972-1.445 1.705-1.892.733-.447 1.57-.671 2.508-.671.792 0 1.496.165 2.112.495a3.36 3.36 0 011.408 1.397v-1.628h2.728zm-5.522 8.316c.88 0 1.566-.286 2.057-.858.491-.572.737-1.357.737-2.354 0-1.012-.246-1.804-.737-2.376-.491-.572-1.177-.858-2.057-.858-.865 0-1.547.286-2.046.858-.499.572-.748 1.364-.748 2.376 0 .983.25 1.764.748 2.343.499.58 1.18.869 2.046.869zm19.822.55c.323 0 .66-.022 1.012-.066l-.132 2.046c-.44.044-.843.066-1.21.066-1.51 0-2.625-.348-3.344-1.045-.719-.697-1.078-1.734-1.078-3.113v-4.686h-2.068v-2.068h2.068v-3.212h2.75v3.212h2.838v2.068h-2.838v4.642c0 1.437.667 2.156 2.002 2.156zm7.524 2.068c-1.1 0-2.064-.227-2.893-.682a4.719 4.719 0 01-1.925-1.958c-.455-.85-.682-1.84-.682-2.97 0-1.13.227-2.116.682-2.959a4.735 4.735 0 011.925-1.947c.829-.455 1.793-.682 2.893-.682 1.1 0 2.064.227 2.893.682a4.666 4.666 0 011.914 1.947c.447.843.671 1.83.671 2.959 0 1.13-.224 2.12-.671 2.97a4.65 4.65 0 01-1.914 1.958c-.829.455-1.793.682-2.893.682zm-.022-2.134c.895 0 1.577-.293 2.046-.88.47-.587.704-1.452.704-2.596 0-1.13-.235-1.991-.704-2.585-.47-.594-1.144-.891-2.024-.891-.88 0-1.558.297-2.035.891-.477.594-.715 1.456-.715 2.585 0 1.144.235 2.01.704 2.596.47.587 1.144.88 2.024.88zM529.892 400h-3.08l-2.662-4.95c-.25-.47-.557-.8-.924-.99-.367-.19-.829-.286-1.386-.286h-2.156V400h-2.794v-15.51h6.864c1.76 0 3.098.392 4.015 1.177.917.785 1.375 1.918 1.375 3.399 0 1.188-.334 2.167-1.001 2.937-.667.77-1.61 1.272-2.827 1.507.821.22 1.481.8 1.98 1.738l2.596 4.752zm-6.534-8.404c1.07 0 1.855-.202 2.354-.605.499-.403.748-1.023.748-1.859 0-.85-.25-1.47-.748-1.859-.499-.389-1.283-.583-2.354-.583h-3.696v4.906h3.696zm13.486 8.58c-1.1 0-2.064-.227-2.893-.682a4.719 4.719 0 01-1.925-1.958c-.455-.85-.682-1.84-.682-2.97 0-1.13.227-2.116.682-2.959a4.735 4.735 0 011.925-1.947c.829-.455 1.793-.682 2.893-.682 1.1 0 2.064.227 2.893.682a4.666 4.666 0 011.914 1.947c.447.843.671 1.83.671 2.959 0 1.13-.224 2.12-.671 2.97a4.65 4.65 0 01-1.914 1.958c-.829.455-1.793.682-2.893.682zm-.022-2.134c.895 0 1.577-.293 2.046-.88.47-.587.704-1.452.704-2.596 0-1.13-.235-1.991-.704-2.585-.47-.594-1.144-.891-2.024-.891-.88 0-1.558.297-2.035.891-.477.594-.715 1.456-.715 2.585 0 1.144.235 2.01.704 2.596.47.587 1.144.88 2.024.88zm17.644-8.8V400h-2.684v-1.65a3.505 3.505 0 01-1.364 1.353c-.572.315-1.217.473-1.936.473-2.64 0-3.96-1.481-3.96-4.444v-6.49h2.75v6.512c0 .763.154 1.327.462 1.694.308.367.792.55 1.452.55.763 0 1.375-.253 1.837-.759.462-.506.693-1.177.693-2.013v-5.984h2.75zm8.36 8.866c.323 0 .66-.022 1.012-.066l-.132 2.046c-.44.044-.843.066-1.21.066-1.51 0-2.625-.348-3.344-1.045-.719-.697-1.078-1.734-1.078-3.113v-4.686h-2.068v-2.068h2.068v-3.212h2.75v3.212h2.838v2.068h-2.838v4.642c0 1.437.667 2.156 2.002 2.156zm2.618 1.892v-10.758h2.75V400h-2.75zm-.154-15.752h3.036v2.706h-3.036v-2.706zm11.99 4.73c1.29 0 2.251.367 2.882 1.1.63.733.946 1.84.946 3.322v6.6h-2.75v-6.446c0-.836-.158-1.445-.473-1.826-.315-.381-.81-.572-1.485-.572-.792 0-1.426.25-1.903.748-.477.499-.715 1.166-.715 2.002V400h-2.75v-10.758h2.684v1.606a3.72 3.72 0 011.474-1.386c.616-.323 1.313-.484 2.09-.484zm17.094.264v9.768c0 1.687-.466 2.963-1.397 3.828-.931.865-2.306 1.298-4.125 1.298a10 10 0 01-2.706-.363c-.865-.242-1.62-.583-2.266-1.023l.77-1.936c1.335.807 2.713 1.21 4.136 1.21 1.907 0 2.86-.939 2.86-2.816V397.8a3.36 3.36 0 01-1.408 1.397c-.616.33-1.32.495-2.112.495-.939 0-1.771-.224-2.497-.671-.726-.447-1.294-1.074-1.705-1.881-.41-.807-.616-1.738-.616-2.794s.202-1.991.605-2.805c.403-.814.972-1.445 1.705-1.892.733-.447 1.57-.671 2.508-.671.792 0 1.496.165 2.112.495a3.36 3.36 0 011.408 1.397v-1.628h2.728zm-5.522 8.316c.88 0 1.566-.286 2.057-.858.491-.572.737-1.357.737-2.354 0-1.012-.246-1.804-.737-2.376-.491-.572-1.177-.858-2.057-.858-.865 0-1.547.286-2.046.858-.499.572-.748 1.364-.748 2.376 0 .983.25 1.764.748 2.343.499.58 1.18.869 2.046.869zm15.392 182.706h2.882l-6.908 15.51h-2.31L591 580.264h2.926l5.148 11.99 5.17-11.99zm13.53 10.626h-7.326c.088.997.389 1.738.902 2.222s1.247.726 2.2.726c1.188 0 2.273-.381 3.256-1.144l.792 1.892c-.499.41-1.126.74-1.881.99a7.225 7.225 0 01-2.277.374c-1.76 0-3.15-.499-4.169-1.496-1.02-.997-1.529-2.361-1.529-4.092 0-1.1.22-2.075.66-2.926a4.8 4.8 0 011.859-1.98c.8-.47 1.705-.704 2.717-.704 1.481 0 2.651.477 3.509 1.43.858.953 1.287 2.266 1.287 3.938v.77zm-4.73-4.202c-.733 0-1.324.235-1.771.704-.447.47-.722 1.144-.825 2.024h4.972c-.03-.895-.25-1.573-.66-2.035-.41-.462-.983-.693-1.716-.693zm14.058.352l-1.606.154c-1.819.19-2.728 1.115-2.728 2.772v5.808h-2.75v-10.758h2.618v1.892c.557-1.29 1.709-1.995 3.454-2.112l.836-.066.176 2.31zm1.342 8.734v-10.758h2.75v10.758h-2.75zm-.154-15.752h3.036v2.706h-3.036v-2.706zm13.442-.022h3.08v2.75h-3.08V580zm-4.202 5.016h7.106v10.758h-2.75v-8.69h-4.356v8.69h-2.75v-8.69h-2.068v-2.068h2.068c0-1.555.41-2.724 1.232-3.509.821-.785 2.06-1.214 3.718-1.287l.946-.044.132 2.046-1.034.044c-.821.044-1.4.246-1.738.605-.337.36-.506.898-.506 1.617v.528zm14.872 10.934c-1.13 0-2.108-.227-2.937-.682a4.614 4.614 0 01-1.903-1.936c-.44-.836-.66-1.811-.66-2.926 0-1.115.231-2.101.693-2.959a4.858 4.858 0 011.969-1.991c.85-.47 1.833-.704 2.948-.704.763 0 1.507.121 2.233.363.726.242 1.309.568 1.749.979l-.792 1.936a5.229 5.229 0 00-1.441-.836 4.25 4.25 0 00-1.507-.286c-.953 0-1.694.297-2.222.891-.528.594-.792 1.448-.792 2.563 0 1.1.264 1.947.792 2.541.528.594 1.269.891 2.222.891a4.25 4.25 0 001.507-.286c.506-.19.986-.47 1.441-.836l.792 1.914c-.47.425-1.07.759-1.804 1.001a7.254 7.254 0 01-2.288.363zm10.45-11.198c1.51 0 2.633.367 3.366 1.1.733.733 1.1 1.863 1.1 3.388v6.534H664.7v-1.65a2.87 2.87 0 01-1.177 1.342c-.535.323-1.155.484-1.859.484a4.317 4.317 0 01-1.958-.44 3.483 3.483 0 01-1.386-1.21 3.057 3.057 0 01-.506-1.716c0-.792.202-1.415.605-1.87.403-.455 1.06-.785 1.969-.99.91-.205 2.163-.308 3.762-.308h.55v-.506c0-.733-.158-1.261-.473-1.584-.315-.323-.84-.484-1.573-.484-.572 0-1.17.099-1.793.297a9.068 9.068 0 00-1.837.825l-.77-1.892c.601-.381 1.327-.697 2.178-.946a8.581 8.581 0 012.42-.374zm-.638 9.218c.733 0 1.331-.246 1.793-.737.462-.491.693-1.126.693-1.903v-.462h-.396c-.983 0-1.745.044-2.288.132-.543.088-.931.242-1.166.462-.235.22-.352.52-.352.902 0 .47.161.854.484 1.155.323.3.733.451 1.232.451zm13.398-.088c.323 0 .66-.022 1.012-.066l-.132 2.046c-.44.044-.843.066-1.21.066-1.51 0-2.625-.348-3.344-1.045-.719-.697-1.078-1.734-1.078-3.113v-4.686h-2.068v-2.068h2.068v-3.212h2.75v3.212h2.838v2.068h-2.838v4.642c0 1.437.667 2.156 2.002 2.156zm2.618 1.892v-10.758h2.75v10.758h-2.75zm-.154-15.752h3.036v2.706h-3.036v-2.706zm10.648 15.928c-1.1 0-2.064-.227-2.893-.682a4.719 4.719 0 01-1.925-1.958c-.455-.85-.682-1.84-.682-2.97 0-1.13.227-2.116.682-2.959a4.735 4.735 0 011.925-1.947c.829-.455 1.793-.682 2.893-.682 1.1 0 2.064.227 2.893.682a4.666 4.666 0 011.914 1.947c.447.843.671 1.83.671 2.959 0 1.13-.224 2.12-.671 2.97a4.65 4.65 0 01-1.914 1.958c-.829.455-1.793.682-2.893.682zm-.022-2.134c.895 0 1.577-.293 2.046-.88.47-.587.704-1.452.704-2.596 0-1.13-.235-1.991-.704-2.585-.47-.594-1.144-.891-2.024-.891-.88 0-1.558.297-2.035.891-.477.594-.715 1.456-.715 2.585 0 1.144.235 2.01.704 2.596.47.587 1.144.88 2.024.88zm14.014-9.064c1.29 0 2.251.367 2.882 1.1.63.733.946 1.84.946 3.322v6.6h-2.75v-6.446c0-.836-.158-1.445-.473-1.826-.315-.381-.81-.572-1.485-.572-.792 0-1.426.25-1.903.748-.477.499-.715 1.166-.715 2.002v6.094h-2.75v-10.758h2.684v1.606a3.72 3.72 0 011.474-1.386c.616-.323 1.313-.484 2.09-.484zm9.46 7.986v2.002c0 .763-.132 1.456-.396 2.079-.264.623-.711 1.25-1.342 1.881l-1.122-.88c.69-.733 1.085-1.415 1.188-2.046h-1.408v-3.036h3.08zm12.474 3.036v-13.178h-5.06v-2.332h12.958v2.332h-5.06v13.178h-2.838zm19.03-4.884h-7.326c.088.997.389 1.738.902 2.222s1.247.726 2.2.726c1.188 0 2.273-.381 3.256-1.144l.792 1.892c-.499.41-1.126.74-1.881.99a7.225 7.225 0 01-2.277.374c-1.76 0-3.15-.499-4.169-1.496-1.02-.997-1.529-2.361-1.529-4.092 0-1.1.22-2.075.66-2.926a4.8 4.8 0 011.859-1.98c.8-.47 1.705-.704 2.717-.704 1.481 0 2.651.477 3.509 1.43.858.953 1.287 2.266 1.287 3.938v.77zm-4.73-4.202c-.733 0-1.324.235-1.771.704-.447.47-.722 1.144-.825 2.024h4.972c-.03-.895-.25-1.573-.66-2.035-.41-.462-.983-.693-1.716-.693zm10.934 9.262c-.953 0-1.83-.117-2.629-.352-.8-.235-1.478-.572-2.035-1.012l.77-1.914c1.144.836 2.457 1.254 3.938 1.254.63 0 1.111-.103 1.441-.308a.979.979 0 00.495-.88c0-.323-.114-.572-.341-.748-.227-.176-.634-.337-1.221-.484l-1.76-.396c-.997-.22-1.738-.58-2.222-1.078-.484-.499-.726-1.144-.726-1.936 0-.66.187-1.243.561-1.749.374-.506.895-.898 1.562-1.177s1.441-.418 2.321-.418a7 7 0 012.211.352 6.134 6.134 0 011.881.99l-.77 1.87c-1.115-.807-2.23-1.21-3.344-1.21-.601 0-1.07.11-1.408.33-.337.22-.506.528-.506.924 0 .293.106.535.319.726.213.19.554.337 1.023.44l1.826.418c1.07.235 1.855.605 2.354 1.111.499.506.748 1.17.748 1.991 0 .997-.403 1.79-1.21 2.376-.807.587-1.9.88-3.278.88zm12.21-2.068c.323 0 .66-.022 1.012-.066l-.132 2.046c-.44.044-.843.066-1.21.066-1.51 0-2.625-.348-3.344-1.045-.719-.697-1.078-1.734-1.078-3.113v-4.686h-2.068v-2.068h2.068v-3.212h2.75v3.212h2.838v2.068h-2.838v4.642c0 1.437.667 2.156 2.002 2.156zm2.618 1.892v-10.758h2.75v10.758h-2.75zm-.154-15.752h3.036v2.706h-3.036v-2.706zm11.99 4.73c1.29 0 2.251.367 2.882 1.1.63.733.946 1.84.946 3.322v6.6h-2.75v-6.446c0-.836-.158-1.445-.473-1.826-.315-.381-.81-.572-1.485-.572-.792 0-1.426.25-1.903.748-.477.499-.715 1.166-.715 2.002v6.094h-2.75v-10.758h2.684v1.606a3.72 3.72 0 011.474-1.386c.616-.323 1.313-.484 2.09-.484zm17.094.264v9.768c0 1.687-.466 2.963-1.397 3.828-.931.865-2.306 1.298-4.125 1.298a10 10 0 01-2.706-.363c-.865-.242-1.62-.583-2.266-1.023l.77-1.936c1.335.807 2.713 1.21 4.136 1.21 1.907 0 2.86-.939 2.86-2.816v-1.408a3.36 3.36 0 01-1.408 1.397c-.616.33-1.32.495-2.112.495-.939 0-1.771-.224-2.497-.671-.726-.447-1.294-1.074-1.705-1.881-.41-.807-.616-1.738-.616-2.794s.202-1.991.605-2.805c.403-.814.972-1.445 1.705-1.892.733-.447 1.57-.671 2.508-.671.792 0 1.496.165 2.112.495a3.36 3.36 0 011.408 1.397v-1.628h2.728zm-5.522 8.316c.88 0 1.566-.286 2.057-.858.491-.572.737-1.357.737-2.354 0-1.012-.246-1.804-.737-2.376-.491-.572-1.177-.858-2.057-.858-.865 0-1.547.286-2.046.858-.499.572-.748 1.364-.748 2.376 0 .983.25 1.764.748 2.343.499.58 1.18.869 2.046.869zm-147.103 32.442l-1.628-1.672a7.212 7.212 0 01-2.167 1.364c-.8.323-1.639.484-2.519.484-1.041 0-1.965-.18-2.772-.539-.807-.36-1.434-.858-1.881-1.496-.447-.638-.671-1.375-.671-2.211 0-.924.26-1.753.781-2.486.52-.733 1.353-1.423 2.497-2.068-.572-.63-.986-1.21-1.243-1.738a3.73 3.73 0 01-.385-1.65c0-1.1.392-1.984 1.177-2.651.785-.667 1.808-1.001 3.069-1.001 1.173 0 2.108.304 2.805.913.697.609 1.045 1.426 1.045 2.453 0 .792-.227 1.5-.682 2.123-.455.623-1.203 1.25-2.244 1.881l3.058 3.124c.601-1.188.931-2.574.99-4.158h2.288c-.088 2.259-.638 4.202-1.65 5.83l3.41 3.498h-3.278zm-5.72-13.772c-.543 0-.975.158-1.298.473-.323.315-.484.737-.484 1.265 0 .352.088.69.264 1.012.176.323.513.748 1.012 1.276.777-.44 1.32-.847 1.628-1.221.308-.374.462-.781.462-1.221 0-.484-.147-.869-.44-1.155-.293-.286-.675-.429-1.144-.429zm-.506 11.814c1.159 0 2.185-.425 3.08-1.276l-3.784-3.916c-.719.44-1.236.891-1.551 1.353a2.761 2.761 0 00-.473 1.595c0 .69.246 1.236.737 1.639s1.155.605 1.991.605zm21.604 2.156a11.24 11.24 0 01-3.344-.484c-1.041-.323-1.921-.777-2.64-1.364l.946-2.068c.748.572 1.536.99 2.365 1.254a8.834 8.834 0 002.695.396c1.07 0 1.896-.187 2.475-.561.58-.374.869-.898.869-1.573 0-.587-.268-1.034-.803-1.342-.535-.308-1.426-.601-2.673-.88-1.29-.279-2.34-.601-3.146-.968-.807-.367-1.415-.836-1.826-1.408-.41-.572-.616-1.298-.616-2.178 0-.91.25-1.723.748-2.442.499-.719 1.203-1.28 2.112-1.683.91-.403 1.958-.605 3.146-.605 1.085 0 2.12.165 3.102.495.983.33 1.79.781 2.42 1.353l-.946 2.068c-1.379-1.1-2.904-1.65-4.576-1.65-.997 0-1.786.202-2.365.605-.58.403-.869.964-.869 1.683 0 .601.257 1.063.77 1.386.513.323 1.386.623 2.618.902 1.305.293 2.365.62 3.179.979.814.36 1.437.818 1.87 1.375.433.557.649 1.261.649 2.112 0 .924-.246 1.734-.737 2.431-.491.697-1.203 1.232-2.134 1.606-.931.374-2.028.561-3.289.561zm8.536-.198v-10.758h2.75v10.758h-2.75zm-.154-15.752h3.036v2.706h-3.036v-2.706zm18.524 4.73c1.217 0 2.127.363 2.728 1.089.601.726.902 1.837.902 3.333v6.6h-2.75v-6.49c0-.821-.14-1.419-.418-1.793-.279-.374-.726-.561-1.342-.561-.733 0-1.305.25-1.716.748-.41.499-.616 1.195-.616 2.09v6.006h-2.75v-6.49c0-.821-.136-1.419-.407-1.793-.271-.374-.722-.561-1.353-.561-.719 0-1.283.25-1.694.748-.41.499-.616 1.195-.616 2.09v6.006h-2.75v-10.758h2.684v1.518c.323-.587.77-1.03 1.342-1.331.572-.3 1.225-.451 1.958-.451 1.628 0 2.706.675 3.234 2.024a3.675 3.675 0 011.452-1.485 4.19 4.19 0 012.112-.539zm16.302.264v10.758h-2.684v-1.65a3.505 3.505 0 01-1.364 1.353c-.572.315-1.217.473-1.936.473-2.64 0-3.96-1.481-3.96-4.444v-6.49h2.75v6.512c0 .763.154 1.327.462 1.694.308.367.792.55 1.452.55.763 0 1.375-.253 1.837-.759.462-.506.693-1.177.693-2.013v-5.984h2.75zm2.86 10.758v-15.51h2.75v15.51h-2.75zm10.208-11.022c1.51 0 2.633.367 3.366 1.1.733.733 1.1 1.863 1.1 3.388v6.534h-2.618v-1.65a2.87 2.87 0 01-1.177 1.342c-.535.323-1.155.484-1.859.484a4.317 4.317 0 01-1.958-.44 3.483 3.483 0 01-1.386-1.21 3.057 3.057 0 01-.506-1.716c0-.792.202-1.415.605-1.87.403-.455 1.06-.785 1.969-.99.91-.205 2.163-.308 3.762-.308h.55v-.506c0-.733-.158-1.261-.473-1.584-.315-.323-.84-.484-1.573-.484-.572 0-1.17.099-1.793.297a9.068 9.068 0 00-1.837.825l-.77-1.892c.601-.381 1.327-.697 2.178-.946a8.581 8.581 0 012.42-.374zm-.638 9.218c.733 0 1.331-.246 1.793-.737.462-.491.693-1.126.693-1.903v-.462h-.396c-.983 0-1.745.044-2.288.132-.543.088-.931.242-1.166.462-.235.22-.352.52-.352.902 0 .47.161.854.484 1.155.323.3.733.451 1.232.451zm13.398-.088c.323 0 .66-.022 1.012-.066l-.132 2.046c-.44.044-.843.066-1.21.066-1.51 0-2.625-.348-3.344-1.045-.719-.697-1.078-1.734-1.078-3.113v-4.686h-2.068v-2.068h2.068v-3.212h2.75v3.212h2.838v2.068h-2.838v4.642c0 1.437.667 2.156 2.002 2.156zm2.618 1.892v-10.758h2.75v10.758h-2.75zm-.154-15.752h3.036v2.706h-3.036v-2.706zm10.648 15.928c-1.1 0-2.064-.227-2.893-.682a4.719 4.719 0 01-1.925-1.958c-.455-.85-.682-1.84-.682-2.97 0-1.13.227-2.116.682-2.959a4.735 4.735 0 011.925-1.947c.829-.455 1.793-.682 2.893-.682 1.1 0 2.064.227 2.893.682a4.666 4.666 0 011.914 1.947c.447.843.671 1.83.671 2.959 0 1.13-.224 2.12-.671 2.97a4.65 4.65 0 01-1.914 1.958c-.829.455-1.793.682-2.893.682zm-.022-2.134c.895 0 1.577-.293 2.046-.88.47-.587.704-1.452.704-2.596 0-1.13-.235-1.991-.704-2.585-.47-.594-1.144-.891-2.024-.891-.88 0-1.558.297-2.035.891-.477.594-.715 1.456-.715 2.585 0 1.144.235 2.01.704 2.596.47.587 1.144.88 2.024.88zm14.014-9.064c1.29 0 2.251.367 2.882 1.1.63.733.946 1.84.946 3.322v6.6h-2.75v-6.446c0-.836-.158-1.445-.473-1.826-.315-.381-.81-.572-1.485-.572-.792 0-1.426.25-1.903.748-.477.499-.715 1.166-.715 2.002v6.094h-2.75v-10.758h2.684v1.606a3.72 3.72 0 011.474-1.386c.616-.323 1.313-.484 2.09-.484zM595.266 128.984v-20.952c0-1.26.972-2.232 2.232-2.232h14.688c1.116 0 2.016.9 2.016 2.016s-.9 2.016-2.016 2.016h-12.492v6.876h10.872c1.116 0 2.016.9 2.016 2.016s-.9 2.016-2.016 2.016h-10.872v8.244a2.182 2.182 0 01-2.196 2.196c-1.26 0-2.232-.972-2.232-2.196zm23.616 0v-20.952c0-1.26.972-2.232 2.232-2.232h7.704c5.904 0 9.576 3.348 9.576 8.424v.072c0 5.652-4.536 8.604-10.08 8.604h-5.004v6.084a2.182 2.182 0 01-2.196 2.196c-1.26 0-2.232-.972-2.232-2.196zm4.428-10.08h5.148c3.348 0 5.436-1.872 5.436-4.5v-.072c0-2.952-2.124-4.5-5.436-4.5h-5.148v9.072zm31.572 12.528c-7.884 0-13.068-5.616-13.068-12.96v-.072c0-7.056 5.4-13.032 12.996-13.032 3.78 0 6.3.9 8.604 2.556.432.324.9.936.9 1.8a2.205 2.205 0 01-2.196 2.196c-.576 0-1.008-.252-1.368-.504-1.62-1.188-3.384-1.98-6.12-1.98-4.644 0-8.172 4.068-8.172 8.892v.072c0 5.184 3.42 9 8.568 9 2.376 0 4.536-.756 6.084-1.908v-4.716h-4.968c-1.08 0-1.98-.828-1.98-1.908s.9-1.944 1.98-1.944h7.02c1.26 0 2.232.972 2.232 2.232v6.732c0 1.26-.504 2.16-1.548 2.808-2.16 1.44-5.184 2.736-8.964 2.736zm14.544-2.304c0-.324.108-.648.288-1.008l9.36-20.88c.504-1.116 1.404-1.8 2.664-1.8h.216c1.26 0 2.124.684 2.628 1.8l9.36 20.88c.18.324.252.648.252.936 0 1.188-.9 2.124-2.088 2.124-1.044 0-1.764-.612-2.16-1.548l-2.052-4.716h-12.24l-2.124 4.86c-.36.9-1.116 1.404-2.052 1.404-1.152 0-2.052-.9-2.052-2.052zm7.92-8.136h8.856l-4.428-10.188-4.428 10.188zm38.304 10.332c-3.204 0-5.472-1.404-5.472-5.58v-10.008h-.72a1.86 1.86 0 01-1.872-1.872 1.86 1.86 0 011.872-1.872h.72v-3.24c0-1.188.972-2.16 2.196-2.16 1.188 0 2.16.972 2.16 2.16v3.24h3.42c1.044 0 1.908.828 1.908 1.872s-.864 1.872-1.908 1.872h-3.42v9.324c0 1.692.864 2.376 2.34 2.376.504 0 .936-.108 1.08-.108.972 0 1.836.792 1.836 1.8 0 .792-.54 1.44-1.152 1.692a8.665 8.665 0 01-2.988.504zm17.46.108c-5.796 0-10.08-4.428-10.08-9.828v-.072c0-5.436 4.32-9.936 10.152-9.936 5.832 0 10.116 4.428 10.116 9.864v.072c0 5.4-4.32 9.9-10.188 9.9zm.072-3.816c3.528 0 5.76-2.736 5.76-6.012v-.072c0-3.348-2.412-6.12-5.832-6.12-3.492 0-5.724 2.736-5.724 6.048v.072c0 3.312 2.412 6.084 5.796 6.084zm23.58 3.816c-5.796 0-10.08-4.428-10.08-9.828v-.072c0-5.436 4.32-9.936 10.152-9.936 5.832 0 10.116 4.428 10.116 9.864v.072c0 5.4-4.32 9.9-10.188 9.9zm.072-3.816c3.528 0 5.76-2.736 5.76-6.012v-.072c0-3.348-2.412-6.12-5.832-6.12-3.492 0-5.724 2.736-5.724 6.048v.072c0 3.312 2.412 6.084 5.796 6.084zm14.796 1.404V106.7c0-1.188.936-2.16 2.16-2.16 1.224 0 2.196.972 2.196 2.16v22.32c0 1.224-.972 2.16-2.196 2.16a2.143 2.143 0 01-2.16-2.16zm16.56 2.34c-2.412 0-5.04-.756-7.236-2.268-.468-.252-.828-.792-.828-1.512 0-.972.756-1.764 1.764-1.764.36 0 .684.108.936.252 1.836 1.224 3.744 1.836 5.472 1.836 1.872 0 2.952-.792 2.952-2.052v-.072c0-1.476-2.016-1.98-4.248-2.664-2.808-.792-5.94-1.944-5.94-5.58v-.072c0-3.6 2.988-5.796 6.768-5.796 2.016 0 4.14.576 5.976 1.548.612.324 1.044.9 1.044 1.656 0 1.008-.792 1.764-1.8 1.764-.36 0-.576-.072-.864-.216-1.548-.792-3.132-1.296-4.464-1.296-1.692 0-2.664.792-2.664 1.872v.072c0 1.404 2.052 1.98 4.284 2.7 2.772.864 5.904 2.124 5.904 5.544v.072c0 3.996-3.096 5.976-7.056 5.976z" fill="#5A2AB5" fill-rule="nonzero"/><path d="M3.25 39.75h384.501v-5h1.5v11.5h-1.5v-5H3.25v5h-1.5v-11.5h1.5v5zm416.996 0h548.505v-5h1.5v11.5h-1.5v-5H420.246v5h-1.5v-11.5h1.5v5z" fill="#959595" fill-rule="nonzero"/><path d="M61 480h591a8 8 0 018 8v50a8 8 0 01-8 8H61a8 8 0 01-8-8v-50a8 8 0 018-8z" fill="#5A2AB5"/><path d="M241.372 522l-1.704-3.96h-8.232l-1.704 3.96h-3.12l7.656-16.92h2.52l7.656 16.92h-3.072zm-8.928-6.36h6.192l-3.096-7.2-3.096 7.2zm21.264-3.168l-1.752.168c-1.984.208-2.976 1.216-2.976 3.024V522h-3v-11.736h2.856v2.064c.608-1.408 1.864-2.176 3.768-2.304l.912-.072.192 2.52zm6.816 9.72c-1.232 0-2.3-.248-3.204-.744a5.033 5.033 0 01-2.076-2.112c-.48-.912-.72-1.976-.72-3.192 0-1.216.252-2.292.756-3.228a5.3 5.3 0 012.148-2.172c.928-.512 2-.768 3.216-.768.832 0 1.644.132 2.436.396s1.428.62 1.908 1.068l-.864 2.112a5.704 5.704 0 00-1.572-.912 4.637 4.637 0 00-1.644-.312c-1.04 0-1.848.324-2.424.972-.576.648-.864 1.58-.864 2.796 0 1.2.288 2.124.864 2.772.576.648 1.384.972 2.424.972.544 0 1.092-.104 1.644-.312a5.704 5.704 0 001.572-.912l.864 2.088c-.512.464-1.168.828-1.968 1.092-.8.264-1.632.396-2.496.396zm13.176-12.216c1.408 0 2.456.4 3.144 1.2.688.8 1.032 2.008 1.032 3.624v7.2h-3v-7.032c0-.912-.172-1.576-.516-1.992-.344-.416-.884-.624-1.62-.624-.864 0-1.556.272-2.076.816-.52.544-.78 1.272-.78 2.184V522h-3v-16.92h3v6.816c.4-.624.932-1.1 1.596-1.428.664-.328 1.404-.492 2.22-.492zM280.924 522v-11.736h3V522h-3zm-.168-17.184h3.312v2.952h-3.312v-2.952zm12.264 15.12c.352 0 .72-.024 1.104-.072l-.144 2.232c-.48.048-.92.072-1.32.072-1.648 0-2.864-.38-3.648-1.14-.784-.76-1.176-1.892-1.176-3.396v-5.112h-2.256v-2.256h2.256v-3.504h3v3.504h3.096v2.256h-3.096v5.064c0 1.568.728 2.352 2.184 2.352zm13.152-3.264h-7.992c.096 1.088.424 1.896.984 2.424s1.36.792 2.4.792c1.296 0 2.48-.416 3.552-1.248l.864 2.064c-.544.448-1.228.808-2.052 1.08a7.881 7.881 0 01-2.484.408c-1.92 0-3.436-.544-4.548-1.632-1.112-1.088-1.668-2.576-1.668-4.464 0-1.2.24-2.264.72-3.192a5.235 5.235 0 012.028-2.16c.872-.512 1.86-.768 2.964-.768 1.616 0 2.892.52 3.828 1.56.936 1.04 1.404 2.472 1.404 4.296v.84zm-5.16-4.584c-.8 0-1.444.256-1.932.768s-.788 1.248-.9 2.208h5.424c-.032-.976-.272-1.716-.72-2.22-.448-.504-1.072-.756-1.872-.756zm12.96 10.104c-1.232 0-2.3-.248-3.204-.744a5.033 5.033 0 01-2.076-2.112c-.48-.912-.72-1.976-.72-3.192 0-1.216.252-2.292.756-3.228a5.3 5.3 0 012.148-2.172c.928-.512 2-.768 3.216-.768.832 0 1.644.132 2.436.396s1.428.62 1.908 1.068l-.864 2.112a5.704 5.704 0 00-1.572-.912 4.637 4.637 0 00-1.644-.312c-1.04 0-1.848.324-2.424.972-.576.648-.864 1.58-.864 2.796 0 1.2.288 2.124.864 2.772.576.648 1.384.972 2.424.972.544 0 1.092-.104 1.644-.312a5.704 5.704 0 001.572-.912l.864 2.088c-.512.464-1.168.828-1.968 1.092-.8.264-1.632.396-2.496.396zm12.36-2.256c.352 0 .72-.024 1.104-.072l-.144 2.232c-.48.048-.92.072-1.32.072-1.648 0-2.864-.38-3.648-1.14-.784-.76-1.176-1.892-1.176-3.396v-5.112h-2.256v-2.256h2.256v-3.504h3v3.504h3.096v2.256h-3.096v5.064c0 1.568.728 2.352 2.184 2.352zm13.632-9.672V522h-2.928v-1.8a3.823 3.823 0 01-1.488 1.476c-.624.344-1.328.516-2.112.516-2.88 0-4.32-1.616-4.32-4.848v-7.08h3v7.104c0 .832.168 1.448.504 1.848.336.4.864.6 1.584.6.832 0 1.5-.276 2.004-.828.504-.552.756-1.284.756-2.196v-6.528h3zm10.848 2.208l-1.752.168c-1.984.208-2.976 1.216-2.976 3.024V522h-3v-11.736h2.856v2.064c.608-1.408 1.864-2.176 3.768-2.304l.912-.072.192 2.52zm11.76 4.2h-7.992c.096 1.088.424 1.896.984 2.424s1.36.792 2.4.792c1.296 0 2.48-.416 3.552-1.248l.864 2.064c-.544.448-1.228.808-2.052 1.08a7.881 7.881 0 01-2.484.408c-1.92 0-3.436-.544-4.548-1.632-1.112-1.088-1.668-2.576-1.668-4.464 0-1.2.24-2.264.72-3.192a5.235 5.235 0 012.028-2.16c.872-.512 1.86-.768 2.964-.768 1.616 0 2.892.52 3.828 1.56.936 1.04 1.404 2.472 1.404 4.296v.84zm-5.16-4.584c-.8 0-1.444.256-1.932.768s-.788 1.248-.9 2.208h5.424c-.032-.976-.272-1.716-.72-2.22-.448-.504-1.072-.756-1.872-.756zm25.44-7.008V522h-2.976v-1.896a3.757 3.757 0 01-1.524 1.536c-.664.368-1.42.552-2.268.552-1.008 0-1.908-.256-2.7-.768-.792-.512-1.408-1.236-1.848-2.172-.44-.936-.66-2.012-.66-3.228 0-1.216.22-2.28.66-3.192.44-.912 1.052-1.616 1.836-2.112s1.688-.744 2.712-.744c.848 0 1.6.176 2.256.528.656.352 1.16.848 1.512 1.488v-6.912h3zm-5.976 14.784c.96 0 1.7-.328 2.22-.984.52-.656.78-1.592.78-2.808 0-1.216-.26-2.148-.78-2.796-.52-.648-1.252-.972-2.196-.972-.96 0-1.704.32-2.232.96-.528.64-.792 1.56-.792 2.76 0 1.216.264 2.16.792 2.832.528.672 1.264 1.008 2.208 1.008zm19.368-3.192h-7.992c.096 1.088.424 1.896.984 2.424s1.36.792 2.4.792c1.296 0 2.48-.416 3.552-1.248l.864 2.064c-.544.448-1.228.808-2.052 1.08a7.881 7.881 0 01-2.484.408c-1.92 0-3.436-.544-4.548-1.632-1.112-1.088-1.668-2.576-1.668-4.464 0-1.2.24-2.264.72-3.192a5.235 5.235 0 012.028-2.16c.872-.512 1.86-.768 2.964-.768 1.616 0 2.892.52 3.828 1.56.936 1.04 1.404 2.472 1.404 4.296v.84zm-5.16-4.584c-.8 0-1.444.256-1.932.768s-.788 1.248-.9 2.208h5.424c-.032-.976-.272-1.716-.72-2.22-.448-.504-1.072-.756-1.872-.756zm16.008-7.296h3.36v3h-3.36v-3zm-4.584 5.472h7.752V522h-3v-9.48h-4.752V522h-3v-9.48h-2.256v-2.256h2.256c0-1.696.448-2.972 1.344-3.828.896-.856 2.248-1.324 4.056-1.404l1.032-.048.144 2.232-1.128.048c-.896.048-1.528.268-1.896.66-.368.392-.552.98-.552 1.764v.576zm17.688-.288c1.408 0 2.456.4 3.144 1.2.688.8 1.032 2.008 1.032 3.624v7.2h-3v-7.032c0-.912-.172-1.576-.516-1.992-.344-.416-.884-.624-1.62-.624-.864 0-1.556.272-2.076.816-.52.544-.78 1.272-.78 2.184V522h-3v-11.736h2.928v1.752c.4-.656.936-1.16 1.608-1.512.672-.352 1.432-.528 2.28-.528zM427.42 522v-11.736h3V522h-3zm-.168-17.184h3.312v2.952h-3.312v-2.952zm12.264 15.12c.352 0 .72-.024 1.104-.072l-.144 2.232c-.48.048-.92.072-1.32.072-1.648 0-2.864-.38-3.648-1.14-.784-.76-1.176-1.892-1.176-3.396v-5.112h-2.256v-2.256h2.256v-3.504h3v3.504h3.096v2.256h-3.096v5.064c0 1.568.728 2.352 2.184 2.352zm2.856 2.064v-11.736h3V522h-3zm-.168-17.184h3.312v2.952h-3.312v-2.952zm11.616 17.376c-1.2 0-2.252-.248-3.156-.744a5.148 5.148 0 01-2.1-2.136c-.496-.928-.744-2.008-.744-3.24 0-1.232.248-2.308.744-3.228a5.166 5.166 0 012.1-2.124c.904-.496 1.956-.744 3.156-.744 1.2 0 2.252.248 3.156.744a5.09 5.09 0 012.088 2.124c.488.92.732 1.996.732 3.228 0 1.232-.244 2.312-.732 3.24a5.074 5.074 0 01-2.088 2.136c-.904.496-1.956.744-3.156.744zm-.024-2.328c.976 0 1.72-.32 2.232-.96.512-.64.768-1.584.768-2.832 0-1.232-.256-2.172-.768-2.82-.512-.648-1.248-.972-2.208-.972-.96 0-1.7.324-2.22.972-.52.648-.78 1.588-.78 2.82 0 1.248.256 2.192.768 2.832.512.64 1.248.96 2.208.96zm15.288-9.888c1.408 0 2.456.4 3.144 1.2.688.8 1.032 2.008 1.032 3.624v7.2h-3v-7.032c0-.912-.172-1.576-.516-1.992-.344-.416-.884-.624-1.62-.624-.864 0-1.556.272-2.076.816-.52.544-.78 1.272-.78 2.184V522h-3v-11.736h2.928v1.752c.4-.656.936-1.16 1.608-1.512.672-.352 1.432-.528 2.28-.528zm11.544 12.216c-1.04 0-1.996-.128-2.868-.384-.872-.256-1.612-.624-2.22-1.104l.84-2.088c1.248.912 2.68 1.368 4.296 1.368.688 0 1.212-.112 1.572-.336.36-.224.54-.544.54-.96 0-.352-.124-.624-.372-.816-.248-.192-.692-.368-1.332-.528l-1.92-.432c-1.088-.24-1.896-.632-2.424-1.176-.528-.544-.792-1.248-.792-2.112 0-.72.204-1.356.612-1.908.408-.552.976-.98 1.704-1.284.728-.304 1.572-.456 2.532-.456a7.65 7.65 0 012.412.384c.776.256 1.46.616 2.052 1.08l-.84 2.04c-1.216-.88-2.432-1.32-3.648-1.32-.656 0-1.168.12-1.536.36-.368.24-.552.576-.552 1.008 0 .32.116.584.348.792.232.208.604.368 1.116.48l1.992.456c1.168.256 2.024.66 2.568 1.212.544.552.816 1.276.816 2.172 0 1.088-.44 1.952-1.32 2.592-.88.64-2.072.96-3.576.96z" fill="#FFF" fill-rule="nonzero"/></g></g></svg>