<svg width="1194" height="1062" viewBox="0 0 1194 1062" xmlns="http://www.w3.org/2000/svg" xmlns:xlink="http://www.w3.org/1999/xlink"><defs><filter x="-1.2%" y="-1.3%" width="102.7%" height="103.1%" filterUnits="objectBoundingBox" id="a"><feOffset dx="2" dy="2" in="SourceAlpha" result="shadowOffsetOuter1"/><feGaussianBlur stdDeviation="5" in="shadowOffsetOuter1" result="shadowBlurOuter1"/><feColorMatrix values="0 0 0 0 0 0 0 0 0 0 0 0 0 0 0 0 0 0 0.2 0" in="shadowBlurOuter1"/></filter><rect id="b" x="0" y="0" width="1174" height="1042" rx="10"/></defs><g fill="none" fill-rule="evenodd"><g transform="translate(8 8)"><use fill="#000" filter="url(#a)" xlink:href="#b"/><use fill="#FFF" xlink:href="#b"/></g><g transform="translate(121 88)"><path fill-opacity=".08" fill="#D8D8D8" d="M0 155h945v97H0zm0 511h945v77H0zm0-306h945v97H0z"/><path d="M309.676 34.76h6.885c.983 0 1.933.1 2.849.3.916.2 1.721.535 2.416 1.005.694.47 1.248 1.1 1.663 1.89.415.79.622 1.775.622 2.955 0 1.34-.222 2.42-.665 3.24-.444.82-1.042 1.455-1.794 1.905-.752.45-1.625.755-2.618.915-.993.16-2.03.24-3.11.24h-2.603V56h-3.645V34.76zm5.843 9.21c.52 0 1.06-.02 1.62-.06.56-.04 1.075-.16 1.548-.36.472-.2.858-.5 1.157-.9.299-.4.448-.96.448-1.68 0-.66-.135-1.185-.405-1.575a2.71 2.71 0 00-1.041-.9 4.273 4.273 0 00-1.418-.405 13.15 13.15 0 00-1.504-.09h-2.603v5.97h2.198zm11.514-2.37h3.471v2.28h.058c.386-.84.935-1.49 1.649-1.95.713-.46 1.533-.69 2.459-.69.212 0 .42.02.622.06.202.04.41.09.622.15v3.48a9.43 9.43 0 00-.854-.195 4.678 4.678 0 00-.824-.075c-.81 0-1.461.155-1.953.465-.492.31-.868.665-1.128 1.065-.26.4-.434.8-.52 1.2-.087.4-.13.7-.13.9V56h-3.472V41.6zm10.559 7.2c0-1.14.197-2.175.593-3.105.395-.93.93-1.725 1.605-2.385a7.04 7.04 0 012.401-1.53c.926-.36 1.91-.54 2.951-.54 1.041 0 2.025.18 2.95.54a7.04 7.04 0 012.402 1.53 7.268 7.268 0 011.605 2.385c.396.93.593 1.965.593 3.105s-.197 2.175-.593 3.105a7.268 7.268 0 01-1.605 2.385 7.04 7.04 0 01-2.401 1.53c-.926.36-1.91.54-2.951.54a8.069 8.069 0 01-2.95-.54 7.04 7.04 0 01-2.402-1.53 7.268 7.268 0 01-1.605-2.385c-.396-.93-.593-1.965-.593-3.105zm3.471 0c0 .56.092 1.1.275 1.62a4.043 4.043 0 002.097 2.34c.502.24 1.07.36 1.707.36.636 0 1.205-.12 1.707-.36a4.043 4.043 0 002.097-2.34 4.84 4.84 0 00.275-1.62c0-.56-.092-1.1-.275-1.62a4.043 4.043 0 00-2.097-2.34c-.502-.24-1.07-.36-1.707-.36-.636 0-1.205.12-1.707.36a4.043 4.043 0 00-2.097 2.34 4.84 4.84 0 00-.275 1.62zm18.399-7.2v15.27c0 .9-.058 1.735-.174 2.505-.116.77-.342 1.44-.68 2.01a3.49 3.49 0 01-1.432 1.335c-.617.32-1.417.48-2.4.48-.329 0-.647-.02-.955-.06a5.143 5.143 0 01-.926-.21l.26-3.12c.193.04.376.075.55.105.173.03.357.045.55.045.424 0 .756-.095.998-.285.24-.19.414-.435.52-.735.106-.3.169-.63.188-.99.02-.36.03-.71.03-1.05V41.6h3.47zm-3.964-4.89c0-.58.208-1.085.622-1.515.415-.43.94-.645 1.577-.645.636 0 1.172.205 1.606.615.433.41.65.925.65 1.545 0 .62-.217 1.135-.65 1.545-.434.41-.97.615-1.606.615-.636 0-1.162-.215-1.577-.645a2.112 2.112 0 01-.622-1.515zm10.733 13.35c.116 1.08.52 1.92 1.215 2.52.694.6 1.533.9 2.517.9.868 0 1.596-.185 2.184-.555a6.125 6.125 0 001.547-1.395l2.488 1.95c-.81 1.04-1.716 1.78-2.719 2.22a7.765 7.765 0 01-3.153.66 8.069 8.069 0 01-2.95-.54 7.04 7.04 0 01-2.402-1.53 7.268 7.268 0 01-1.606-2.385c-.395-.93-.593-1.965-.593-3.105s.198-2.175.594-3.105c.395-.93.93-1.725 1.605-2.385a7.04 7.04 0 012.401-1.53c.926-.36 1.91-.54 2.95-.54.965 0 1.847.175 2.648.525.8.35 1.485.855 2.054 1.515.569.66 1.012 1.475 1.33 2.445.319.97.478 2.085.478 3.345v.99H366.23zm7.116-2.7c-.019-1.06-.337-1.895-.954-2.505-.617-.61-1.476-.915-2.575-.915-1.041 0-1.866.31-2.473.93-.608.62-.98 1.45-1.114 2.49h7.116zm16.2-1.44a5.568 5.568 0 00-1.273-1.05 2.659 2.659 0 00-1.36-.39c-.636 0-1.205.12-1.706.36a4.043 4.043 0 00-2.097 2.34 4.84 4.84 0 00-.275 1.62c0 .56.091 1.1.275 1.62a4.043 4.043 0 002.097 2.34c.501.24 1.07.36 1.707.36.54 0 1.041-.115 1.504-.345a3.3 3.3 0 001.186-1.005l2.314 2.58c-.347.36-.747.67-1.2.93a8.14 8.14 0 01-2.705.975 6.89 6.89 0 01-1.1.105 8.069 8.069 0 01-2.95-.54 7.04 7.04 0 01-2.401-1.53 7.268 7.268 0 01-1.606-2.385c-.395-.93-.593-1.965-.593-3.105s.198-2.175.594-3.105c.395-.93.93-1.725 1.605-2.385a7.04 7.04 0 012.401-1.53c.926-.36 1.91-.54 2.95-.54.888 0 1.78.175 2.677.525.897.35 1.682.905 2.357 1.665l-2.4 2.49zm2.835-1.26V41.6h2.864v-4.17h3.472v4.17h3.818v3.06h-3.818v6.3c0 .72.13 1.29.39 1.71.26.42.776.63 1.548.63.308 0 .646-.035 1.012-.105.367-.07.656-.185.868-.345v3.03c-.366.18-.815.305-1.345.375s-.998.105-1.403.105c-.926 0-1.683-.105-2.27-.315-.59-.21-1.052-.53-1.39-.96-.337-.43-.568-.965-.694-1.605-.125-.64-.188-1.38-.188-2.22v-6.6h-2.864zm-95.102 31.1h3.645V97h-3.645V75.76zm17.299 11.16a5.59 5.59 0 00-1.273-1.05 2.659 2.659 0 00-1.36-.39c-.636 0-1.205.12-1.706.36a4.043 4.043 0 00-2.098 2.34 4.84 4.84 0 00-.274 1.62c0 .56.091 1.1.274 1.62a4.043 4.043 0 002.097 2.34c.502.24 1.071.36 1.707.36.54 0 1.042-.115 1.505-.345a3.3 3.3 0 001.186-1.005l2.314 2.58c-.347.36-.747.67-1.2.93a8.14 8.14 0 01-2.705.975 6.89 6.89 0 01-1.1.105 8.069 8.069 0 01-2.95-.54 7.04 7.04 0 01-2.401-1.53 7.268 7.268 0 01-1.606-2.385c-.395-.93-.593-1.965-.593-3.105s.198-2.175.593-3.105c.395-.93.93-1.725 1.606-2.385a7.04 7.04 0 012.4-1.53c.926-.36 1.91-.54 2.951-.54.888 0 1.78.175 2.676.525.897.35 1.683.905 2.358 1.665l-2.401 2.49zm7.232 4.14c.116 1.08.52 1.92 1.215 2.52.694.6 1.533.9 2.517.9.868 0 1.596-.185 2.184-.555a6.125 6.125 0 001.548-1.395l2.488 1.95c-.81 1.04-1.717 1.78-2.72 2.22a7.765 7.765 0 01-3.153.66 8.069 8.069 0 01-2.95-.54 7.04 7.04 0 01-2.402-1.53 7.268 7.268 0 01-1.605-2.385c-.396-.93-.593-1.965-.593-3.105s.197-2.175.593-3.105c.395-.93.93-1.725 1.605-2.385a7.04 7.04 0 012.401-1.53c.926-.36 1.91-.54 2.951-.54.964 0 1.847.175 2.647.525.8.35 1.485.855 2.054 1.515.569.66 1.012 1.475 1.33 2.445.319.97.478 2.085.478 3.345v.99H321.81zm7.117-2.7c-.02-1.06-.338-1.895-.955-2.505-.617-.61-1.475-.915-2.575-.915-1.041 0-1.866.31-2.473.93-.608.62-.979 1.45-1.114 2.49h7.117zm17.067-8.04a3.387 3.387 0 00-1.547-1.275 5.236 5.236 0 00-2.04-.405c-.424 0-.834.05-1.23.15-.395.1-.751.26-1.07.48-.318.22-.573.505-.766.855-.193.35-.29.765-.29 1.245 0 .72.242 1.27.724 1.65.482.38 1.08.71 1.793.99.714.28 1.495.55 2.344.81.848.26 1.63.62 2.343 1.08a5.901 5.901 0 011.793 1.83c.482.76.724 1.77.724 3.03 0 1.14-.203 2.135-.608 2.985a6.048 6.048 0 01-1.634 2.115c-.685.56-1.48.98-2.387 1.26s-1.861.42-2.864.42c-1.273 0-2.497-.22-3.674-.66-1.176-.44-2.189-1.18-3.037-2.22l2.748-2.76a4.659 4.659 0 001.75 1.635c.723.39 1.49.585 2.3.585.424 0 .848-.06 1.273-.18.424-.12.81-.3 1.157-.54.347-.24.627-.545.839-.915.212-.37.318-.795.318-1.275 0-.78-.241-1.38-.723-1.8-.482-.42-1.08-.775-1.794-1.065a28.107 28.107 0 00-2.343-.825 9.692 9.692 0 01-2.343-1.065 5.798 5.798 0 01-1.794-1.8c-.482-.75-.723-1.755-.723-3.015 0-1.1.217-2.05.65-2.85a6.107 6.107 0 011.708-1.995 7.337 7.337 0 012.415-1.185c.907-.26 1.832-.39 2.777-.39 1.08 0 2.127.17 3.139.51 1.013.34 1.924.9 2.734 1.68l-2.662 2.91zm4.629 5.34V82.6h2.864v-4.17h3.471v4.17h3.819v3.06h-3.819v6.3c0 .72.13 1.29.39 1.71.261.42.777.63 1.548.63.31 0 .647-.035 1.013-.105.366-.07.656-.185.868-.345v3.03c-.367.18-.815.305-1.345.375s-.998.105-1.403.105c-.926 0-1.683-.105-2.271-.315-.588-.21-1.051-.53-1.389-.96-.337-.43-.569-.965-.694-1.605s-.188-1.38-.188-2.22v-6.6h-2.864zm12.179 4.14c0-1.14.198-2.175.593-3.105.395-.93.93-1.725 1.605-2.385a7.04 7.04 0 012.401-1.53c.926-.36 1.91-.54 2.951-.54a8.06 8.06 0 012.95.54 7.04 7.04 0 012.402 1.53 7.268 7.268 0 011.606 2.385c.395.93.593 1.965.593 3.105s-.198 2.175-.593 3.105a7.268 7.268 0 01-1.606 2.385 7.04 7.04 0 01-2.401 1.53c-.926.36-1.91.54-2.95.54a8.069 8.069 0 01-2.952-.54 7.04 7.04 0 01-2.4-1.53 7.268 7.268 0 01-1.606-2.385c-.395-.93-.593-1.965-.593-3.105zm3.471 0c0 .56.092 1.1.275 1.62a4.043 4.043 0 002.097 2.34c.502.24 1.07.36 1.707.36s1.206-.12 1.707-.36a4.043 4.043 0 002.097-2.34 4.84 4.84 0 00.275-1.62c0-.56-.091-1.1-.275-1.62a4.043 4.043 0 00-2.097-2.34c-.501-.24-1.07-.36-1.707-.36-.636 0-1.205.12-1.707.36a4.043 4.043 0 00-2.097 2.34 4.84 4.84 0 00-.275 1.62zm14.87-7.2h3.471v2.28h.058c.386-.84.935-1.49 1.649-1.95.713-.46 1.533-.69 2.459-.69.212 0 .42.02.622.06.202.04.41.09.622.15v3.48a9.43 9.43 0 00-.854-.195 4.678 4.678 0 00-.824-.075c-.81 0-1.461.155-1.953.465-.492.31-.868.665-1.128 1.065-.26.4-.434.8-.52 1.2-.088.4-.131.7-.131.9V97h-3.471V82.6zm11.108 0h3.298v2.25h.058c.308-.68.805-1.285 1.49-1.815.684-.53 1.605-.795 2.762-.795 2.18 0 3.626.89 4.34 2.67.501-.92 1.128-1.595 1.88-2.025.752-.43 1.649-.645 2.69-.645.926 0 1.707.16 2.344.48a4.13 4.13 0 011.547 1.32c.396.56.68 1.215.854 1.965.173.75.26 1.555.26 2.415V97h-3.471v-8.16c0-.44-.039-.865-.116-1.275a3.115 3.115 0 00-.405-1.08 2.083 2.083 0 00-.781-.735c-.328-.18-.752-.27-1.273-.27-.54 0-.998.105-1.374.315-.376.21-.685.49-.926.84s-.415.75-.52 1.2a5.93 5.93 0 00-.16 1.365V97h-3.471v-8.58c0-.9-.183-1.615-.55-2.145-.366-.53-.974-.795-1.822-.795-.579 0-1.066.1-1.461.3-.396.2-.723.47-.984.81-.26.34-.448.73-.564 1.17-.116.44-.173.9-.173 1.38V97h-3.472V82.6zm151.745-47.84h6.885c.984 0 1.933.1 2.85.3.916.2 1.72.535 2.415 1.005.694.47 1.249 1.1 1.663 1.89.415.79.622 1.775.622 2.955 0 1.34-.221 2.42-.665 3.24-.444.82-1.041 1.455-1.794 1.905-.752.45-1.624.755-2.618.915-.993.16-2.03.24-3.11.24h-2.603V56h-3.645V34.76zm5.844 9.21c.52 0 1.06-.02 1.62-.06a4.82 4.82 0 001.547-.36c.473-.2.858-.5 1.157-.9.3-.4.449-.96.449-1.68 0-.66-.135-1.185-.405-1.575-.27-.39-.617-.69-1.042-.9a4.273 4.273 0 00-1.417-.405 13.15 13.15 0 00-1.504-.09h-2.604v5.97h2.199zm11.513-2.37h3.472v2.28h.057c.386-.84.936-1.49 1.65-1.95.713-.46 1.533-.69 2.458-.69.212 0 .42.02.622.06.203.04.41.09.622.15v3.48a9.43 9.43 0 00-.853-.195 4.678 4.678 0 00-.825-.075c-.81 0-1.46.155-1.952.465-.492.31-.868.665-1.129 1.065-.26.4-.433.8-.52 1.2-.087.4-.13.7-.13.9V56h-3.472V41.6zm10.559 7.2c0-1.14.198-2.175.593-3.105.395-.93.93-1.725 1.606-2.385a7.04 7.04 0 012.4-1.53c.926-.36 1.91-.54 2.951-.54a8.07 8.07 0 012.951.54 7.04 7.04 0 012.401 1.53 7.268 7.268 0 011.606 2.385c.395.93.593 1.965.593 3.105s-.198 2.175-.593 3.105a7.268 7.268 0 01-1.606 2.385 7.04 7.04 0 01-2.4 1.53c-.927.36-1.91.54-2.952.54a8.069 8.069 0 01-2.95-.54 7.04 7.04 0 01-2.401-1.53 7.268 7.268 0 01-1.606-2.385c-.395-.93-.593-1.965-.593-3.105zm3.471 0c0 .56.092 1.1.275 1.62a4.043 4.043 0 002.097 2.34c.502.24 1.071.36 1.707.36.637 0 1.206-.12 1.707-.36a4.043 4.043 0 002.098-2.34 4.84 4.84 0 00.274-1.62c0-.56-.091-1.1-.274-1.62a4.043 4.043 0 00-2.097-2.34c-.502-.24-1.071-.36-1.708-.36-.636 0-1.205.12-1.706.36a4.043 4.043 0 00-2.098 2.34 4.84 4.84 0 00-.275 1.62zm18.399-7.2v15.27c0 .9-.058 1.735-.174 2.505-.115.77-.342 1.44-.68 2.01a3.49 3.49 0 01-1.431 1.335c-.617.32-1.418.48-2.401.48a7.43 7.43 0 01-.955-.06 5.143 5.143 0 01-.926-.21l.26-3.12c.193.04.377.075.55.105.174.03.357.045.55.045.424 0 .757-.095.998-.285a1.58 1.58 0 00.52-.735c.107-.3.17-.63.189-.99.019-.36.029-.71.029-1.05V41.6h3.471zm-3.963-4.89c0-.58.207-1.085.622-1.515.414-.43.94-.645 1.576-.645.637 0 1.172.205 1.606.615.434.41.65.925.65 1.545 0 .62-.216 1.135-.65 1.545-.434.41-.97.615-1.606.615-.636 0-1.162-.215-1.576-.645a2.112 2.112 0 01-.622-1.515zm10.732 13.35c.116 1.08.521 1.92 1.215 2.52.695.6 1.534.9 2.517.9.868 0 1.596-.185 2.184-.555a6.125 6.125 0 001.548-1.395l2.488 1.95c-.81 1.04-1.717 1.78-2.72 2.22a7.765 7.765 0 01-3.153.66 8.069 8.069 0 01-2.95-.54 7.04 7.04 0 01-2.402-1.53 7.268 7.268 0 01-1.605-2.385c-.395-.93-.593-1.965-.593-3.105s.198-2.175.593-3.105c.395-.93.93-1.725 1.605-2.385a7.04 7.04 0 012.402-1.53 8.064 8.064 0 012.95-.54c.965 0 1.847.175 2.647.525.8.35 1.485.855 2.054 1.515.57.66 1.013 1.475 1.33 2.445.32.97.478 2.085.478 3.345v.99h-10.588zm7.117-2.7c-.02-1.06-.338-1.895-.955-2.505-.617-.61-1.475-.915-2.575-.915-1.041 0-1.865.31-2.473.93-.607.62-.979 1.45-1.114 2.49h7.117zm16.2-1.44a5.59 5.59 0 00-1.273-1.05 2.659 2.659 0 00-1.36-.39c-.636 0-1.205.12-1.707.36a4.043 4.043 0 00-2.097 2.34 4.84 4.84 0 00-.275 1.62c0 .56.092 1.1.275 1.62a4.043 4.043 0 002.097 2.34c.502.24 1.07.36 1.707.36.54 0 1.042-.115 1.505-.345a3.3 3.3 0 001.186-1.005l2.314 2.58c-.347.36-.747.67-1.2.93a8.14 8.14 0 01-2.705.975 6.89 6.89 0 01-1.1.105 8.069 8.069 0 01-2.95-.54 7.04 7.04 0 01-2.402-1.53 7.268 7.268 0 01-1.605-2.385c-.395-.93-.593-1.965-.593-3.105s.198-2.175.593-3.105c.395-.93.93-1.725 1.605-2.385a7.04 7.04 0 012.402-1.53 8.064 8.064 0 012.95-.54c.887 0 1.78.175 2.676.525.897.35 1.683.905 2.358 1.665l-2.401 2.49zm2.835-1.26V41.6h2.864v-4.17h3.471v4.17h3.819v3.06h-3.819v6.3c0 .72.13 1.29.39 1.71.261.42.777.63 1.548.63.309 0 .646-.035 1.013-.105.366-.07.656-.185.868-.345v3.03c-.367.18-.815.305-1.345.375s-.999.105-1.404.105c-.925 0-1.682-.105-2.27-.315-.589-.21-1.051-.53-1.389-.96-.338-.43-.569-.965-.694-1.605-.126-.64-.188-1.38-.188-2.22v-6.6h-2.864zM558.1 85.9l-6.827-10.14h4.6l4.83 7.86 4.773-7.86h4.427L563.19 85.9l7.435 11.1h-4.629l-5.41-8.97-5.38 8.97h-4.397l7.29-11.1zm20.655 5.25h-7.146v-3.06h7.146v3.06zm3.269-15.39h7.116c.984 0 1.933.095 2.85.285.916.19 1.73.515 2.444.975a5.026 5.026 0 011.707 1.86c.424.78.636 1.77.636 2.97 0 1.54-.41 2.83-1.23 3.87-.819 1.04-1.99 1.67-3.514 1.89L597.47 97h-4.397l-4.744-9h-2.661v9h-3.645V75.76zm6.48 9c.52 0 1.041-.025 1.562-.075.52-.05.998-.17 1.432-.36.434-.19.786-.48 1.056-.87s.405-.935.405-1.635c0-.62-.126-1.12-.376-1.5a2.36 2.36 0 00-.984-.855 4.401 4.401 0 00-1.345-.375c-.492-.06-.97-.09-1.432-.09h-3.153v5.76h2.835zm20.105 10.26h-.087c-.501.82-1.138 1.415-1.91 1.785-.77.37-1.62.555-2.545.555a6.54 6.54 0 01-1.866-.27 4.98 4.98 0 01-1.62-.81 4.119 4.119 0 01-1.142-1.35c-.29-.54-.434-1.17-.434-1.89 0-.78.135-1.445.405-1.995a4.07 4.07 0 011.084-1.38 5.44 5.44 0 011.577-.885c.598-.22 1.22-.385 1.866-.495a15.97 15.97 0 011.953-.21 40.57 40.57 0 011.851-.045h.868v-.39c0-.9-.299-1.575-.897-2.025-.598-.45-1.36-.675-2.285-.675-.733 0-1.418.135-2.054.405a5.182 5.182 0 00-1.65 1.095l-1.822-1.89a6.702 6.702 0 012.705-1.77 9.635 9.635 0 013.197-.54c.983 0 1.813.115 2.488.345.675.23 1.234.525 1.678.885.443.36.785.775 1.027 1.245.24.47.414.945.52 1.425.106.48.169.945.188 1.395.02.45.03.845.03 1.185V97h-3.125v-1.98zm-.203-4.47h-.723c-.482 0-1.022.02-1.62.06a8.222 8.222 0 00-1.692.285c-.53.15-.979.37-1.345.66-.367.29-.55.695-.55 1.215 0 .34.072.625.217.855.145.23.333.425.564.585.232.16.492.275.781.345.29.07.579.105.868.105 1.196 0 2.078-.295 2.647-.885.569-.59.853-1.395.853-2.415v-.81zm5.179-7.95h3.818l3.877 9.99h.058l3.47-9.99h3.617l-6.567 17.49c-.25.68-.525 1.275-.824 1.785-.3.51-.651.94-1.056 1.29-.405.35-.882.61-1.432.78-.55.17-1.21.255-1.982.255a9.94 9.94 0 01-2.661-.36l.434-3.24c.27.1.554.185.853.255.3.07.603.105.911.105.425 0 .781-.04 1.07-.12.29-.08.536-.205.738-.375.203-.17.372-.39.507-.66s.28-.595.434-.975l.665-1.71-5.93-14.52zm163.769-47.84h6.885c.984 0 1.933.1 2.85.3.916.2 1.72.535 2.415 1.005.694.47 1.249 1.1 1.663 1.89.415.79.622 1.775.622 2.955 0 1.34-.221 2.42-.665 3.24-.443.82-1.041 1.455-1.793 1.905-.753.45-1.625.755-2.619.915-.993.16-2.03.24-3.11.24H781V56h-3.645V34.76zm5.844 9.21c.52 0 1.06-.02 1.62-.06a4.82 4.82 0 001.547-.36c.473-.2.859-.5 1.158-.9.298-.4.448-.96.448-1.68 0-.66-.135-1.185-.405-1.575-.27-.39-.617-.69-1.042-.9a4.273 4.273 0 00-1.417-.405 13.15 13.15 0 00-1.504-.09h-2.604v5.97h2.199zm11.513-2.37h3.472v2.28h.058c.385-.84.935-1.49 1.648-1.95.714-.46 1.534-.69 2.46-.69.212 0 .419.02.621.06.203.04.41.09.622.15v3.48a9.43 9.43 0 00-.853-.195 4.678 4.678 0 00-.825-.075c-.81 0-1.46.155-1.952.465-.492.31-.868.665-1.128 1.065-.26.4-.434.8-.521 1.2-.087.4-.13.7-.13.9V56h-3.472V41.6zm10.56 7.2c0-1.14.197-2.175.592-3.105.396-.93.93-1.725 1.606-2.385a7.04 7.04 0 012.4-1.53c.927-.36 1.91-.54 2.952-.54 1.041 0 2.025.18 2.95.54a7.04 7.04 0 012.401 1.53 7.268 7.268 0 011.606 2.385c.395.93.593 1.965.593 3.105s-.198 2.175-.593 3.105a7.268 7.268 0 01-1.606 2.385 7.04 7.04 0 01-2.4 1.53c-.926.36-1.91.54-2.951.54a8.069 8.069 0 01-2.951-.54 7.04 7.04 0 01-2.401-1.53 7.268 7.268 0 01-1.606-2.385c-.395-.93-.593-1.965-.593-3.105zm3.47 0c0 .56.092 1.1.275 1.62a4.043 4.043 0 002.097 2.34c.502.24 1.071.36 1.708.36.636 0 1.205-.12 1.706-.36a4.043 4.043 0 002.098-2.34 4.84 4.84 0 00.274-1.62c0-.56-.091-1.1-.274-1.62a4.043 4.043 0 00-2.097-2.34c-.502-.24-1.071-.36-1.707-.36-.637 0-1.206.12-1.707.36a4.043 4.043 0 00-2.098 2.34 4.84 4.84 0 00-.274 1.62zm18.4-7.2v15.27c0 .9-.059 1.735-.174 2.505-.116.77-.343 1.44-.68 2.01a3.49 3.49 0 01-1.432 1.335c-.617.32-1.418.48-2.401.48a7.43 7.43 0 01-.955-.06 5.143 5.143 0 01-.926-.21l.26-3.12c.194.04.377.075.55.105.174.03.357.045.55.045.424 0 .757-.095.998-.285a1.58 1.58 0 00.52-.735c.107-.3.17-.63.189-.99.02-.36.029-.71.029-1.05V41.6h3.471zm-3.964-4.89c0-.58.207-1.085.622-1.515.415-.43.94-.645 1.577-.645.636 0 1.171.205 1.605.615.434.41.651.925.651 1.545 0 .62-.217 1.135-.65 1.545-.435.41-.97.615-1.606.615-.637 0-1.162-.215-1.577-.645a2.112 2.112 0 01-.622-1.515zm10.732 13.35c.116 1.08.521 1.92 1.215 2.52.695.6 1.534.9 2.517.9.868 0 1.596-.185 2.184-.555a6.125 6.125 0 001.548-1.395l2.488 1.95c-.81 1.04-1.717 1.78-2.72 2.22a7.765 7.765 0 01-3.153.66 8.069 8.069 0 01-2.95-.54 7.04 7.04 0 01-2.401-1.53 7.268 7.268 0 01-1.606-2.385c-.395-.93-.593-1.965-.593-3.105s.198-2.175.593-3.105c.395-.93.93-1.725 1.606-2.385a7.04 7.04 0 012.4-1.53c.926-.36 1.91-.54 2.951-.54.965 0 1.847.175 2.647.525.8.35 1.485.855 2.054 1.515.57.66 1.013 1.475 1.331 2.445.318.97.477 2.085.477 3.345v.99H833.91zm7.117-2.7c-.02-1.06-.338-1.895-.955-2.505-.617-.61-1.475-.915-2.574-.915-1.042 0-1.866.31-2.474.93-.607.62-.979 1.45-1.114 2.49h7.117zm16.2-1.44a5.59 5.59 0 00-1.273-1.05 2.659 2.659 0 00-1.36-.39c-.636 0-1.205.12-1.706.36a4.043 4.043 0 00-2.098 2.34 4.84 4.84 0 00-.275 1.62c0 .56.092 1.1.275 1.62a4.043 4.043 0 002.097 2.34c.502.24 1.071.36 1.707.36.54 0 1.042-.115 1.505-.345a3.3 3.3 0 001.186-1.005l2.314 2.58c-.347.36-.747.67-1.2.93a8.14 8.14 0 01-2.705.975 6.89 6.89 0 01-1.1.105 8.069 8.069 0 01-2.95-.54 7.04 7.04 0 01-2.401-1.53 7.268 7.268 0 01-1.606-2.385c-.395-.93-.593-1.965-.593-3.105s.198-2.175.593-3.105c.395-.93.93-1.725 1.606-2.385a7.04 7.04 0 012.4-1.53c.926-.36 1.91-.54 2.951-.54.888 0 1.78.175 2.676.525.897.35 1.683.905 2.358 1.665l-2.401 2.49zm2.835-1.26V41.6h2.864v-4.17h3.471v4.17h3.819v3.06h-3.819v6.3c0 .72.13 1.29.39 1.71.261.42.777.63 1.548.63.309 0 .647-.035 1.013-.105.366-.07.656-.185.868-.345v3.03c-.367.18-.815.305-1.345.375s-.998.105-1.403.105c-.926 0-1.683-.105-2.271-.315-.589-.21-1.051-.53-1.389-.96-.337-.43-.569-.965-.694-1.605-.126-.64-.188-1.38-.188-2.22v-6.6h-2.864zm-70.499 34.52h-6.278v-3.42h16.2v3.42h-6.277V97h-3.645V79.18zm12.092 3.42h3.472v2.28h.057c.386-.84.936-1.49 1.65-1.95.713-.46 1.533-.69 2.458-.69.212 0 .42.02.622.06.203.04.41.09.622.15v3.48a9.43 9.43 0 00-.853-.195 4.678 4.678 0 00-.825-.075c-.81 0-1.46.155-1.952.465-.492.31-.868.665-1.129 1.065-.26.4-.433.8-.52 1.2-.087.4-.13.7-.13.9V97h-3.472V82.6zm14.03 8.46c.116 1.08.521 1.92 1.215 2.52.695.6 1.534.9 2.517.9.868 0 1.596-.185 2.184-.555a6.125 6.125 0 001.548-1.395l2.488 1.95c-.81 1.04-1.717 1.78-2.72 2.22a7.765 7.765 0 01-3.153.66 8.069 8.069 0 01-2.95-.54 7.04 7.04 0 01-2.401-1.53 7.268 7.268 0 01-1.606-2.385c-.395-.93-.593-1.965-.593-3.105s.198-2.175.593-3.105c.395-.93.93-1.725 1.606-2.385a7.04 7.04 0 012.4-1.53c.926-.36 1.91-.54 2.951-.54.965 0 1.847.175 2.647.525.8.35 1.485.855 2.054 1.515.57.66 1.013 1.475 1.331 2.445.318.97.477 2.085.477 3.345v.99h-10.588zm7.117-2.7c-.02-1.06-.338-1.895-.955-2.505-.617-.61-1.475-.915-2.574-.915-1.042 0-1.866.31-2.474.93-.607.62-.979 1.45-1.114 2.49h7.117zm6.77-14.04h3.47V97h-3.47V74.32zm7.52 0h3.472V97h-3.471V74.32zm7.522 8.28h3.471V97h-3.471V82.6zm-.492-4.89c0-.58.208-1.085.622-1.515.415-.43.94-.645 1.577-.645.636 0 1.171.205 1.605.615.434.41.651.925.651 1.545 0 .62-.217 1.135-.65 1.545-.435.41-.97.615-1.606.615-.637 0-1.162-.215-1.577-.645a2.112 2.112 0 01-.622-1.515zm15.361 8.88c-.675-.98-1.581-1.47-2.719-1.47-.463 0-.916.12-1.36.36-.443.24-.665.63-.665 1.17 0 .44.183.76.55.96.366.2.829.37 1.388.51.56.14 1.162.285 1.808.435.646.15 1.249.38 1.808.69.56.31 1.022.735 1.389 1.275.366.54.55 1.28.55 2.22 0 .86-.179 1.585-.536 2.175a4.282 4.282 0 01-1.388 1.425c-.57.36-1.21.62-1.924.78-.714.16-1.427.24-2.14.24-1.08 0-2.074-.16-2.98-.48-.907-.32-1.717-.9-2.43-1.74l2.314-2.25c.444.52.92.945 1.432 1.275.511.33 1.133.495 1.866.495.25 0 .51-.03.78-.09s.522-.16.753-.3c.231-.14.42-.315.564-.525.145-.21.217-.455.217-.735 0-.5-.183-.87-.55-1.11-.366-.24-.829-.435-1.388-.585-.56-.15-1.162-.29-1.808-.42a6.835 6.835 0 01-1.808-.63 3.838 3.838 0 01-1.389-1.215c-.366-.52-.55-1.24-.55-2.16 0-.8.16-1.495.478-2.085a4.3 4.3 0 011.258-1.455 5.352 5.352 0 011.794-.84 7.94 7.94 0 012.054-.27 7.98 7.98 0 012.748.495c.906.33 1.64.895 2.199 1.695l-2.315 2.16zm-839.84 81.17h7.985c.771 0 1.533.095 2.285.285.752.19 1.422.5 2.01.93.589.43 1.066.985 1.433 1.665.366.68.55 1.5.55 2.46 0 1.2-.329 2.19-.984 2.97-.656.78-1.514 1.34-2.575 1.68v.06c.637.08 1.23.265 1.78.555.549.29 1.016.66 1.402 1.11.386.45.69.97.911 1.56a5.37 5.37 0 01.333 1.905c0 1.16-.222 2.125-.665 2.895a5.39 5.39 0 01-1.75 1.86c-.724.47-1.553.805-2.488 1.005-.936.2-1.885.3-2.85.3h-7.377v-21.24zm3.646 8.64h3.326c1.215 0 2.127-.245 2.734-.735.608-.49.911-1.135.911-1.935 0-.92-.313-1.605-.94-2.055-.627-.45-1.634-.675-3.023-.675h-3.008v5.4zm0 9.36h3.355c.463 0 .96-.03 1.49-.09s1.017-.2 1.46-.42c.445-.22.81-.535 1.1-.945.29-.41.434-.965.434-1.665 0-1.12-.352-1.9-1.056-2.34-.704-.44-1.798-.66-3.283-.66h-3.5v6.12zm23.46 1.26h-.086c-.502.82-1.138 1.415-1.91 1.785-.77.37-1.62.555-2.545.555a6.53 6.53 0 01-1.866-.27 4.98 4.98 0 01-1.62-.81 4.119 4.119 0 01-1.143-1.35c-.29-.54-.434-1.17-.434-1.89 0-.78.135-1.445.405-1.995a4.07 4.07 0 011.085-1.38 5.44 5.44 0 011.577-.885c.598-.22 1.22-.385 1.866-.495.646-.11 1.297-.18 1.952-.21.656-.03 1.273-.045 1.852-.045h.868v-.39c0-.9-.3-1.575-.897-2.025-.598-.45-1.36-.675-2.286-.675-.732 0-1.417.135-2.053.405a5.182 5.182 0 00-1.65 1.095l-1.822-1.89a6.702 6.702 0 012.705-1.77 9.635 9.635 0 013.197-.54c.983 0 1.812.115 2.487.345.675.23 1.235.525 1.678.885.444.36.786.775 1.027 1.245.241.47.415.945.52 1.425.107.48.17.945.189 1.395.02.45.029.845.029 1.185V189h-3.124v-1.98zm-.202-4.47h-.723c-.482 0-1.022.02-1.62.06a8.222 8.222 0 00-1.692.285c-.53.15-.98.37-1.346.66-.366.29-.55.695-.55 1.215 0 .34.073.625.218.855.144.23.332.425.564.585.231.16.492.275.78.345.29.07.58.105.869.105 1.195 0 2.078-.295 2.647-.885.569-.59.853-1.395.853-2.415v-.81zm14.464-3.96c-.675-.98-1.581-1.47-2.719-1.47-.463 0-.916.12-1.36.36-.443.24-.665.63-.665 1.17 0 .44.183.76.55.96.366.2.829.37 1.388.51.56.14 1.162.285 1.808.435.646.15 1.25.38 1.808.69.56.31 1.022.735 1.389 1.275.366.54.55 1.28.55 2.22 0 .86-.179 1.585-.536 2.175a4.282 4.282 0 01-1.388 1.425c-.57.36-1.21.62-1.924.78-.714.16-1.427.24-2.14.24-1.08 0-2.074-.16-2.98-.48-.907-.32-1.717-.9-2.43-1.74l2.314-2.25c.444.52.92.945 1.432 1.275.511.33 1.133.495 1.866.495.25 0 .51-.03.78-.09s.522-.16.753-.3a1.8 1.8 0 00.564-.525c.145-.21.217-.455.217-.735 0-.5-.183-.87-.55-1.11-.366-.24-.829-.435-1.388-.585-.56-.15-1.162-.29-1.808-.42a6.835 6.835 0 01-1.808-.63 3.838 3.838 0 01-1.389-1.215c-.366-.52-.55-1.24-.55-2.16 0-.8.16-1.495.478-2.085a4.3 4.3 0 011.258-1.455 5.352 5.352 0 011.794-.84 7.94 7.94 0 012.054-.27 7.98 7.98 0 012.748.495c.907.33 1.64.895 2.199 1.695l-2.315 2.16zm5.497-3.99h3.471V189h-3.471v-14.4zm-.492-4.89c0-.58.207-1.085.622-1.515.415-.43.94-.645 1.577-.645.636 0 1.171.205 1.605.615.434.41.651.925.651 1.545 0 .62-.217 1.135-.65 1.545-.435.41-.97.615-1.606.615-.637 0-1.162-.215-1.577-.645a2.112 2.112 0 01-.622-1.515zm17.444 9.21a5.59 5.59 0 00-1.273-1.05 2.659 2.659 0 00-1.36-.39c-.636 0-1.205.12-1.706.36a4.043 4.043 0 00-2.098 2.34 4.84 4.84 0 00-.275 1.62c0 .56.092 1.1.275 1.62a4.043 4.043 0 002.097 2.34c.502.24 1.071.36 1.707.36.54 0 1.042-.115 1.505-.345a3.3 3.3 0 001.186-1.005l2.314 2.58c-.347.36-.747.67-1.2.93a8.14 8.14 0 01-2.705.975 6.89 6.89 0 01-1.1.105 8.069 8.069 0 01-2.95-.54 7.04 7.04 0 01-2.401-1.53 7.268 7.268 0 01-1.606-2.385c-.395-.93-.593-1.965-.593-3.105s.198-2.175.593-3.105c.395-.93.93-1.725 1.606-2.385a7.04 7.04 0 012.4-1.53c.926-.36 1.91-.54 2.951-.54.888 0 1.78.175 2.676.525.897.35 1.683.905 2.358 1.665l-2.401 2.49zm-59.622 36.26H17.56v-3.42h16.2v3.42h-6.278V233h-3.645v-17.82zm12.15 3.42h3.472V233h-3.472v-14.4zm-.492-4.89c0-.58.208-1.085.622-1.515.415-.43.94-.645 1.577-.645.636 0 1.172.205 1.605.615.434.41.651.925.651 1.545 0 .62-.217 1.135-.65 1.545-.434.41-.97.615-1.606.615-.637 0-1.162-.215-1.577-.645a2.112 2.112 0 01-.622-1.515zm8.014-3.39h3.471V233h-3.471v-22.68zm10.24 16.74c.116 1.08.521 1.92 1.215 2.52.695.6 1.533.9 2.517.9.868 0 1.596-.185 2.184-.555a6.125 6.125 0 001.548-1.395l2.488 1.95c-.81 1.04-1.717 1.78-2.72 2.22a7.765 7.765 0 01-3.153.66 8.069 8.069 0 01-2.95-.54 7.04 7.04 0 01-2.402-1.53 7.268 7.268 0 01-1.605-2.385c-.395-.93-.593-1.965-.593-3.105s.198-2.175.593-3.105c.395-.93.93-1.725 1.605-2.385a7.04 7.04 0 012.401-1.53c.926-.36 1.91-.54 2.951-.54.965 0 1.847.175 2.647.525.8.35 1.485.855 2.054 1.515.569.66 1.013 1.475 1.33 2.445.319.97.478 2.085.478 3.345v.99H53.75zm7.117-2.7c-.02-1.06-.338-1.895-.955-2.505-.617-.61-1.475-.915-2.575-.915-1.041 0-1.865.31-2.473.93-.607.62-.979 1.45-1.114 2.49h7.117zm14.117-1.77c-.675-.98-1.582-1.47-2.72-1.47-.462 0-.915.12-1.36.36-.443.24-.664.63-.664 1.17 0 .44.183.76.55.96.366.2.828.37 1.388.51.56.14 1.162.285 1.808.435.646.15 1.249.38 1.808.69.56.31 1.022.735 1.388 1.275.367.54.55 1.28.55 2.22 0 .86-.178 1.585-.535 2.175a4.282 4.282 0 01-1.389 1.425c-.569.36-1.21.62-1.923.78-.714.16-1.428.24-2.141.24-1.08 0-2.073-.16-2.98-.48-.906-.32-1.716-.9-2.43-1.74l2.314-2.25c.444.52.921.945 1.432 1.275.512.33 1.133.495 1.866.495.251 0 .511-.03.781-.09s.521-.16.753-.3c.231-.14.419-.315.564-.525.144-.21.217-.455.217-.735 0-.5-.184-.87-.55-1.11-.366-.24-.83-.435-1.389-.585-.559-.15-1.162-.29-1.808-.42a6.835 6.835 0 01-1.808-.63 3.838 3.838 0 01-1.388-1.215c-.367-.52-.55-1.24-.55-2.16 0-.8.16-1.495.477-2.085a4.3 4.3 0 011.259-1.455c.52-.38 1.118-.66 1.793-.84a7.94 7.94 0 012.054-.27 7.98 7.98 0 012.749.495c.906.33 1.639.895 2.198 1.695l-2.314 2.16zm5.438 8.31c0-.64.227-1.19.68-1.65.453-.46.998-.69 1.635-.69.617 0 1.157.22 1.62.66.463.44.694.98.694 1.62 0 .64-.227 1.19-.68 1.65-.453.46-.998.69-1.634.69-.309 0-.603-.06-.883-.18s-.525-.28-.737-.48a2.229 2.229 0 01-.695-1.62zm0-10.17c0-.64.227-1.19.68-1.65.453-.46.998-.69 1.635-.69.617 0 1.157.22 1.62.66.463.44.694.98.694 1.62 0 .64-.227 1.19-.68 1.65-.453.46-.998.69-1.634.69-.309 0-.603-.06-.883-.18s-.525-.28-.737-.48a2.229 2.229 0 01-.695-1.62zM24.402 271.8h-6.167v-2.184h6.167v2.184zm10.13-13.208h2.406v16.068h8.148V277H34.531v-18.408zm14.265 12.246c0 .624.092 1.2.276 1.729.183.529.442.98.777 1.352a3.6 3.6 0 001.228.884 3.95 3.95 0 001.63.325 3.95 3.95 0 001.63-.325 3.6 3.6 0 001.228-.884 3.93 3.93 0 00.777-1.352 5.23 5.23 0 00.276-1.729c0-.624-.092-1.2-.276-1.729a3.93 3.93 0 00-.777-1.352 3.6 3.6 0 00-1.229-.884 3.95 3.95 0 00-1.63-.325 3.95 3.95 0 00-1.629.325 3.6 3.6 0 00-1.228.884 3.93 3.93 0 00-.778 1.352 5.23 5.23 0 00-.275 1.729zm-2.407 0c0-.901.163-1.742.489-2.522a6.588 6.588 0 011.341-2.054 6.25 6.25 0 012.006-1.391 6.099 6.099 0 012.482-.507c.886 0 1.713.169 2.482.507a6.25 6.25 0 012.006 1.391 6.588 6.588 0 011.341 2.054c.326.78.489 1.62.489 2.522 0 .901-.163 1.746-.489 2.535a6.393 6.393 0 01-1.341 2.054 6.353 6.353 0 01-2.006 1.378 6.099 6.099 0 01-2.482.507 6.099 6.099 0 01-2.482-.507 6.353 6.353 0 01-2.006-1.378 6.393 6.393 0 01-1.341-2.054 6.571 6.571 0 01-.49-2.535zm27.378 6.058c0 .936-.155 1.79-.464 2.561a5.847 5.847 0 01-1.316 2.002 5.934 5.934 0 01-2.056 1.313c-.802.312-1.688.468-2.658.468-1.136 0-2.177-.165-3.121-.494-.944-.33-1.843-.901-2.695-1.716l1.53-1.976c.584.659 1.22 1.157 1.905 1.495.685.338 1.462.507 2.331.507.836 0 1.53-.126 2.081-.377.552-.251.99-.576 1.316-.975.326-.399.556-.854.69-1.365.134-.511.2-1.027.2-1.547v-1.82h-.075a4.023 4.023 0 01-1.767 1.651 5.373 5.373 0 01-2.344.533 6.04 6.04 0 01-2.42-.481 5.75 5.75 0 01-1.918-1.326 6.08 6.08 0 01-1.253-2.002 6.845 6.845 0 01-.452-2.509c0-.901.142-1.746.427-2.535a6.241 6.241 0 011.215-2.067 5.516 5.516 0 011.906-1.378c.744-.33 1.575-.494 2.495-.494.802 0 1.583.182 2.344.546.76.364 1.358.875 1.792 1.534h.05v-1.768h2.257v12.22zM67.6 266.548a3.95 3.95 0 00-1.63.325 3.6 3.6 0 00-1.228.884 3.93 3.93 0 00-.777 1.352 5.23 5.23 0 00-.276 1.729c0 1.248.351 2.249 1.053 3.003s1.655 1.131 2.858 1.131c1.204 0 2.156-.377 2.858-1.131s1.053-1.755 1.053-3.003c0-.624-.091-1.2-.275-1.729a3.93 3.93 0 00-.778-1.352 3.6 3.6 0 00-1.228-.884 3.95 3.95 0 00-1.63-.325zm9.753-1.872h2.257V277h-2.257v-12.324zm-.526-4.42c0-.468.163-.871.488-1.209a1.564 1.564 0 011.166-.507c.452 0 .84.169 1.166.507.326.338.489.741.489 1.209 0 .468-.163.871-.489 1.209a1.564 1.564 0 01-1.166.507c-.451 0-.84-.169-1.166-.507a1.681 1.681 0 01-.488-1.209zm14.867 7.696c-.418-.45-.857-.793-1.316-1.027-.46-.234-1.007-.351-1.642-.351-.619 0-1.158.117-1.618.351a3.32 3.32 0 00-1.153.962c-.31.407-.543.875-.702 1.404a5.708 5.708 0 00-.238 1.651c0 .572.092 1.114.276 1.625.184.511.443.958.777 1.339s.735.68 1.203.897c.468.217.995.325 1.58.325.635 0 1.178-.117 1.63-.351.45-.234.869-.576 1.253-1.027l1.605 1.664c-.585.676-1.266 1.161-2.044 1.456-.777.295-1.6.442-2.47.442-.919 0-1.758-.156-2.519-.468a5.8 5.8 0 01-1.968-1.313 5.827 5.827 0 01-1.279-2.028c-.3-.789-.45-1.66-.45-2.613 0-.953.15-1.829.45-2.626a6.047 6.047 0 011.266-2.054 5.733 5.733 0 011.956-1.339c.76-.32 1.609-.481 2.545-.481.869 0 1.7.16 2.494.481.794.32 1.484.81 2.069 1.469l-1.705 1.612zM24.402 315.8h-6.167v-2.184h6.167v2.184zm10.13-13.208h6.167a7.68 7.68 0 012.143.286c.66.19 1.229.472 1.705.845s.853.85 1.128 1.43c.276.58.414 1.261.414 2.041 0 1.057-.284 1.92-.852 2.587-.569.667-1.304 1.157-2.207 1.469v.052a3.64 3.64 0 011.505.429c.468.251.873.58 1.216.988.342.407.614.88.814 1.417.2.537.301 1.118.301 1.742 0 .832-.163 1.564-.489 2.197a4.686 4.686 0 01-1.341 1.599 6.136 6.136 0 01-1.98.988 8.437 8.437 0 01-2.433.338h-6.092v-18.408zm2.406 7.644h3.284c.452 0 .878-.048 1.279-.143a2.822 2.822 0 001.053-.481c.3-.225.539-.511.714-.858.176-.347.264-.771.264-1.274 0-.728-.226-1.36-.677-1.898-.452-.537-1.162-.806-2.131-.806h-3.786v5.46zm0 8.58h3.535c.368 0 .773-.039 1.216-.117a3.55 3.55 0 001.241-.468c.384-.234.71-.55.978-.949.267-.399.4-.927.4-1.586 0-1.092-.342-1.911-1.027-2.457-.685-.546-1.613-.819-2.783-.819h-3.56v6.396zm12.987-17.472h2.256V321h-2.256v-19.656zm7.672 13.494c0 .624.092 1.2.276 1.729.183.529.442.98.777 1.352a3.6 3.6 0 001.228.884 3.95 3.95 0 001.63.325 3.95 3.95 0 001.63-.325 3.6 3.6 0 001.228-.884 3.93 3.93 0 00.777-1.352 5.23 5.23 0 00.276-1.729c0-.624-.092-1.2-.276-1.729a3.93 3.93 0 00-.777-1.352 3.6 3.6 0 00-1.228-.884 3.95 3.95 0 00-1.63-.325 3.95 3.95 0 00-1.63.325 3.6 3.6 0 00-1.228.884 3.93 3.93 0 00-.777 1.352 5.23 5.23 0 00-.276 1.729zm-2.407 0c0-.901.163-1.742.489-2.522a6.588 6.588 0 011.341-2.054 6.25 6.25 0 012.006-1.391 6.099 6.099 0 012.482-.507c.886 0 1.713.169 2.482.507a6.25 6.25 0 012.006 1.391 6.588 6.588 0 011.341 2.054c.326.78.489 1.62.489 2.522 0 .901-.163 1.746-.489 2.535a6.393 6.393 0 01-1.341 2.054 6.353 6.353 0 01-2.006 1.378 6.099 6.099 0 01-2.482.507 6.099 6.099 0 01-2.482-.507 6.353 6.353 0 01-2.006-1.378 6.393 6.393 0 01-1.341-2.054 6.571 6.571 0 01-.49-2.535zm23.968-2.886c-.418-.45-.856-.793-1.316-1.027-.46-.234-1.007-.351-1.642-.351-.619 0-1.158.117-1.617.351a3.32 3.32 0 00-1.154.962 4.386 4.386 0 00-.702 1.404 5.708 5.708 0 00-.238 1.651c0 .572.092 1.114.276 1.625.184.511.443.958.777 1.339.335.381.736.68 1.204.897a3.71 3.71 0 001.58.325c.634 0 1.177-.117 1.629-.351a4.193 4.193 0 001.253-1.027l1.605 1.664c-.585.676-1.266 1.161-2.043 1.456-.778.295-1.6.442-2.47.442-.92 0-1.76-.156-2.52-.468a5.8 5.8 0 01-1.968-1.313 5.827 5.827 0 01-1.278-2.028c-.301-.789-.452-1.66-.452-2.613 0-.953.15-1.829.452-2.626.3-.797.723-1.482 1.266-2.054a5.733 5.733 0 011.955-1.339c.76-.32 1.61-.481 2.545-.481.87 0 1.7.16 2.495.481.794.32 1.483.81 2.068 1.469l-1.705 1.612zm3.585-10.608H85v12.688l5.114-5.33h3.134l-5.54 5.59L93.725 321h-3.21L85 314.604V321h-2.257v-19.656zm20.559 1.248h6.243c1.136 0 2.072.16 2.808.481.735.32 1.316.728 1.742 1.222.426.494.723 1.049.89 1.664.167.615.251 1.209.251 1.781a4.9 4.9 0 01-1.166 3.185 4.97 4.97 0 01-1.379 1.118 4.673 4.673 0 01-1.817.559l5.039 8.398h-3.009l-4.513-8.112h-2.682V321h-2.407v-18.408zm2.407 8.112h3.159c.468 0 .932-.039 1.391-.117.46-.078.87-.221 1.229-.429.36-.208.647-.507.865-.897.217-.39.326-.897.326-1.521 0-.624-.109-1.131-.326-1.521a2.306 2.306 0 00-.865-.897 3.649 3.649 0 00-1.229-.429 8.302 8.302 0 00-1.391-.117h-3.16v5.928zm18.477-8.112h2.182L133.964 321h-2.808l-1.78-4.55h-8.449l-1.755 4.55h-2.808l7.822-18.408zm4.313 11.674l-3.31-8.45h-.05l-3.36 8.45h6.72zm7.596-11.674h3.586l5.64 13.936h.101l5.59-13.936h3.586V321h-2.407v-15.132h-.05L146.15 321h-1.605l-5.992-15.132h-.05V321h-2.407v-18.408zM26.267 376.76h3.153L38.244 398h-4.166l-1.91-4.86h-8.88L21.436 398h-4.079l8.91-21.24zm4.629 13.14l-3.154-8.64-3.21 8.64h6.364zm20.308 5.94h-.058c-.502.88-1.177 1.52-2.025 1.92-.849.4-1.765.6-2.748.6-1.08 0-2.04-.195-2.879-.585a6.462 6.462 0 01-2.155-1.605 6.922 6.922 0 01-1.36-2.4 9.282 9.282 0 01-.463-2.97c0-1.06.164-2.05.492-2.97.328-.92.786-1.72 1.374-2.4a6.35 6.35 0 012.127-1.605c.829-.39 1.735-.585 2.719-.585.656 0 1.234.07 1.736.21.501.14.945.32 1.33.54.386.22.714.455.984.705.27.25.492.495.665.735h.087v-10.11h3.471V398h-3.297v-2.16zm-8.216-5.04c0 .56.091 1.1.275 1.62a4.043 4.043 0 002.097 2.34c.501.24 1.07.36 1.707.36.636 0 1.205-.12 1.707-.36a4.043 4.043 0 002.097-2.34 4.84 4.84 0 00.275-1.62c0-.56-.092-1.1-.275-1.62a4.043 4.043 0 00-2.097-2.34c-.502-.24-1.07-.36-1.707-.36s-1.206.12-1.707.36a4.043 4.043 0 00-2.097 2.34 4.84 4.84 0 00-.275 1.62zm13.567-7.2h3.79l3.703 10.08h.058l3.732-10.08h3.558L65.928 398h-3.703l-5.67-14.4zm25.573 12.42h-.087c-.501.82-1.137 1.415-1.909 1.785-.771.37-1.62.555-2.546.555-.636 0-1.258-.09-1.865-.27a4.98 4.98 0 01-1.62-.81 4.119 4.119 0 01-1.143-1.35c-.29-.54-.434-1.17-.434-1.89 0-.78.135-1.445.405-1.995a4.07 4.07 0 011.085-1.38 5.44 5.44 0 011.576-.885c.598-.22 1.22-.385 1.866-.495a15.97 15.97 0 011.953-.21c.656-.03 1.273-.045 1.851-.045h.868v-.39c0-.9-.299-1.575-.897-2.025-.597-.45-1.36-.675-2.285-.675-.733 0-1.417.135-2.054.405a5.182 5.182 0 00-1.649 1.095l-1.822-1.89a6.702 6.702 0 012.705-1.77 9.635 9.635 0 013.196-.54c.984 0 1.813.115 2.488.345.675.23 1.234.525 1.678.885.443.36.786.775 1.027 1.245.24.47.414.945.52 1.425.107.48.17.945.189 1.395.019.45.028.845.028 1.185V398h-3.124v-1.98zm-.202-4.47h-.724c-.482 0-1.022.02-1.62.06a8.222 8.222 0 00-1.692.285c-.53.15-.979.37-1.345.66-.366.29-.55.695-.55 1.215 0 .34.073.625.217.855.145.23.333.425.564.585.232.16.492.275.782.345.289.07.578.105.867.105 1.196 0 2.078-.295 2.647-.885.57-.59.854-1.395.854-2.415v-.81zm7.058-7.95h3.298v2.31h.058c.328-.72.83-1.345 1.504-1.875.675-.53 1.591-.795 2.749-.795.925 0 1.711.16 2.357.48.646.32 1.172.74 1.577 1.26s.694 1.12.868 1.8c.173.68.26 1.39.26 2.13V398h-3.471v-7.29c0-.4-.02-.845-.058-1.335-.039-.49-.14-.95-.304-1.38a2.58 2.58 0 00-.767-1.08c-.347-.29-.82-.435-1.417-.435-.579 0-1.066.1-1.461.3-.395.2-.723.47-.984.81-.26.34-.448.73-.564 1.17-.115.44-.173.9-.173 1.38V398h-3.472v-14.4zm26.094 4.32a5.59 5.59 0 00-1.273-1.05 2.659 2.659 0 00-1.36-.39c-.636 0-1.205.12-1.706.36a4.043 4.043 0 00-2.098 2.34 4.84 4.84 0 00-.275 1.62c0 .56.092 1.1.275 1.62a4.043 4.043 0 002.097 2.34c.502.24 1.07.36 1.707.36.54 0 1.042-.115 1.505-.345a3.3 3.3 0 001.186-1.005l2.314 2.58c-.347.36-.747.67-1.2.93a8.14 8.14 0 01-2.705.975 6.89 6.89 0 01-1.1.105 8.069 8.069 0 01-2.95-.54 7.04 7.04 0 01-2.401-1.53 7.268 7.268 0 01-1.606-2.385c-.395-.93-.593-1.965-.593-3.105s.198-2.175.593-3.105c.395-.93.93-1.725 1.606-2.385a7.04 7.04 0 012.4-1.53c.926-.36 1.91-.54 2.951-.54.888 0 1.78.175 2.676.525.897.35 1.683.905 2.358 1.665l-2.401 2.49zm7.232 4.14c.116 1.08.52 1.92 1.215 2.52.694.6 1.533.9 2.517.9.868 0 1.596-.185 2.184-.555a6.125 6.125 0 001.548-1.395l2.487 1.95c-.81 1.04-1.716 1.78-2.719 2.22a7.765 7.765 0 01-3.153.66 8.069 8.069 0 01-2.95-.54 7.04 7.04 0 01-2.402-1.53 7.268 7.268 0 01-1.605-2.385c-.396-.93-.593-1.965-.593-3.105s.197-2.175.593-3.105c.395-.93.93-1.725 1.605-2.385a7.04 7.04 0 012.401-1.53c.926-.36 1.91-.54 2.95-.54.965 0 1.848.175 2.648.525.8.35 1.485.855 2.054 1.515.569.66 1.012 1.475 1.33 2.445.319.97.478 2.085.478 3.345v.99H122.31zm7.116-2.7c-.019-1.06-.337-1.895-.954-2.505-.617-.61-1.476-.915-2.575-.915-1.041 0-1.866.31-2.473.93-.608.62-.979 1.45-1.114 2.49h7.116zm17.705 6.48h-.058c-.502.88-1.177 1.52-2.025 1.92-.849.4-1.765.6-2.748.6-1.08 0-2.04-.195-2.879-.585a6.462 6.462 0 01-2.155-1.605 6.922 6.922 0 01-1.36-2.4 9.282 9.282 0 01-.462-2.97c0-1.06.163-2.05.491-2.97.328-.92.786-1.72 1.374-2.4a6.35 6.35 0 012.127-1.605c.829-.39 1.735-.585 2.719-.585.656 0 1.234.07 1.736.21.501.14.945.32 1.33.54.386.22.714.455.984.705.27.25.492.495.665.735h.087v-10.11h3.472V398h-3.298v-2.16zm-8.216-5.04c0 .56.092 1.1.275 1.62a4.043 4.043 0 002.097 2.34c.502.24 1.07.36 1.707.36.636 0 1.205-.12 1.707-.36a4.043 4.043 0 002.097-2.34 4.84 4.84 0 00.275-1.62c0-.56-.092-1.1-.275-1.62a4.043 4.043 0 00-2.097-2.34c-.502-.24-1.07-.36-1.707-.36s-1.205.12-1.707.36a4.043 4.043 0 00-2.097 2.34 4.84 4.84 0 00-.275 1.62zM23.837 424.18H17.56v-3.42h16.2v3.42h-6.278V442h-3.645v-17.82zm12.15 3.42h3.472V442h-3.472v-14.4zm-.492-4.89c0-.58.208-1.085.622-1.515.415-.43.94-.645 1.577-.645.636 0 1.172.205 1.605.615.434.41.651.925.651 1.545 0 .62-.217 1.135-.65 1.545-.434.41-.97.615-1.606.615-.637 0-1.162-.215-1.577-.645a2.112 2.112 0 01-.622-1.515zm8.014-3.39h3.471V442h-3.471v-22.68zm10.24 16.74c.116 1.08.521 1.92 1.215 2.52.695.6 1.533.9 2.517.9.868 0 1.596-.185 2.184-.555a6.125 6.125 0 001.548-1.395l2.488 1.95c-.81 1.04-1.717 1.78-2.72 2.22a7.765 7.765 0 01-3.153.66 8.069 8.069 0 01-2.95-.54 7.04 7.04 0 01-2.402-1.53 7.268 7.268 0 01-1.605-2.385c-.395-.93-.593-1.965-.593-3.105s.198-2.175.593-3.105c.395-.93.93-1.725 1.605-2.385a7.04 7.04 0 012.401-1.53c.926-.36 1.91-.54 2.951-.54.965 0 1.847.175 2.647.525.8.35 1.485.855 2.054 1.515.569.66 1.013 1.475 1.33 2.445.319.97.478 2.085.478 3.345v.99H53.75zm7.117-2.7c-.02-1.06-.338-1.895-.955-2.505-.617-.61-1.475-.915-2.575-.915-1.041 0-1.865.31-2.473.93-.607.62-.979 1.45-1.114 2.49h7.117zm14.117-1.77c-.675-.98-1.582-1.47-2.72-1.47-.462 0-.915.12-1.36.36-.443.24-.664.63-.664 1.17 0 .44.183.76.55.96.366.2.828.37 1.388.51.56.14 1.162.285 1.808.435.646.15 1.249.38 1.808.69.56.31 1.022.735 1.388 1.275.367.54.55 1.28.55 2.22 0 .86-.178 1.585-.535 2.175a4.282 4.282 0 01-1.389 1.425c-.569.36-1.21.62-1.923.78-.714.16-1.428.24-2.141.24-1.08 0-2.073-.16-2.98-.48-.906-.32-1.716-.9-2.43-1.74l2.314-2.25c.444.52.921.945 1.432 1.275.512.33 1.133.495 1.866.495.251 0 .511-.03.781-.09s.521-.16.753-.3c.231-.14.419-.315.564-.525.144-.21.217-.455.217-.735 0-.5-.184-.87-.55-1.11-.366-.24-.83-.435-1.389-.585-.559-.15-1.162-.29-1.808-.42a6.835 6.835 0 01-1.808-.63 3.838 3.838 0 01-1.388-1.215c-.367-.52-.55-1.24-.55-2.16 0-.8.16-1.495.477-2.085a4.3 4.3 0 011.259-1.455c.52-.38 1.118-.66 1.793-.84a7.94 7.94 0 012.054-.27 7.98 7.98 0 012.749.495c.906.33 1.639.895 2.198 1.695l-2.314 2.16zm5.438 8.31c0-.64.227-1.19.68-1.65.453-.46.998-.69 1.635-.69.617 0 1.157.22 1.62.66.463.44.694.98.694 1.62 0 .64-.227 1.19-.68 1.65-.453.46-.998.69-1.634.69-.309 0-.603-.06-.883-.18s-.525-.28-.737-.48a2.229 2.229 0 01-.695-1.62zm0-10.17c0-.64.227-1.19.68-1.65.453-.46.998-.69 1.635-.69.617 0 1.157.22 1.62.66.463.44.694.98.694 1.62 0 .64-.227 1.19-.68 1.65-.453.46-.998.69-1.634.69-.309 0-.603-.06-.883-.18s-.525-.28-.737-.48a2.229 2.229 0 01-.695-1.62zM24.402 480.8h-6.167v-2.184h6.167v2.184zm9.728-13.208h6.193c1.253 0 2.352.147 3.296.442.945.295 1.764.689 2.457 1.183a7.346 7.346 0 011.73 1.703c.46.641.824 1.3 1.091 1.976.267.676.46 1.352.577 2.028.117.676.175 1.3.175 1.872a9.554 9.554 0 01-.627 3.419 8.674 8.674 0 01-1.855 2.938c-.819.858-1.834 1.547-3.046 2.067-1.212.52-2.612.78-4.2.78H34.13v-18.408zm2.407 16.068h3.033c1.02 0 1.985-.143 2.896-.429a6.93 6.93 0 002.395-1.287 6.132 6.132 0 001.63-2.145c.4-.858.6-1.859.6-3.003 0-.59-.091-1.278-.275-2.067a6.289 6.289 0 00-1.04-2.249c-.51-.71-1.216-1.313-2.119-1.807-.903-.494-2.072-.741-3.51-.741h-3.61v13.728zm17.099-1.508c.434.676.99 1.174 1.667 1.495.677.32 1.374.481 2.093.481.401 0 .81-.065 1.229-.195a3.68 3.68 0 001.14-.585c.343-.26.623-.58.84-.962.218-.381.326-.823.326-1.326 0-.71-.217-1.252-.652-1.625-.434-.373-.973-.685-1.617-.936a30.28 30.28 0 00-2.106-.728 8.416 8.416 0 01-2.106-.975 5.248 5.248 0 01-1.617-1.677c-.434-.702-.652-1.651-.652-2.847 0-.537.113-1.11.339-1.716a4.795 4.795 0 011.065-1.664c.485-.503 1.108-.923 1.868-1.261.76-.338 1.676-.507 2.745-.507.97 0 1.898.139 2.783.416.886.277 1.663.84 2.332 1.69l-1.956 1.846a3.287 3.287 0 00-1.278-1.17c-.552-.295-1.178-.442-1.88-.442-.67 0-1.225.091-1.668.273-.443.182-.798.416-1.065.702a2.495 2.495 0 00-.564.923c-.109.33-.163.633-.163.91 0 .78.217 1.378.652 1.794.434.416.973.754 1.617 1.014.643.26 1.345.494 2.106.702.76.208 1.462.498 2.106.871a4.961 4.961 0 011.617 1.508c.434.633.652 1.504.652 2.613 0 .884-.163 1.681-.49 2.392a5.293 5.293 0 01-1.316 1.794 5.783 5.783 0 01-1.955 1.118c-.752.26-1.555.39-2.407.39a8.478 8.478 0 01-3.234-.624c-1.02-.416-1.83-1.057-2.432-1.924l1.98-1.768zm13.413-14.56h6.242c1.137 0 2.073.16 2.809.481.735.32 1.316.728 1.742 1.222.426.494.723 1.049.89 1.664.167.615.25 1.209.25 1.781 0 .572-.083 1.166-.25 1.781a4.209 4.209 0 01-.89 1.664c-.426.494-1.007.901-1.742 1.222-.736.32-1.672.481-2.808.481h-3.836V486h-2.407v-18.408zm2.407 8.112h3.159a8.3 8.3 0 001.391-.117c.46-.078.87-.221 1.229-.429.359-.208.647-.507.865-.897.217-.39.325-.897.325-1.521 0-.624-.108-1.131-.325-1.521a2.306 2.306 0 00-.865-.897 3.649 3.649 0 00-1.229-.429 8.302 8.302 0 00-1.391-.117h-3.16v5.928zM24.402 524.8h-6.167v-2.184h6.167v2.184zm10.13-13.208h2.406v7.644h9.201v-7.644h2.407V530h-2.407v-8.424h-9.201V530H34.53v-18.408zm18.05 7.592a6.24 6.24 0 012.207-1.365 7.306 7.306 0 012.507-.455c.87 0 1.617.113 2.244.338.627.225 1.14.529 1.542.91.4.381.698.819.89 1.313a4.23 4.23 0 01.288 1.547v6.292c0 .433.008.832.025 1.196s.042.71.075 1.04h-2.005a23.362 23.362 0 01-.076-1.872h-.05c-.501.797-1.094 1.36-1.78 1.69-.685.33-1.479.494-2.382.494a5.286 5.286 0 01-1.58-.234 3.808 3.808 0 01-1.315-.702 3.333 3.333 0 01-.89-1.157c-.218-.46-.326-.992-.326-1.599 0-.797.171-1.465.514-2.002.342-.537.81-.975 1.404-1.313.593-.338 1.287-.58 2.08-.728a13.944 13.944 0 012.545-.221h1.655v-.52a2.65 2.65 0 00-.702-1.781 2.502 2.502 0 00-.877-.598c-.351-.147-.77-.221-1.254-.221-.435 0-.815.043-1.14.13a4.93 4.93 0 00-.89.325c-.268.13-.51.282-.728.455-.217.173-.426.338-.627.494l-1.353-1.456zm6.369 4.888c-.535 0-1.083.03-1.643.091-.56.06-1.07.178-1.529.351-.46.173-.836.416-1.128.728-.293.312-.439.71-.439 1.196 0 .71.23 1.222.69 1.534.46.312 1.082.468 1.867.468.619 0 1.145-.108 1.58-.325a2.986 2.986 0 001.053-.845 3.32 3.32 0 00.577-1.157c.117-.425.175-.845.175-1.261v-.78h-1.203zm6.593-6.396h2.257v1.898h.05c.15-.33.351-.628.602-.897.25-.269.53-.498.84-.689.309-.19.647-.342 1.015-.455a3.748 3.748 0 011.103-.169c.368 0 .702.052 1.003.156l-.1 2.522a6.348 6.348 0 00-.552-.13 2.97 2.97 0 00-.551-.052c-1.104 0-1.948.32-2.533.962-.585.641-.877 1.638-.877 2.99V530h-2.257v-12.324zM86.73 530h-2.257v-1.768h-.05c-.434.659-1.032 1.17-1.792 1.534a5.373 5.373 0 01-2.345.546c-.919 0-1.75-.165-2.494-.494a5.516 5.516 0 01-1.906-1.378 6.27 6.27 0 01-1.216-2.054 7.39 7.39 0 01-.426-2.548c0-.919.142-1.772.426-2.561a6.096 6.096 0 011.216-2.054 5.597 5.597 0 011.906-1.365c.744-.33 1.575-.494 2.494-.494.853 0 1.655.186 2.407.559.752.373 1.33.88 1.73 1.521h.05v-9.1h2.257V530zm-6.168-1.872a3.95 3.95 0 001.63-.325 3.6 3.6 0 001.228-.884 3.93 3.93 0 00.778-1.352 5.23 5.23 0 00.275-1.729c0-.624-.092-1.2-.275-1.729a3.93 3.93 0 00-.778-1.352 3.6 3.6 0 00-1.228-.884 3.95 3.95 0 00-1.63-.325 3.95 3.95 0 00-1.63.325 3.6 3.6 0 00-1.228.884 3.93 3.93 0 00-.777 1.352 5.23 5.23 0 00-.276 1.729c0 .624.092 1.2.276 1.729.184.529.443.98.777 1.352a3.6 3.6 0 001.229.884 3.95 3.95 0 001.63.325zm17.124-16.536h6.168c.768 0 1.483.095 2.143.286.66.19 1.229.472 1.705.845s.852.85 1.128 1.43c.276.58.414 1.261.414 2.041 0 1.057-.284 1.92-.853 2.587-.568.667-1.303 1.157-2.206 1.469v.052a3.64 3.64 0 011.504.429c.469.251.874.58 1.216.988.343.407.615.88.815 1.417.2.537.301 1.118.301 1.742 0 .832-.163 1.564-.489 2.197a4.686 4.686 0 01-1.341 1.599 6.136 6.136 0 01-1.98.988 8.437 8.437 0 01-2.433.338h-6.092v-18.408zm2.407 7.644h3.284c.452 0 .878-.048 1.279-.143a2.822 2.822 0 001.053-.481c.3-.225.539-.511.714-.858.176-.347.264-.771.264-1.274 0-.728-.226-1.36-.677-1.898-.452-.537-1.162-.806-2.131-.806h-3.786v5.46zm0 8.58h3.535c.368 0 .773-.039 1.216-.117a3.55 3.55 0 001.24-.468c.385-.234.711-.55.979-.949.267-.399.4-.927.4-1.586 0-1.092-.342-1.911-1.027-2.457-.685-.546-1.613-.819-2.783-.819h-3.56v6.396zm12.987-17.472h2.256V530h-2.256v-19.656zm7.672 13.494c0 .624.092 1.2.276 1.729.183.529.442.98.777 1.352a3.6 3.6 0 001.228.884 3.95 3.95 0 001.63.325 3.95 3.95 0 001.63-.325 3.6 3.6 0 001.228-.884 3.93 3.93 0 00.777-1.352 5.23 5.23 0 00.276-1.729c0-.624-.092-1.2-.276-1.729a3.93 3.93 0 00-.777-1.352 3.6 3.6 0 00-1.228-.884 3.95 3.95 0 00-1.63-.325 3.95 3.95 0 00-1.63.325 3.6 3.6 0 00-1.228.884 3.93 3.93 0 00-.778 1.352 5.23 5.23 0 00-.275 1.729zm-2.407 0c0-.901.163-1.742.489-2.522a6.588 6.588 0 011.341-2.054 6.25 6.25 0 012.006-1.391 6.099 6.099 0 012.482-.507c.886 0 1.713.169 2.482.507a6.25 6.25 0 012.006 1.391 6.588 6.588 0 011.341 2.054c.326.78.489 1.62.489 2.522 0 .901-.163 1.746-.489 2.535a6.393 6.393 0 01-1.341 2.054 6.353 6.353 0 01-2.006 1.378 6.099 6.099 0 01-2.482.507 6.099 6.099 0 01-2.482-.507 6.353 6.353 0 01-2.006-1.378 6.393 6.393 0 01-1.341-2.054 6.571 6.571 0 01-.49-2.535zm23.968-2.886c-.418-.45-.856-.793-1.316-1.027-.46-.234-1.007-.351-1.642-.351-.619 0-1.158.117-1.617.351a3.32 3.32 0 00-1.154.962 4.386 4.386 0 00-.702 1.404 5.708 5.708 0 00-.238 1.651c0 .572.092 1.114.276 1.625.184.511.443.958.777 1.339s.736.68 1.204.897a3.71 3.71 0 001.58.325c.634 0 1.177-.117 1.629-.351a4.193 4.193 0 001.253-1.027l1.605 1.664c-.585.676-1.266 1.161-2.043 1.456-.778.295-1.6.442-2.47.442-.92 0-1.76-.156-2.52-.468a5.8 5.8 0 01-1.968-1.313 5.827 5.827 0 01-1.278-2.028c-.301-.789-.452-1.66-.452-2.613 0-.953.15-1.829.452-2.626.3-.797.722-1.482 1.266-2.054a5.733 5.733 0 011.955-1.339c.76-.32 1.609-.481 2.545-.481.87 0 1.7.16 2.495.481.794.32 1.483.81 2.068 1.469l-1.705 1.612zm3.585-10.608h2.257v12.688l5.114-5.33h3.134l-5.54 5.59L156.88 530h-3.21l-5.515-6.396V530h-2.257v-19.656zm19.33 10.426a3.495 3.495 0 00-.99-.871c-.393-.234-.873-.351-1.441-.351-.535 0-1 .117-1.392.351-.393.234-.59.576-.59 1.027 0 .364.114.659.34.884.225.225.492.407.802.546.309.139.639.243.99.312.35.07.652.13.903.182.484.121.94.269 1.366.442a3.75 3.75 0 011.103.676c.31.277.552.615.727 1.014.176.399.263.884.263 1.456 0 .693-.142 1.287-.426 1.781a3.673 3.673 0 01-1.103 1.209 4.556 4.556 0 01-1.542.676 7.428 7.428 0 01-1.742.208c-.987 0-1.851-.156-2.595-.468-.744-.312-1.408-.884-1.993-1.716l1.704-1.456c.368.381.778.72 1.229 1.014.451.295 1.003.442 1.655.442.284 0 .572-.03.865-.091.292-.06.551-.156.777-.286.225-.13.41-.295.551-.494.142-.2.214-.429.214-.689 0-.347-.105-.633-.314-.858a2.27 2.27 0 00-.752-.533 5.337 5.337 0 00-.928-.312 29.574 29.574 0 00-.865-.195c-.484-.121-.944-.26-1.379-.416a4.142 4.142 0 01-1.153-.624 2.859 2.859 0 01-.802-.988c-.2-.399-.301-.893-.301-1.482 0-.641.13-1.2.389-1.677a3.54 3.54 0 011.028-1.183c.426-.312.91-.546 1.454-.702a5.923 5.923 0 011.642-.234c.802 0 1.571.156 2.306.468.736.312 1.32.832 1.755 1.56l-1.755 1.378zM24.402 568.8h-6.167v-2.184h6.167v2.184zm22.49-9.23a4.997 4.997 0 00-1.906-1.56 5.506 5.506 0 00-2.382-.546c-1.003 0-1.91.195-2.72.585-.81.39-1.504.923-2.081 1.599a7.36 7.36 0 00-1.341 2.379 8.815 8.815 0 00-.477 2.925c0 .97.15 1.89.452 2.756.3.867.735 1.63 1.303 2.288a6.125 6.125 0 002.081 1.56c.82.381 1.747.572 2.783.572 1.02 0 1.914-.217 2.683-.65a5.833 5.833 0 001.955-1.82l2.031 1.586c-.134.19-.368.464-.702.819-.334.355-.777.71-1.329 1.066-.551.355-1.216.667-1.993.936-.777.269-1.675.403-2.695.403-1.404 0-2.67-.277-3.798-.832a9.208 9.208 0 01-2.884-2.184 9.595 9.595 0 01-1.817-3.055 9.907 9.907 0 01-.627-3.445c0-1.421.226-2.734.677-3.939.451-1.205 1.082-2.245 1.893-3.12a8.452 8.452 0 012.92-2.041c1.137-.485 2.39-.728 3.761-.728 1.17 0 2.32.234 3.448.702a6.463 6.463 0 012.77 2.158l-2.006 1.586zm4.888-5.226h2.257V574H51.78v-19.656zm7.672 13.494c0 .624.092 1.2.276 1.729.184.529.443.98.777 1.352a3.6 3.6 0 001.229.884 3.95 3.95 0 001.63.325 3.95 3.95 0 001.629-.325 3.6 3.6 0 001.228-.884 3.93 3.93 0 00.778-1.352 5.23 5.23 0 00.275-1.729c0-.624-.092-1.2-.275-1.729a3.93 3.93 0 00-.778-1.352 3.6 3.6 0 00-1.228-.884 3.95 3.95 0 00-1.63-.325 3.95 3.95 0 00-1.63.325 3.6 3.6 0 00-1.228.884 3.93 3.93 0 00-.777 1.352 5.23 5.23 0 00-.276 1.729zm-2.407 0c0-.901.163-1.742.49-2.522a6.588 6.588 0 011.34-2.054 6.25 6.25 0 012.006-1.391 6.099 6.099 0 012.482-.507c.886 0 1.713.169 2.482.507a6.25 6.25 0 012.006 1.391 6.588 6.588 0 011.341 2.054c.326.78.49 1.62.49 2.522 0 .901-.164 1.746-.49 2.535a6.393 6.393 0 01-1.341 2.054 6.353 6.353 0 01-2.006 1.378 6.099 6.099 0 01-2.482.507 6.099 6.099 0 01-2.482-.507 6.353 6.353 0 01-2.006-1.378 6.393 6.393 0 01-1.34-2.054 6.571 6.571 0 01-.49-2.535zm23.968-2.886c-.417-.45-.856-.793-1.316-1.027-.46-.234-1.007-.351-1.642-.351-.618 0-1.157.117-1.617.351a3.32 3.32 0 00-1.153.962c-.31.407-.544.875-.702 1.404a5.708 5.708 0 00-.239 1.651c0 .572.092 1.114.276 1.625.184.511.443.958.777 1.339.335.381.736.68 1.204.897a3.71 3.71 0 001.58.325c.635 0 1.178-.117 1.63-.351.45-.234.868-.576 1.253-1.027l1.604 1.664c-.585.676-1.266 1.161-2.043 1.456-.777.295-1.6.442-2.47.442-.919 0-1.759-.156-2.52-.468a5.8 5.8 0 01-1.967-1.313 5.827 5.827 0 01-1.28-2.028c-.3-.789-.45-1.66-.45-2.613 0-.953.15-1.829.45-2.626a6.064 6.064 0 011.267-2.054 5.733 5.733 0 011.956-1.339c.76-.32 1.608-.481 2.544-.481.87 0 1.701.16 2.495.481.794.32 1.483.81 2.068 1.469l-1.705 1.612zm3.586-10.608h2.256v12.688l5.115-5.33h3.134l-5.541 5.59L95.58 574h-3.21l-5.515-6.396V574H84.6v-19.656zm24.269 3.588h-5.716v-2.34h13.839v2.34h-5.716V574h-2.407v-16.068zm10.28 3.744h2.256V574h-2.257v-12.324zm-.527-4.42c0-.468.163-.871.489-1.209a1.564 1.564 0 011.165-.507c.452 0 .84.169 1.166.507.326.338.49.741.49 1.209 0 .468-.164.871-.49 1.209a1.564 1.564 0 01-1.166.507c-.45 0-.84-.169-1.165-.507a1.681 1.681 0 01-.49-1.209zm6.543-2.912h2.257V574h-2.257v-19.656zm7.547 14.352c0 .537.113 1.027.338 1.469.226.442.523.819.89 1.131.368.312.794.555 1.279.728.485.173.986.26 1.504.26.702 0 1.312-.169 1.83-.507a5.973 5.973 0 001.43-1.339l1.704 1.352c-1.253 1.681-3.008 2.522-5.265 2.522-.936 0-1.784-.165-2.544-.494a5.538 5.538 0 01-1.93-1.365 6.096 6.096 0 01-1.217-2.054 7.501 7.501 0 01-.426-2.561c0-.919.155-1.772.464-2.561a6.38 6.38 0 011.278-2.054 5.83 5.83 0 011.943-1.365 6.058 6.058 0 012.457-.494c1.053 0 1.943.19 2.67.572a5.31 5.31 0 011.793 1.495 5.984 5.984 0 011.016 2.08 9 9 0 01.313 2.353v.832h-9.527zm7.12-1.872a5.1 5.1 0 00-.238-1.43 3.174 3.174 0 00-.64-1.131 2.944 2.944 0 00-1.065-.754c-.426-.182-.923-.273-1.492-.273-.551 0-1.057.108-1.517.325-.46.217-.848.498-1.165.845a3.917 3.917 0 00-.74 1.157 3.283 3.283 0 00-.263 1.261h7.12zm11.433-2.054a3.495 3.495 0 00-.99-.871c-.393-.234-.874-.351-1.442-.351-.535 0-.999.117-1.392.351-.393.234-.589.576-.589 1.027 0 .364.113.659.339.884.225.225.493.407.802.546.309.139.64.243.99.312.351.07.652.13.903.182.484.121.94.269 1.366.442a3.75 3.75 0 011.103.676c.31.277.552.615.727 1.014.176.399.264.884.264 1.456 0 .693-.142 1.287-.427 1.781a3.673 3.673 0 01-1.103 1.209 4.556 4.556 0 01-1.542.676 7.428 7.428 0 01-1.742.208c-.986 0-1.851-.156-2.595-.468-.744-.312-1.408-.884-1.993-1.716l1.705-1.456c.367.381.777.72 1.228 1.014.451.295 1.003.442 1.655.442.284 0 .572-.03.865-.091.292-.06.551-.156.777-.286.226-.13.41-.295.552-.494.142-.2.213-.429.213-.689 0-.347-.105-.633-.314-.858a2.27 2.27 0 00-.752-.533 5.337 5.337 0 00-.927-.312 29.574 29.574 0 00-.865-.195c-.485-.121-.945-.26-1.38-.416a4.142 4.142 0 01-1.153-.624 2.86 2.86 0 01-.802-.988c-.2-.399-.3-.893-.3-1.482 0-.641.129-1.2.388-1.677a3.54 3.54 0 011.028-1.183c.426-.312.91-.546 1.454-.702a5.923 5.923 0 011.642-.234c.802 0 1.571.156 2.307.468.735.312 1.32.832 1.755 1.56l-1.755 1.378zM24.402 612.8h-6.167v-2.184h6.167v2.184zm10.13-13.208h2.406V618H34.53v-18.408zm15.117 18.876c-1.354 0-2.599-.247-3.736-.741a8.69 8.69 0 01-2.92-2.041 9.479 9.479 0 01-1.906-3.068c-.46-1.179-.69-2.453-.69-3.822 0-1.37.23-2.643.69-3.822a9.479 9.479 0 011.906-3.068 8.69 8.69 0 012.92-2.041c1.137-.494 2.382-.741 3.736-.741s2.6.247 3.736.741a8.69 8.69 0 012.92 2.041 9.479 9.479 0 011.906 3.068c.46 1.179.69 2.453.69 3.822 0 1.37-.23 2.643-.69 3.822a9.479 9.479 0 01-1.905 3.068 8.69 8.69 0 01-2.921 2.041c-1.137.494-2.382.741-3.736.741zm0-2.34c1.02 0 1.939-.195 2.758-.585a6.549 6.549 0 002.106-1.573 6.989 6.989 0 001.354-2.327 8.43 8.43 0 00.476-2.847 8.43 8.43 0 00-.476-2.847 6.989 6.989 0 00-1.354-2.327 6.549 6.549 0 00-2.106-1.573c-.819-.39-1.738-.585-2.758-.585s-1.939.195-2.758.585a6.549 6.549 0 00-2.106 1.573 6.989 6.989 0 00-1.354 2.327 8.43 8.43 0 00-.476 2.847 8.43 8.43 0 00.476 2.847 6.989 6.989 0 001.354 2.327 6.549 6.549 0 002.106 1.573c.82.39 1.739.585 2.758.585zm23.392-14.196h-5.716v-2.34h13.839v2.34h-5.716V618H73.04v-16.068zm10.28 3.744h2.255V618H83.32v-12.324zm-.527-4.42c0-.468.163-.871.488-1.209a1.564 1.564 0 011.166-.507c.452 0 .84.169 1.166.507.326.338.489.741.489 1.209 0 .468-.163.871-.489 1.209a1.564 1.564 0 01-1.166.507c-.451 0-.84-.169-1.166-.507a1.681 1.681 0 01-.488-1.209zm6.543-2.912h2.257V618h-2.257v-19.656zm7.547 14.352c0 .537.113 1.027.338 1.469.226.442.522.819.89 1.131.368.312.794.555 1.279.728.485.173.986.26 1.504.26.702 0 1.312-.169 1.83-.507a5.973 5.973 0 001.43-1.339l1.704 1.352c-1.253 1.681-3.008 2.522-5.265 2.522-.936 0-1.784-.165-2.544-.494a5.538 5.538 0 01-1.931-1.365 6.096 6.096 0 01-1.216-2.054 7.501 7.501 0 01-.426-2.561c0-.919.154-1.772.464-2.561a6.38 6.38 0 011.278-2.054 5.83 5.83 0 011.943-1.365 6.058 6.058 0 012.457-.494c1.053 0 1.943.19 2.67.572a5.31 5.31 0 011.793 1.495 5.984 5.984 0 011.015 2.08c.21.771.314 1.556.314 2.353v.832h-9.527zm7.12-1.872a5.1 5.1 0 00-.238-1.43 3.174 3.174 0 00-.64-1.131 2.944 2.944 0 00-1.065-.754c-.426-.182-.923-.273-1.492-.273-.551 0-1.057.108-1.517.325-.46.217-.848.498-1.165.845a3.917 3.917 0 00-.74 1.157 3.283 3.283 0 00-.263 1.261h7.12zm11.433-2.054a3.495 3.495 0 00-.99-.871c-.394-.234-.874-.351-1.442-.351-.535 0-.999.117-1.392.351-.393.234-.589.576-.589 1.027 0 .364.113.659.338.884.226.225.494.407.803.546.309.139.64.243.99.312.351.07.652.13.903.182.484.121.94.269 1.366.442a3.75 3.75 0 011.103.676c.31.277.552.615.727 1.014.176.399.263.884.263 1.456 0 .693-.142 1.287-.426 1.781a3.673 3.673 0 01-1.103 1.209 4.556 4.556 0 01-1.542.676 7.428 7.428 0 01-1.742.208c-.986 0-1.851-.156-2.595-.468-.744-.312-1.408-.884-1.993-1.716l1.705-1.456c.367.381.777.72 1.228 1.014.451.295 1.003.442 1.655.442.284 0 .572-.03.865-.091.292-.06.551-.156.777-.286.226-.13.41-.295.552-.494.142-.2.213-.429.213-.689 0-.347-.105-.633-.314-.858a2.27 2.27 0 00-.752-.533 5.337 5.337 0 00-.928-.312 29.574 29.574 0 00-.865-.195c-.484-.121-.944-.26-1.378-.416a4.142 4.142 0 01-1.154-.624 2.859 2.859 0 01-.802-.988c-.2-.399-.3-.893-.3-1.482 0-.641.129-1.2.388-1.677a3.54 3.54 0 011.028-1.183c.426-.312.91-.546 1.454-.702a5.923 5.923 0 011.642-.234c.802 0 1.571.156 2.307.468.735.312 1.32.832 1.755 1.56l-1.755 1.378zm-95.795 81.99h7.117c.984 0 1.933.095 2.85.285.915.19 1.73.515 2.444.975a5.026 5.026 0 011.707 1.86c.424.78.636 1.77.636 2.97 0 1.54-.41 2.83-1.23 3.87-.819 1.04-1.99 1.67-3.514 1.89L35.09 712h-4.397l-4.744-9h-2.662v9h-3.645v-21.24zm6.48 9c.521 0 1.042-.025 1.563-.075.52-.05.998-.17 1.432-.36.434-.19.785-.48 1.055-.87.27-.39.405-.935.405-1.635 0-.62-.125-1.12-.376-1.5a2.36 2.36 0 00-.983-.855 4.401 4.401 0 00-1.345-.375c-.492-.06-.97-.09-1.432-.09h-3.153v5.76h2.834zm10.733 5.04c0-1.14.198-2.175.593-3.105.395-.93.93-1.725 1.606-2.385a7.04 7.04 0 012.4-1.53c.926-.36 1.91-.54 2.951-.54a8.07 8.07 0 012.951.54 7.04 7.04 0 012.401 1.53 7.268 7.268 0 011.606 2.385c.395.93.593 1.965.593 3.105s-.198 2.175-.593 3.105a7.268 7.268 0 01-1.606 2.385 7.04 7.04 0 01-2.4 1.53c-.927.36-1.91.54-2.952.54a8.069 8.069 0 01-2.95-.54 7.04 7.04 0 01-2.401-1.53 7.268 7.268 0 01-1.606-2.385c-.395-.93-.593-1.965-.593-3.105zm3.471 0c0 .56.092 1.1.275 1.62a4.043 4.043 0 002.097 2.34c.502.24 1.07.36 1.707.36s1.206-.12 1.707-.36a4.043 4.043 0 002.097-2.34 4.84 4.84 0 00.275-1.62c0-.56-.091-1.1-.275-1.62a4.043 4.043 0 00-2.097-2.34c-.501-.24-1.07-.36-1.707-.36-.636 0-1.205.12-1.706.36a4.043 4.043 0 00-2.098 2.34 4.84 4.84 0 00-.275 1.62zm27.54 7.2H64.57v-2.31h-.058c-.328.72-.83 1.345-1.505 1.875-.675.53-1.59.795-2.748.795-.926 0-1.711-.155-2.357-.465a4.27 4.27 0 01-1.577-1.26 4.983 4.983 0 01-.868-1.815 8.58 8.58 0 01-.26-2.13v-9.09h3.471v7.29c0 .4.02.845.058 1.335.039.49.14.95.304 1.38.164.43.414.79.752 1.08.337.29.815.435 1.432.435.578 0 1.065-.1 1.46-.3.396-.2.724-.47.984-.81.26-.34.449-.73.564-1.17.116-.44.174-.9.174-1.38v-7.86h3.471V712zm2.315-11.34v-3.06h2.864v-4.17h3.471v4.17h3.819v3.06h-3.819v6.3c0 .72.13 1.29.39 1.71.261.42.777.63 1.548.63.309 0 .646-.035 1.013-.105.366-.07.655-.185.868-.345v3.03c-.367.18-.815.305-1.346.375-.53.07-.998.105-1.403.105-.925 0-1.682-.105-2.27-.315-.589-.21-1.052-.53-1.389-.96-.338-.43-.569-.965-.694-1.605-.126-.64-.188-1.38-.188-2.22v-6.6H70.18zm12.93-3.06h3.472V712h-3.471v-14.4zm-.491-4.89c0-.58.207-1.085.622-1.515.415-.43.94-.645 1.577-.645.636 0 1.171.205 1.605.615.434.41.651.925.651 1.545 0 .62-.217 1.135-.65 1.545-.435.41-.97.615-1.606.615-.637 0-1.162-.215-1.577-.645a2.112 2.112 0 01-.622-1.515zm7.955 4.89h3.298v2.31h.058c.328-.72.83-1.345 1.504-1.875.675-.53 1.591-.795 2.749-.795.925 0 1.711.16 2.357.48.646.32 1.172.74 1.577 1.26s.694 1.12.868 1.8c.173.68.26 1.39.26 2.13V712h-3.471v-7.29c0-.4-.02-.845-.058-1.335-.039-.49-.14-.95-.304-1.38a2.58 2.58 0 00-.767-1.08c-.347-.29-.82-.435-1.417-.435-.579 0-1.066.1-1.461.3-.395.2-.723.47-.984.81-.26.34-.448.73-.564 1.17-.115.44-.173.9-.173 1.38V712h-3.472v-14.4zm30.896 0v13.11c0 1.3-.154 2.475-.463 3.525-.308 1.05-.786 1.94-1.432 2.67-.646.73-1.46 1.295-2.444 1.695-.984.4-2.15.6-3.5.6-1.293 0-2.517-.17-3.675-.51-1.157-.34-2.227-.96-3.21-1.86l2.082-2.94c.695.66 1.418 1.17 2.17 1.53.752.36 1.62.54 2.604.54.829 0 1.528-.12 2.097-.36s1.022-.57 1.36-.99c.337-.42.578-.925.723-1.515.144-.59.217-1.245.217-1.965v-1.05h-.058a4.599 4.599 0 01-1.996 1.575 6.49 6.49 0 01-2.546.525c-1.041 0-1.986-.195-2.835-.585a6.78 6.78 0 01-2.184-1.575 6.897 6.897 0 01-1.403-2.34 8.349 8.349 0 01-.492-2.88c0-1.06.154-2.05.463-2.97.309-.92.762-1.72 1.36-2.4a6.462 6.462 0 012.155-1.605c.839-.39 1.798-.585 2.878-.585.984 0 1.9.2 2.748.6.849.4 1.524 1.04 2.025 1.92h.058v-2.16h3.298zm-7.406 2.88c-.617 0-1.176.105-1.677.315-.502.21-.931.5-1.288.87s-.636.82-.839 1.35a4.88 4.88 0 00-.303 1.755c0 .58.1 1.12.303 1.62a4.045 4.045 0 003.775 2.55c.637 0 1.21-.11 1.722-.33.51-.22.945-.515 1.301-.885.357-.37.632-.815.825-1.335.193-.52.29-1.08.29-1.68 0-1.26-.367-2.28-1.1-3.06-.733-.78-1.736-1.17-3.009-1.17zm11.34 9.42c0-.64.227-1.19.68-1.65.453-.46.998-.69 1.635-.69.617 0 1.157.22 1.62.66.463.44.694.98.694 1.62 0 .64-.227 1.19-.68 1.65-.453.46-.998.69-1.634.69-.309 0-.603-.06-.883-.18s-.525-.28-.737-.48a2.229 2.229 0 01-.695-1.62zm0-10.17c0-.64.227-1.19.68-1.65.453-.46.998-.69 1.635-.69.617 0 1.157.22 1.62.66.463.44.694.98.694 1.62 0 .64-.227 1.19-.68 1.65-.453.46-.998.69-1.634.69-.309 0-.603-.06-.883-.18s-.525-.28-.737-.48a2.229 2.229 0 01-.695-1.62zM24.402 776.8h-6.167v-2.184h6.167v2.184zm10.13-13.208h2.406v16.068h8.148V782H34.531v-18.408zm14.265 12.246c0 .624.092 1.2.276 1.729.183.529.442.98.777 1.352a3.6 3.6 0 001.228.884 3.95 3.95 0 001.63.325 3.95 3.95 0 001.63-.325 3.6 3.6 0 001.228-.884 3.93 3.93 0 00.777-1.352 5.23 5.23 0 00.276-1.729c0-.624-.092-1.2-.276-1.729a3.93 3.93 0 00-.777-1.352 3.6 3.6 0 00-1.229-.884 3.95 3.95 0 00-1.63-.325 3.95 3.95 0 00-1.629.325 3.6 3.6 0 00-1.228.884 3.93 3.93 0 00-.778 1.352 5.23 5.23 0 00-.275 1.729zm-2.407 0c0-.901.163-1.742.489-2.522a6.588 6.588 0 011.341-2.054 6.25 6.25 0 012.006-1.391 6.099 6.099 0 012.482-.507c.886 0 1.713.169 2.482.507a6.25 6.25 0 012.006 1.391 6.588 6.588 0 011.341 2.054c.326.78.489 1.62.489 2.522 0 .901-.163 1.746-.489 2.535a6.393 6.393 0 01-1.341 2.054 6.353 6.353 0 01-2.006 1.378 6.099 6.099 0 01-2.482.507 6.099 6.099 0 01-2.482-.507 6.353 6.353 0 01-2.006-1.378 6.393 6.393 0 01-1.341-2.054 6.571 6.571 0 01-.49-2.535zm27.378 6.058c0 .936-.155 1.79-.464 2.561a5.847 5.847 0 01-1.316 2.002 5.934 5.934 0 01-2.056 1.313c-.802.312-1.688.468-2.658.468-1.136 0-2.177-.165-3.121-.494-.944-.33-1.843-.901-2.695-1.716l1.53-1.976c.584.659 1.22 1.157 1.905 1.495.685.338 1.462.507 2.331.507.836 0 1.53-.126 2.081-.377.552-.251.99-.576 1.316-.975.326-.399.556-.854.69-1.365.134-.511.2-1.027.2-1.547v-1.82h-.075a4.023 4.023 0 01-1.767 1.651 5.373 5.373 0 01-2.344.533 6.04 6.04 0 01-2.42-.481 5.75 5.75 0 01-1.918-1.326 6.08 6.08 0 01-1.253-2.002 6.845 6.845 0 01-.452-2.509c0-.901.142-1.746.427-2.535a6.241 6.241 0 011.215-2.067 5.516 5.516 0 011.906-1.378c.744-.33 1.575-.494 2.495-.494.802 0 1.583.182 2.344.546.76.364 1.358.875 1.792 1.534h.05v-1.768h2.257v12.22zM67.6 771.548a3.95 3.95 0 00-1.63.325 3.6 3.6 0 00-1.228.884 3.93 3.93 0 00-.777 1.352 5.23 5.23 0 00-.276 1.729c0 1.248.351 2.249 1.053 3.003s1.655 1.131 2.858 1.131c1.204 0 2.156-.377 2.858-1.131s1.053-1.755 1.053-3.003c0-.624-.091-1.2-.275-1.729a3.93 3.93 0 00-.778-1.352 3.6 3.6 0 00-1.228-.884 3.95 3.95 0 00-1.63-.325zm9.753-1.872h2.257V782h-2.257v-12.324zm-.526-4.42c0-.468.163-.871.488-1.209a1.564 1.564 0 011.166-.507c.452 0 .84.169 1.166.507.326.338.489.741.489 1.209 0 .468-.163.871-.489 1.209a1.564 1.564 0 01-1.166.507c-.451 0-.84-.169-1.166-.507a1.681 1.681 0 01-.488-1.209zm14.867 7.696c-.418-.45-.857-.793-1.316-1.027-.46-.234-1.007-.351-1.642-.351-.619 0-1.158.117-1.618.351a3.32 3.32 0 00-1.153.962c-.31.407-.543.875-.702 1.404a5.708 5.708 0 00-.238 1.651c0 .572.092 1.114.276 1.625.184.511.443.958.777 1.339s.735.68 1.203.897c.468.217.995.325 1.58.325.635 0 1.178-.117 1.63-.351.45-.234.869-.576 1.253-1.027l1.605 1.664c-.585.676-1.266 1.161-2.044 1.456-.777.295-1.6.442-2.47.442-.919 0-1.758-.156-2.519-.468a5.8 5.8 0 01-1.968-1.313 5.827 5.827 0 01-1.279-2.028c-.3-.789-.45-1.66-.45-2.613 0-.953.15-1.829.45-2.626a6.047 6.047 0 011.266-2.054 5.733 5.733 0 011.956-1.339c.76-.32 1.609-.481 2.545-.481.869 0 1.7.16 2.494.481.794.32 1.484.81 2.069 1.469l-1.705 1.612zM24.402 820.8h-6.167v-2.184h6.167v2.184zm22.49-9.23a4.997 4.997 0 00-1.906-1.56 5.506 5.506 0 00-2.382-.546c-1.003 0-1.91.195-2.72.585-.81.39-1.504.923-2.081 1.599a7.36 7.36 0 00-1.341 2.379 8.815 8.815 0 00-.477 2.925c0 .97.15 1.89.452 2.756.3.867.735 1.63 1.303 2.288a6.125 6.125 0 002.081 1.56c.82.381 1.747.572 2.783.572 1.02 0 1.914-.217 2.683-.65a5.833 5.833 0 001.955-1.82l2.031 1.586c-.134.19-.368.464-.702.819-.334.355-.777.71-1.329 1.066-.551.355-1.216.667-1.993.936-.777.269-1.675.403-2.695.403-1.404 0-2.67-.277-3.798-.832a9.208 9.208 0 01-2.884-2.184 9.595 9.595 0 01-1.817-3.055 9.907 9.907 0 01-.627-3.445c0-1.421.226-2.734.677-3.939.451-1.205 1.082-2.245 1.893-3.12a8.452 8.452 0 012.92-2.041c1.137-.485 2.39-.728 3.761-.728 1.17 0 2.32.234 3.448.702a6.463 6.463 0 012.77 2.158l-2.006 1.586zm4.888-5.226h2.257V826H51.78v-19.656zm7.672 13.494c0 .624.092 1.2.276 1.729.184.529.443.98.777 1.352a3.6 3.6 0 001.229.884 3.95 3.95 0 001.63.325 3.95 3.95 0 001.629-.325 3.6 3.6 0 001.228-.884 3.93 3.93 0 00.778-1.352 5.23 5.23 0 00.275-1.729c0-.624-.092-1.2-.275-1.729a3.93 3.93 0 00-.778-1.352 3.6 3.6 0 00-1.228-.884 3.95 3.95 0 00-1.63-.325 3.95 3.95 0 00-1.63.325 3.6 3.6 0 00-1.228.884 3.93 3.93 0 00-.777 1.352 5.23 5.23 0 00-.276 1.729zm-2.407 0c0-.901.163-1.742.49-2.522a6.588 6.588 0 011.34-2.054 6.25 6.25 0 012.006-1.391 6.099 6.099 0 012.482-.507c.886 0 1.713.169 2.482.507a6.25 6.25 0 012.006 1.391 6.588 6.588 0 011.341 2.054c.326.78.49 1.62.49 2.522 0 .901-.164 1.746-.49 2.535a6.393 6.393 0 01-1.341 2.054 6.353 6.353 0 01-2.006 1.378 6.099 6.099 0 01-2.482.507 6.099 6.099 0 01-2.482-.507 6.353 6.353 0 01-2.006-1.378 6.393 6.393 0 01-1.34-2.054 6.571 6.571 0 01-.49-2.535zm23.968-2.886c-.417-.45-.856-.793-1.316-1.027-.46-.234-1.007-.351-1.642-.351-.618 0-1.157.117-1.617.351a3.32 3.32 0 00-1.153.962c-.31.407-.544.875-.702 1.404a5.708 5.708 0 00-.239 1.651c0 .572.092 1.114.276 1.625.184.511.443.958.777 1.339.335.381.736.68 1.204.897a3.71 3.71 0 001.58.325c.635 0 1.178-.117 1.63-.351.45-.234.868-.576 1.253-1.027l1.604 1.664c-.585.676-1.266 1.161-2.043 1.456-.777.295-1.6.442-2.47.442-.919 0-1.759-.156-2.52-.468a5.8 5.8 0 01-1.967-1.313 5.827 5.827 0 01-1.28-2.028c-.3-.789-.45-1.66-.45-2.613 0-.953.15-1.829.45-2.626a6.064 6.064 0 011.267-2.054 5.733 5.733 0 011.956-1.339c.76-.32 1.608-.481 2.544-.481.87 0 1.701.16 2.495.481.794.32 1.483.81 2.068 1.469l-1.705 1.612zm3.586-10.608h2.256v12.688l5.115-5.33h3.134l-5.541 5.59L95.58 826h-3.21l-5.515-6.396V826H84.6v-19.656z" fill="#5A2AB5" fill-rule="nonzero"/><path d="M343.742 274.096l7.142 7.416c.602.633 1.807.65 2.425.05l1.139-1.116 2.457-2.417 11.942-11.665c.619-.6.635-1.833.033-2.45l-1.383-1.45c-.602-.616-1.806-.616-2.408-.016l-11.683 11.948c-.602.617-1.806.6-2.391-.016l-3.89-4.016c-.585-.634-1.756-.617-2.342.033l-1.074 1.183c-.586.633-.553 1.9.033 2.516zm468.61-2.516c-.586.633-.553 1.9.032 2.516l7.143 7.416c.602.633 1.806.65 2.425.05l1.139-1.116 2.457-2.417 11.942-11.665c.619-.6.635-1.833.033-2.45l-1.383-1.45c-.602-.616-1.806-.616-2.408-.016l-11.683 11.948c-.602.617-1.806.6-2.391-.016l-3.89-4.016c-.585-.634-1.756-.617-2.342.033l-1.074 1.183zm-236.25 0c-.586.633-.553 1.9.032 2.516l7.143 7.416c.602.633 1.806.65 2.425.05l1.139-1.116 2.457-2.417 11.942-11.665c.619-.6.635-1.833.033-2.45l-1.383-1.45c-.602-.616-1.806-.616-2.408-.016l-11.683 11.948c-.602.617-1.806.6-2.391-.016l-3.89-4.016c-.585-.634-1.756-.617-2.342.033l-1.074 1.183zm-239.142 203c-.587.633-.554 1.9.032 2.516l7.142 7.416c.602.633 1.807.65 2.425.05l1.139-1.116 2.457-2.417 11.942-11.665c.619-.6.635-1.833.033-2.45l-1.383-1.45c-.602-.616-1.806-.616-2.408-.016l-11.683 11.948c-.602.617-1.806.6-2.391-.016l-3.89-4.016c-.585-.634-1.756-.617-2.342.033l-1.074 1.183zm477.32 301c-.585.633-.553 1.9.033 2.516l7.143 7.416c.602.633 1.806.65 2.424.05l1.14-1.116 2.456-2.417 11.943-11.665c.618-.6.634-1.833.032-2.45l-1.383-1.45c-.602-.616-1.806-.616-2.408-.016l-11.682 11.948c-.602.617-1.806.6-2.392-.016l-3.889-4.016c-.585-.634-1.757-.617-2.343.033l-1.073 1.183zm-478.285 0c-.586.633-.553 1.9.032 2.516l7.143 7.416c.602.633 1.806.65 2.425.05l1.138-1.116 2.457-2.417 11.943-11.665c.618-.6.635-1.833.033-2.45l-1.383-1.45c-.602-.616-1.806-.616-2.408-.016l-11.683 11.948c-.602.617-1.806.6-2.392-.016l-3.888-4.016c-.586-.634-1.758-.617-2.343.033l-1.074 1.183zm242.035 0c-.585.633-.553 1.9.033 2.516l7.143 7.416c.602.633 1.806.65 2.424.05l1.14-1.116 2.456-2.417 11.943-11.665c.618-.6.634-1.833.032-2.45l-1.383-1.45c-.602-.616-1.806-.616-2.408-.016l-11.682 11.948c-.602.617-1.806.6-2.392-.016l-3.889-4.016c-.585-.634-1.757-.617-2.343.033l-1.073 1.183zm236.25-300c-.585.633-.553 1.9.033 2.516l7.143 7.416c.602.633 1.806.65 2.424.05l1.14-1.116 2.456-2.417 11.943-11.665c.618-.6.634-1.833.032-2.45l-1.383-1.45c-.602-.616-1.806-.616-2.408-.016l-11.682 11.948c-.602.617-1.806.6-2.392-.016l-3.889-4.016c-.585-.634-1.757-.617-2.343.033l-1.073 1.183zm-476.357 87c-.585.633-.553 1.9.033 2.516l7.143 7.416c.602.633 1.806.65 2.424.05l1.14-1.116 2.456-2.417 11.943-11.665c.618-.6.634-1.833.032-2.45l-1.383-1.45c-.602-.616-1.806-.616-2.408-.016l-11.682 11.948c-.602.617-1.806.6-2.392-.016l-3.889-4.016c-.586-.634-1.757-.617-2.343.033l-1.074 1.183zm7.747-245.484l7.143 7.416c.602.633 1.806.65 2.424.05l1.14-1.116 2.456-2.417 11.943-11.665c.618-.6.634-1.833.032-2.45l-1.383-1.45c-.602-.616-1.806-.616-2.408-.016l-11.682 11.948c-.602.617-1.806.6-2.392-.016l-3.888-4.016c-.586-.634-1.758-.617-2.343.033l-1.074 1.183c-.586.633-.554 1.9.032 2.516zm468.61-2.516c-.585.633-.553 1.9.033 2.516l7.143 7.416c.602.633 1.806.65 2.424.05l1.14-1.116 2.456-2.417 11.943-11.665c.618-.6.634-1.833.032-2.45l-1.383-1.45c-.602-.616-1.806-.616-2.408-.016l-11.682 11.948c-.602.617-1.806.6-2.392-.016l-3.889-4.016c-.585-.634-1.757-.617-2.343.033l-1.073 1.183zm-476.357 204c-.585.633-.553 1.9.033 2.516l7.143 7.416c.602.633 1.806.65 2.424.05l1.14-1.116 2.456-2.417 11.943-11.665c.618-.6.634-1.833.032-2.45l-1.383-1.45c-.602-.616-1.806-.616-2.408-.016l-11.682 11.948c-.602.617-1.806.6-2.392-.016l-3.889-4.016c-.586-.634-1.757-.617-2.343.033l-1.074 1.183zm477.322 301c-.586.633-.553 1.9.032 2.516l7.143 7.416c.602.633 1.806.65 2.425.05l1.138-1.116 2.457-2.417 11.943-11.665c.618-.6.635-1.833.033-2.45l-1.383-1.45c-.602-.616-1.806-.616-2.408-.016l-11.683 11.948c-.602.617-1.806.6-2.392-.016l-3.888-4.016c-.586-.634-1.758-.617-2.343.033l-1.074 1.183zm-479.25 0c-.586.633-.553 1.9.032 2.516l7.143 7.416c.602.633 1.806.65 2.425.05l1.138-1.116 2.457-2.417 11.943-11.665c.618-.6.635-1.833.033-2.45l-1.383-1.45c-.602-.616-1.806-.616-2.408-.016l-11.683 11.948c-.602.617-1.806.6-2.392-.016l-3.888-4.016c-.586-.634-1.758-.617-2.343.033l-1.074 1.183zm1.928-214c-.585.633-.553 1.9.033 2.516l7.143 7.416c.602.633 1.806.65 2.424.05l1.14-1.116 2.456-2.417 11.943-11.665c.618-.6.634-1.833.032-2.45l-1.383-1.45c-.602-.616-1.806-.616-2.408-.016l-11.682 11.948c-.602.617-1.806.6-2.392-.016l-3.889-4.016c-.586-.634-1.757-.617-2.343.033l-1.074 1.183z" fill="#9258FF"/><path d="M340.056 197.37c-.868.95-.82 2.85.048 3.775l10.582 11.123c.892.95 2.676.975 3.592.075l1.687-1.674 3.64-3.625 17.693-17.498c.916-.9.94-2.75.048-3.674l-2.049-2.175c-.892-.925-2.676-.925-3.568-.025l-17.307 17.923c-.892.925-2.675.9-3.543-.025l-5.761-6.025c-.868-.95-2.604-.925-3.471.05l-1.591 1.775zm467.678 0c-.867.95-.82 2.85.049 3.775l10.582 11.123c.891.95 2.675.975 3.591.075l1.688-1.674 3.64-3.625 17.692-17.498c.916-.9.94-2.75.048-3.674l-2.048-2.175c-.892-.925-2.676-.925-3.568-.025l-17.307 17.923c-.892.925-2.676.9-3.544-.025l-5.76-6.025c-.868-.95-2.604-.925-3.472.05l-1.59 1.775zm-236.25 0c-.867.95-.82 2.85.049 3.775l10.582 11.123c.891.95 2.675.975 3.591.075l1.688-1.674 3.64-3.625 17.692-17.498c.916-.9.94-2.75.048-3.674l-2.048-2.175c-.892-.925-2.676-.925-3.568-.025l-17.307 17.923c-.892.925-2.676.9-3.544-.025l-5.76-6.025c-.868-.95-2.604-.925-3.472.05l-1.59 1.775zm-236.25 209c-.867.95-.82 2.85.049 3.775l10.582 11.123c.891.95 2.675.975 3.591.075l1.688-1.674 3.64-3.625 17.692-17.498c.916-.9.94-2.75.048-3.674l-2.048-2.175c-.892-.925-2.676-.925-3.568-.025l-17.307 17.923c-.892.925-2.676.9-3.544-.025l-5.76-6.025c-.868-.95-2.604-.925-3.472.05l-1.59 1.775zm472.5 293c-.867.95-.82 2.85.049 3.775l10.582 11.123c.891.95 2.675.975 3.591.075l1.688-1.674 3.64-3.625 17.692-17.498c.916-.9.94-2.75.048-3.674l-2.048-2.175c-.892-.925-2.676-.925-3.568-.025l-17.307 17.923c-.892.925-2.676.9-3.544-.025l-5.76-6.025c-.868-.95-2.604-.925-3.472.05l-1.59 1.775zm-477.321 2c-.868.95-.82 2.85.048 3.775l10.582 11.123c.892.95 2.676.975 3.592.075l1.687-1.674 3.64-3.625 17.693-17.498c.916-.9.94-2.75.048-3.674l-2.049-2.175c-.892-.925-2.676-.925-3.567-.025l-17.308 17.923c-.891.925-2.675.9-3.543-.025l-5.761-6.025c-.868-.95-2.603-.925-3.471.05l-1.591 1.775zm481.179-296c-.868.95-.82 2.85.048 3.775l10.582 11.123c.892.95 2.675.975 3.591.075l1.688-1.674 3.64-3.625 17.692-17.498c.916-.9.94-2.75.049-3.674l-2.05-2.175c-.891-.925-2.675-.925-3.567-.025l-17.307 17.923c-.892.925-2.676.9-3.543-.025l-5.761-6.025c-.868-.95-2.604-.925-3.472.05l-1.59 1.775z" fill="#742BFF" opacity=".8"/><path fill="#959595" d="M577.607 309.333l6.429 6.667-6.429 6.667 3.214 3.333 6.429-6.667 6.429 6.667 3.214-3.333-6.429-6.667 6.429-6.667-3.214-3.333-6.429 6.667-6.429-6.667zm-1.928 160l6.428 6.667-6.428 6.667 3.214 3.333 6.428-6.667L591.75 486l3.214-3.333-6.428-6.667 6.428-6.667L591.75 466l-6.429 6.667-6.428-6.667zm-.965 44l6.429 6.667-6.429 6.667L577.93 530l6.428-6.667 6.429 6.667 3.214-3.333-6.429-6.667 6.429-6.667-3.214-3.333-6.429 6.667L577.93 510zm241.072 1l6.428 6.667-6.428 6.667L819 531l6.429-6.667 6.428 6.667 3.214-3.333-6.428-6.667 6.428-6.667-3.214-3.333-6.428 6.667L819 511zm-240.107 41l6.428 6.667-6.428 6.667 3.214 3.333 6.428-6.667L591.75 572l3.214-3.333-6.428-6.667 6.428-6.667L591.75 552l-6.429 6.667-6.428-6.667zm241.071 1l6.429 6.667-6.429 6.667 3.214 3.333 6.429-6.667L832.82 573l3.215-3.333-6.429-6.667 6.429-6.667L832.82 553l-6.428 6.667-6.429-6.667zm-241.071 44l6.428 6.667-6.428 6.667 3.214 3.333 6.428-6.667L591.75 617l3.214-3.333-6.428-6.667 6.428-6.667L591.75 597l-6.429 6.667-6.428-6.667zm4.821 214l6.429 6.667-6.429 6.667 3.214 3.333 6.429-6.667L596.57 831l3.215-3.333-6.429-6.667 6.429-6.667L596.57 811l-6.428 6.667-6.429-6.667zm236.25-213l6.429 6.667-6.429 6.667 3.214 3.333 6.429-6.667L832.82 618l3.215-3.333-6.429-6.667 6.429-6.667L832.82 598l-6.428 6.667-6.429-6.667zM574.714 396.667l9 9.333-9 9.333 4.5 4.667 9-9.333 9 9.333 4.5-4.667-9-9.333 9-9.333-4.5-4.667-9 9.333-9-9.333zm0 298l9 9.333-9 9.333 4.5 4.667 9-9.333 9 9.333 4.5-4.667-9-9.333 9-9.333-4.5-4.667-9 9.333-9-9.333z"/><path d="M237.75 1.5v864H471V1.5H237.75zm472.5 0v864H943.5V1.5H710.25z" stroke="#5A2AB5" stroke-width="3" fill-opacity=".03" fill="#D8D8D8"/><path stroke="#5A2AB5" stroke-width="3" d="M1.5 151.5h942v207H1.5zm0 507h942v207H1.5z"/><rect stroke="#5A2AB5" stroke-width="3" x="1.5" y="1.5" width="942" height="864" rx="8"/></g></g></svg>